SplineFontDB: 3.2
FontName: KoreeneSans-Italic
FullName: Koreene Sans Italic
FamilyName: Koreene Sans
Weight: Book
Copyright: (C) Copyright HanYang I&C Co.,Ltd. All rights reserved.
Version: 2.52
ItalicAngle: -9.4
UnderlinePosition: -244
UnderlineWidth: 90
Ascent: 1638
Descent: 410
InvalidEm: 0
sfntRevision: 0x00020147
LayerCount: 2
Layer: 0 1 "Back" 1
Layer: 1 1 "Fore" 0
XUID: [1021 531 -1996577725 13374065]
StyleMap: 0x0001
FSType: 0
OS2Version: 4
OS2_WeightWidthSlopeOnly: 0
OS2_UseTypoMetrics: 1
CreationTime: 1068260456
ModificationTime: 1706985420
PfmFamily: 81
TTFWeight: 400
TTFWidth: 5
LineGap: 512
VLineGap: 0
Panose: 0 0 0 0 0 0 0 0 0 0
OS2TypoAscent: 1940
OS2TypoAOffset: 0
OS2TypoDescent: -470
OS2TypoDOffset: 0
OS2TypoLinegap: 512
OS2WinAscent: 2196
OS2WinAOffset: 0
OS2WinDescent: 726
OS2WinDOffset: 0
HheadAscent: 1940
HheadAOffset: 0
HheadDescent: -470
HheadDOffset: 0
OS2SubXSize: 410
OS2SubYSize: 410
OS2SubXOff: 0
OS2SubYOff: 574
OS2SupXSize: 410
OS2SupYSize: 410
OS2SupXOff: 0
OS2SupYOff: 1926
OS2StrikeYSize: 204
OS2StrikeYPos: 1024
OS2CapHeight: 1470
OS2XHeight: 1056
OS2Vendor: 'HY  '
OS2CodePages: 2000019f.00000000
OS2UnicodeRanges: e10002ff.4000001b.00000000.00000000
Lookup: 1 0 0 "'aalt' Access All Alternates lookup 0" { "'aalt' Access All Alternates lookup 0 subtable"  } ['aalt' ('DFLT' <'dflt' > 'cyrl' <'dflt' > 'grek' <'dflt' > 'hang' <'dflt' > 'jamo' <'dflt' > 'latn' <'dflt' > ) ]
Lookup: 3 0 0 "'aalt' Access All Alternates lookup 1" { "'aalt' Access All Alternates lookup 1 subtable"  } ['aalt' ('DFLT' <'dflt' > 'cyrl' <'dflt' > 'grek' <'dflt' > 'hang' <'dflt' > 'jamo' <'dflt' > 'latn' <'dflt' > ) ]
Lookup: 1 0 0 "'locl' Localized Forms in Latin lookup 2" { "'locl' Localized Forms in Latin lookup 2 subtable"  } ['locl' ('latn' <'MOL ' > ) ]
Lookup: 1 0 0 "'locl' Localized Forms in Latin lookup 3" { "'locl' Localized Forms in Latin lookup 3 subtable"  } ['locl' ('latn' <'ROM ' > ) ]

StartChar: exclam
Encoding: 33 33 4
Width: 580
GlyphClass: 2
Flags: W
LayerCount: 2
Fore
SplineSet
72 -20 m 1,0,-1
 110 206 l 1,1,-1
 352 206 l 1,2,-1
 314 -20 l 1,3,-1
 72 -20 l 1,0,-1
332 408 m 1,4,-1
 198 408 l 1,5,-1
 356 1472 l 1,6,-1
 526 1472 l 1,7,-1
 332 408 l 1,4,-1
EndSplineSet
EndChar

StartChar: quotedbl
Encoding: 34 34 5
Width: 942
GlyphClass: 2
Flags: W
LayerCount: 2
Fore
SplineSet
600 1074 m 1,0,-1
 852 1648 l 1,1,-1
 1066 1648 l 1,2,-1
 722 1074 l 1,3,-1
 600 1074 l 1,0,-1
206 1074 m 1,4,-1
 458 1648 l 1,5,-1
 672 1648 l 1,6,-1
 328 1074 l 1,7,-1
 206 1074 l 1,4,-1
EndSplineSet
EndChar

StartChar: numbersign
Encoding: 35 35 6
Width: 1374
GlyphClass: 2
Flags: W
LayerCount: 2
Fore
SplineSet
60 404 m 1,0,-1
 80 522 l 1,1,-1
 330 522 l 1,2,-1
 446 906 l 1,3,-1
 204 906 l 1,4,-1
 224 1022 l 1,5,-1
 480 1022 l 1,6,-1
 596 1420 l 1,7,-1
 732 1420 l 1,8,-1
 616 1022 l 1,9,-1
 996 1022 l 1,10,-1
 1112 1420 l 1,11,-1
 1248 1420 l 1,12,-1
 1130 1022 l 1,13,-1
 1364 1022 l 1,14,-1
 1344 906 l 1,15,-1
 1096 906 l 1,16,-1
 984 522 l 1,17,-1
 1220 522 l 1,18,-1
 1200 404 l 1,19,-1
 948 404 l 1,20,-1
 830 4 l 1,21,-1
 690 4 l 1,22,-1
 810 404 l 1,23,-1
 432 404 l 1,24,-1
 316 4 l 1,25,-1
 174 4 l 1,26,-1
 296 404 l 1,27,-1
 60 404 l 1,0,-1
468 522 m 1,28,-1
 846 522 l 1,29,-1
 960 906 l 1,30,-1
 580 906 l 1,31,-1
 468 522 l 1,28,-1
EndSplineSet
EndChar

StartChar: dollar
Encoding: 36 36 7
Width: 1132
GlyphClass: 2
Flags: W
LayerCount: 2
Fore
SplineSet
64 268 m 1,0,-1
 188 328 l 1,1,2
 230 238 230 238 316 184 c 128,-1,3
 402 130 402 130 500 130 c 0,4,5
 624 130 624 130 716 192 c 128,-1,6
 808 254 808 254 828 378 c 0,7,8
 834 416 834 416 830 448 c 128,-1,9
 826 480 826 480 817 504 c 128,-1,10
 808 528 808 528 784 553 c 128,-1,11
 760 578 760 578 742 592 c 128,-1,12
 724 606 724 606 682 630 c 128,-1,13
 640 654 640 654 618 664 c 128,-1,14
 596 674 596 674 541 698 c 128,-1,15
 486 722 486 722 464 734 c 0,16,17
 332 796 332 796 273 881 c 128,-1,18
 214 966 214 966 236 1104 c 0,19,20
 258 1234 258 1234 370 1339 c 128,-1,21
 482 1444 482 1444 646 1462 c 1,22,-1
 674 1626 l 1,23,-1
 816 1626 l 1,24,-1
 788 1460 l 1,25,26
 892 1454 892 1454 976 1385 c 128,-1,27
 1060 1316 1060 1316 1082 1232 c 1,28,-1
 958 1176 l 1,29,30
 872 1340 872 1340 696 1340 c 0,31,32
 574 1340 574 1340 490 1273 c 128,-1,33
 406 1206 406 1206 390 1102 c 0,34,35
 380 1042 380 1042 395 997 c 128,-1,36
 410 952 410 952 461 913 c 128,-1,37
 512 874 512 874 553 854 c 128,-1,38
 594 834 594 834 688 790 c 0,39,40
 762 760 762 760 810 730 c 128,-1,41
 858 700 858 700 909 653 c 128,-1,42
 960 606 960 606 978 540 c 128,-1,43
 996 474 996 474 984 392 c 0,44,45
 956 220 956 220 833 120 c 128,-1,46
 710 20 710 20 546 2 c 1,47,-1
 520 -152 l 1,48,-1
 380 -152 l 1,49,-1
 406 6 l 1,50,51
 296 14 296 14 199 85 c 128,-1,52
 102 156 102 156 64 268 c 1,0,-1
EndSplineSet
EndChar

StartChar: percent
Encoding: 37 37 8
Width: 1884
GlyphClass: 2
Flags: W
LayerCount: 2
Fore
SplineSet
982 320 m 0,0,1
 1008 476 1008 476 1128 575 c 128,-1,2
 1248 674 1248 674 1408 674 c 256,3,4
 1568 674 1568 674 1655 575 c 128,-1,5
 1742 476 1742 476 1716 320 c 0,6,7
 1690 160 1690 160 1569 62 c 128,-1,8
 1448 -36 1448 -36 1290 -36 c 0,9,10
 1134 -36 1134 -36 1045 63 c 128,-1,11
 956 162 956 162 982 320 c 0,0,1
1126 320 m 256,12,13
 1108 214 1108 214 1163 150 c 128,-1,14
 1218 86 1218 86 1310 86 c 256,15,16
 1402 86 1402 86 1479 151 c 128,-1,17
 1556 216 1556 216 1574 320 c 0,18,19
 1592 426 1592 426 1537 489 c 128,-1,20
 1482 552 1482 552 1386 552 c 0,21,22
 1292 552 1292 552 1218 489 c 128,-1,23
 1144 426 1144 426 1126 320 c 256,12,13
226 1152 m 0,24,25
 252 1310 252 1310 372 1408 c 128,-1,26
 492 1506 492 1506 652 1506 c 256,27,28
 812 1506 812 1506 900 1408 c 128,-1,29
 988 1310 988 1310 960 1152 c 0,30,31
 934 996 934 996 813 897 c 128,-1,32
 692 798 692 798 534 798 c 0,33,34
 378 798 378 798 289 897 c 128,-1,35
 200 996 200 996 226 1152 c 0,24,25
368 1152 m 256,36,37
 350 1046 350 1046 406 982 c 128,-1,38
 462 918 462 918 554 918 c 256,39,40
 646 918 646 918 723 983 c 128,-1,41
 800 1048 800 1048 818 1152 c 0,42,43
 836 1258 836 1258 782 1322 c 128,-1,44
 728 1386 728 1386 632 1386 c 0,45,46
 540 1386 540 1386 463 1322 c 128,-1,47
 386 1258 386 1258 368 1152 c 256,36,37
254 0 m 1,48,-1
 1530 1470 l 1,49,-1
 1686 1470 l 1,50,-1
 408 0 l 1,51,-1
 254 0 l 1,48,-1
EndSplineSet
EndChar

StartChar: ampersand
Encoding: 38 38 9
Width: 1246
GlyphClass: 2
Flags: W
LayerCount: 2
Fore
SplineSet
230 370 m 256,0,1
 210 244 210 244 279 169 c 128,-1,2
 348 94 348 94 478 94 c 0,3,4
 652 94 652 94 822 268 c 1,5,-1
 550 762 l 1,6,7
 424 682 424 682 337 589 c 128,-1,8
 250 496 250 496 230 370 c 256,0,1
76 368 m 0,9,10
 124 660 124 660 488 872 c 1,11,12
 484 882 484 882 474 898 c 0,13,14
 436 968 436 968 422 1001 c 128,-1,15
 408 1034 408 1034 398 1083 c 128,-1,16
 388 1132 388 1132 398 1188 c 0,17,18
 418 1312 418 1312 526 1401 c 128,-1,19
 634 1490 634 1490 802 1490 c 0,20,21
 1056 1490 1056 1490 1136 1242 c 1,22,-1
 1010 1190 l 1,23,24
 986 1258 986 1258 927 1310 c 128,-1,25
 868 1362 868 1362 792 1362 c 0,26,27
 692 1362 692 1362 628 1310 c 128,-1,28
 564 1258 564 1258 552 1182 c 0,29,30
 538 1102 538 1102 622 929 c 128,-1,31
 706 756 706 756 920 392 c 1,32,33
 998 514 998 514 1056 680 c 1,34,-1
 1190 654 l 1,35,36
 1124 442 1124 442 996 268 c 1,37,-1
 1154 0 l 1,38,-1
 978 0 l 1,39,-1
 890 152 l 1,40,41
 688 -36 688 -36 450 -36 c 0,42,43
 240 -36 240 -36 144 80 c 128,-1,44
 48 196 48 196 76 368 c 0,9,10
EndSplineSet
EndChar

StartChar: quotesingle
Encoding: 39 39 10
Width: 574
GlyphClass: 2
Flags: W
LayerCount: 2
Fore
SplineSet
224 1074 m 1,0,-1
 476 1648 l 1,1,-1
 690 1648 l 1,2,-1
 344 1074 l 1,3,-1
 224 1074 l 1,0,-1
EndSplineSet
EndChar

StartChar: parenleft
Encoding: 40 40 11
Width: 842
GlyphClass: 2
Flags: W
LayerCount: 2
Fore
SplineSet
296 704 m 0,0,1
 390 1272 390 1272 796 1704 c 1,2,-1
 894 1642 l 1,3,4
 818 1548 818 1548 791 1513 c 128,-1,5
 764 1478 764 1478 695 1373 c 128,-1,6
 626 1268 626 1268 590 1187 c 128,-1,7
 554 1106 554 1106 512 976 c 128,-1,8
 470 846 470 846 446 704 c 0,9,10
 418 532 418 532 418 388 c 128,-1,11
 418 244 418 244 450 123 c 128,-1,12
 482 2 482 2 507 -64 c 128,-1,13
 532 -130 532 -130 584 -234 c 1,14,-1
 466 -294 l 1,15,16
 350 -98 350 -98 296 138 c 128,-1,17
 242 374 242 374 296 704 c 0,0,1
EndSplineSet
Substitution2: "'sups' Superscript lookup 5 subtable" uni207D
Substitution2: "'aalt' Access All Alternates lookup 0 subtable" uni207D
EndChar

StartChar: parenright
Encoding: 41 41 12
Width: 842
GlyphClass: 2
Flags: W
LayerCount: 2
Fore
SplineSet
-6 -234 m 1,0,1
 172 -18 172 -18 282 194 c 128,-1,2
 392 406 392 406 442 704 c 0,3,4
 470 874 470 874 470 1015 c 128,-1,5
 470 1156 470 1156 440 1276 c 128,-1,6
 410 1396 410 1396 383 1466 c 128,-1,7
 356 1536 356 1536 306 1642 c 1,8,-1
 424 1704 l 1,9,10
 686 1270 686 1270 590 704 c 0,11,12
 536 378 536 378 405 141 c 128,-1,13
 274 -96 274 -96 92 -294 c 1,14,-1
 -6 -234 l 1,0,1
EndSplineSet
Substitution2: "'sups' Superscript lookup 5 subtable" uni207E
Substitution2: "'aalt' Access All Alternates lookup 0 subtable" uni207E
EndChar

StartChar: asterisk
Encoding: 42 42 13
Width: 1086
GlyphClass: 2
Flags: W
LayerCount: 2
Fore
SplineSet
88 834 m 1,0,-1
 162 960 l 1,1,-1
 524 806 l 1,2,-1
 574 1200 l 1,3,-1
 720 1200 l 1,4,-1
 640 806 l 1,5,-1
 1054 960 l 1,6,-1
 1088 834 l 1,7,-1
 660 688 l 1,8,-1
 904 350 l 1,9,-1
 778 264 l 1,10,-1
 552 624 l 1,11,-1
 208 264 l 1,12,-1
 112 350 l 1,13,-1
 468 688 l 1,14,-1
 88 834 l 1,0,-1
EndSplineSet
EndChar

StartChar: plus
Encoding: 43 43 14
Width: 1084
GlyphClass: 2
Flags: W
LayerCount: 2
Fore
SplineSet
64 662 m 1,0,-1
 86 794 l 1,1,-1
 506 794 l 1,2,-1
 576 1216 l 1,3,-1
 722 1216 l 1,4,-1
 654 794 l 1,5,-1
 1072 794 l 1,6,-1
 1050 662 l 1,7,-1
 632 662 l 1,8,-1
 558 224 l 1,9,-1
 412 224 l 1,10,-1
 484 662 l 1,11,-1
 64 662 l 1,0,-1
EndSplineSet
Substitution2: "'sups' Superscript lookup 5 subtable" uni207A
Substitution2: "'aalt' Access All Alternates lookup 0 subtable" uni207A
EndChar

StartChar: comma
Encoding: 44 44 15
Width: 550
GlyphClass: 2
Flags: W
LayerCount: 2
Fore
SplineSet
-114 -342 m 1,0,-1
 140 234 l 1,1,-1
 352 234 l 1,2,-1
 8 -342 l 1,3,-1
 -114 -342 l 1,0,-1
EndSplineSet
EndChar

StartChar: hyphen
Encoding: 45 45 16
Width: 756
GlyphClass: 2
Flags: W
LayerCount: 2
Fore
SplineSet
76 662 m 1,0,-1
 98 794 l 1,1,-1
 732 794 l 1,2,-1
 710 662 l 1,3,-1
 76 662 l 1,0,-1
EndSplineSet
EndChar

StartChar: period
Encoding: 46 46 17
Width: 550
GlyphClass: 2
Flags: W
LayerCount: 2
Fore
SplineSet
56 0 m 1,0,-1
 96 234 l 1,1,-1
 338 234 l 1,2,-1
 300 0 l 1,3,-1
 56 0 l 1,0,-1
EndSplineSet
EndChar

StartChar: slash
Encoding: 47 47 18
Width: 664
GlyphClass: 2
Flags: W
LayerCount: 2
Fore
SplineSet
-136 -112 m 1,0,-1
 696 1562 l 1,1,-1
 852 1562 l 1,2,-1
 22 -112 l 1,3,-1
 -136 -112 l 1,0,-1
EndSplineSet
EndChar

StartChar: zero
Encoding: 48 48 19
Width: 1100
GlyphClass: 2
Flags: W
LayerCount: 2
Fore
SplineSet
286 734 m 0,0,1
 238 440 238 440 282 267 c 128,-1,2
 326 94 326 94 476 94 c 0,3,4
 556 94 556 94 623 146 c 128,-1,5
 690 198 690 198 736 290 c 128,-1,6
 782 382 782 382 815 491 c 128,-1,7
 848 600 848 600 870 734 c 0,8,9
 918 1028 918 1028 875 1203 c 128,-1,10
 832 1378 832 1378 684 1378 c 256,11,12
 536 1378 536 1378 436 1205 c 128,-1,13
 336 1032 336 1032 286 734 c 0,0,1
128 734 m 0,14,15
 194 1134 194 1134 354 1320 c 128,-1,16
 514 1506 514 1506 706 1506 c 0,17,18
 918 1506 918 1506 1003 1307 c 128,-1,19
 1088 1108 1088 1108 1028 734 c 0,20,21
 990 510 990 510 917 341 c 128,-1,22
 844 172 844 172 725 68 c 128,-1,23
 606 -36 606 -36 454 -36 c 0,24,25
 260 -36 260 -36 162 155 c 128,-1,26
 64 346 64 346 128 734 c 0,14,15
EndSplineSet
EndChar

StartChar: one
Encoding: 49 49 20
Width: 1100
GlyphClass: 2
Flags: W
LayerCount: 2
Fore
SplineSet
294 1114 m 1,0,-1
 312 1230 l 1,1,-1
 370 1230 l 2,2,3
 530 1230 530 1230 597 1280 c 0,4,5
 661 1327 661 1327 678 1424 c 2,6,-1
 686 1470 l 1,7,-1
 812 1470 l 1,8,-1
 570 0 l 1,9,-1
 416 0 l 1,10,-1
 600 1114 l 1,11,-1
 294 1114 l 1,0,-1
EndSplineSet
Substitution2: "'subs' Subscript lookup 6 subtable" uni2081
Substitution2: "'sups' Superscript lookup 5 subtable" onesuperior
Substitution2: "'sinf' Scientific Inferiors lookup 4 subtable" uni2081
AlternateSubs2: "'aalt' Access All Alternates lookup 1 subtable" uni2081 onesuperior
EndChar

StartChar: two
Encoding: 50 50 21
Width: 1100
GlyphClass: 2
Flags: W
LayerCount: 2
Fore
SplineSet
198 1138 m 1,0,1
 270 1310 270 1310 396 1408 c 128,-1,2
 522 1506 522 1506 702 1506 c 0,3,4
 886 1506 886 1506 986 1398 c 128,-1,5
 1086 1290 1086 1290 1054 1100 c 0,6,7
 1018 880 1018 880 758 662 c 0,8,9
 458 410 458 410 378 330 c 0,10,11
 274 226 274 226 224 130 c 1,12,-1
 894 130 l 1,13,-1
 872 0 l 1,14,-1
 18 0 l 1,15,16
 30 74 30 74 75 156 c 128,-1,17
 120 238 120 238 167 297 c 128,-1,18
 214 356 214 356 313 449 c 128,-1,19
 412 542 412 542 465 586 c 128,-1,20
 518 630 518 630 646 736 c 0,21,22
 864 918 864 918 896 1102 c 0,23,24
 918 1232 918 1232 858 1305 c 128,-1,25
 798 1378 798 1378 676 1378 c 0,26,27
 556 1378 556 1378 467 1303 c 128,-1,28
 378 1228 378 1228 328 1102 c 1,29,-1
 198 1138 l 1,0,1
EndSplineSet
Substitution2: "'subs' Subscript lookup 6 subtable" uni2082
Substitution2: "'sups' Superscript lookup 5 subtable" twosuperior
Substitution2: "'sinf' Scientific Inferiors lookup 4 subtable" uni2082
AlternateSubs2: "'aalt' Access All Alternates lookup 1 subtable" uni2082 twosuperior
EndChar

StartChar: three
Encoding: 51 51 22
Width: 1100
GlyphClass: 2
Flags: W
LayerCount: 2
Fore
SplineSet
26 254 m 1,0,-1
 162 304 l 1,1,2
 236 94 236 94 450 94 c 0,3,4
 586 94 586 94 689 175 c 128,-1,5
 792 256 792 256 818 408 c 0,6,7
 842 552 842 552 755 631 c 128,-1,8
 668 710 668 710 524 710 c 0,9,10
 454 710 454 710 408 706 c 1,11,-1
 430 836 l 1,12,13
 470 832 470 832 538 832 c 0,14,15
 666 832 666 832 760 908 c 128,-1,16
 854 984 854 984 876 1112 c 0,17,18
 896 1228 896 1228 834 1303 c 128,-1,19
 772 1378 772 1378 656 1378 c 0,20,21
 472 1378 472 1378 342 1154 c 1,22,-1
 222 1198 l 1,23,24
 288 1332 288 1332 406 1419 c 128,-1,25
 524 1506 524 1506 684 1506 c 0,26,27
 874 1506 874 1506 969 1398 c 128,-1,28
 1064 1290 1064 1290 1036 1126 c 0,29,30
 1014 998 1014 998 932 908 c 128,-1,31
 850 818 850 818 748 782 c 1,32,33
 858 750 858 750 929 656 c 128,-1,34
 1000 562 1000 562 974 408 c 0,35,36
 938 196 938 196 790 80 c 128,-1,37
 642 -36 642 -36 428 -36 c 0,38,39
 262 -36 262 -36 159 47 c 128,-1,40
 56 130 56 130 26 254 c 1,0,-1
EndSplineSet
Substitution2: "'subs' Subscript lookup 6 subtable" uni2083
Substitution2: "'sups' Superscript lookup 5 subtable" threesuperior
Substitution2: "'sinf' Scientific Inferiors lookup 4 subtable" uni2083
AlternateSubs2: "'aalt' Access All Alternates lookup 1 subtable" uni2083 threesuperior
EndChar

StartChar: four
Encoding: 52 52 23
Width: 1100
GlyphClass: 2
Flags: W
LayerCount: 2
Fore
SplineSet
50 466 m 1,0,-1
 862 1470 l 1,1,-1
 996 1470 l 1,2,-1
 830 470 l 1,3,-1
 1032 470 l 1,4,-1
 1010 342 l 1,5,-1
 810 342 l 1,6,-1
 752 0 l 1,7,-1
 602 0 l 1,8,-1
 658 342 l 1,9,-1
 30 342 l 1,10,-1
 50 466 l 1,0,-1
196 470 m 1,11,-1
 680 470 l 1,12,-1
 770 1014 l 2,13,14
 790 1134 790 1134 816 1244 c 1,15,-1
 808 1244 l 1,16,-1
 648 1038 l 1,17,-1
 196 470 l 1,11,-1
EndSplineSet
Substitution2: "'subs' Subscript lookup 6 subtable" uni2084
Substitution2: "'sups' Superscript lookup 5 subtable" uni2074
Substitution2: "'sinf' Scientific Inferiors lookup 4 subtable" uni2084
AlternateSubs2: "'aalt' Access All Alternates lookup 1 subtable" uni2084 uni2074
EndChar

StartChar: five
Encoding: 53 53 24
Width: 1100
GlyphClass: 2
Flags: W
LayerCount: 2
Fore
SplineSet
42 238 m 1,0,-1
 178 286 l 1,1,2
 204 198 204 198 274 146 c 128,-1,3
 344 94 344 94 438 94 c 0,4,5
 584 94 584 94 678 190 c 128,-1,6
 772 286 772 286 798 440 c 256,7,8
 824 594 824 594 754 691 c 128,-1,9
 684 788 684 788 544 788 c 0,10,11
 388 788 388 788 246 658 c 1,12,-1
 160 694 l 1,13,-1
 362 1470 l 1,14,-1
 1042 1470 l 1,15,-1
 1020 1340 l 1,16,-1
 482 1340 l 1,17,-1
 344 836 l 1,18,19
 470 916 470 916 620 916 c 0,20,21
 802 916 802 916 898 788 c 128,-1,22
 994 660 994 660 958 444 c 0,23,24
 924 244 924 244 784 104 c 128,-1,25
 644 -36 644 -36 416 -36 c 0,26,27
 124 -36 124 -36 42 238 c 1,0,-1
EndSplineSet
EndChar

StartChar: six
Encoding: 54 54 25
Width: 1100
GlyphClass: 2
Flags: W
LayerCount: 2
Fore
SplineSet
250 458 m 0,0,1
 224 298 224 298 289 196 c 128,-1,2
 354 94 354 94 488 94 c 0,3,4
 614 94 614 94 714 195 c 128,-1,5
 814 296 814 296 840 458 c 0,6,7
 868 622 868 622 800 723 c 128,-1,8
 732 824 732 824 604 824 c 0,9,10
 478 824 478 824 377 718 c 128,-1,11
 276 612 276 612 250 458 c 0,0,1
118 656 m 0,12,13
 140 784 140 784 176 901 c 128,-1,14
 212 1018 212 1018 268 1130 c 128,-1,15
 324 1242 324 1242 396 1324 c 128,-1,16
 468 1406 468 1406 564 1456 c 128,-1,17
 660 1506 660 1506 770 1506 c 0,18,19
 1024 1506 1024 1506 1106 1242 c 1,20,-1
 978 1198 l 1,21,22
 908 1378 908 1378 750 1378 c 0,23,24
 668 1378 668 1378 596 1334 c 128,-1,25
 524 1290 524 1290 475 1214 c 128,-1,26
 426 1138 426 1138 392 1064 c 128,-1,27
 358 990 358 990 332 902 c 0,28,29
 308 824 308 824 284 726 c 1,30,31
 338 828 338 828 436 891 c 128,-1,32
 534 954 534 954 648 954 c 0,33,34
 838 954 838 954 933 813 c 128,-1,35
 1028 672 1028 672 994 460 c 256,36,37
 958 248 958 248 817 106 c 128,-1,38
 676 -36 676 -36 472 -36 c 0,39,40
 260 -36 260 -36 160 120 c 0,41,42
 56 280 56 280 118 656 c 0,12,13
EndSplineSet
EndChar

StartChar: seven
Encoding: 55 55 26
Width: 1100
GlyphClass: 2
Flags: W
LayerCount: 2
Fore
SplineSet
212 1336 m 1,0,-1
 234 1470 l 1,1,-1
 1124 1470 l 1,2,-1
 1106 1362 l 1,3,4
 604 708 604 708 334 0 c 1,5,-1
 176 0 l 1,6,7
 320 388 320 388 503 697 c 128,-1,8
 686 1006 686 1006 924 1336 c 1,9,-1
 212 1336 l 1,0,-1
EndSplineSet
EndChar

StartChar: eight
Encoding: 56 56 27
Width: 1100
GlyphClass: 2
Flags: W
LayerCount: 2
Fore
SplineSet
378 1110 m 0,0,1
 358 992 358 992 423 919 c 128,-1,2
 488 846 488 846 598 846 c 0,3,4
 710 846 710 846 797 921 c 128,-1,5
 884 996 884 996 902 1110 c 0,6,7
 922 1226 922 1226 861 1302 c 128,-1,8
 800 1378 800 1378 686 1378 c 0,9,10
 568 1378 568 1378 482 1300 c 128,-1,11
 396 1222 396 1222 378 1110 c 0,0,1
56 392 m 0,12,13
 82 550 82 550 180 648 c 128,-1,14
 278 746 278 746 400 786 c 1,15,16
 184 884 184 884 224 1118 c 0,17,18
 252 1282 252 1282 387 1394 c 128,-1,19
 522 1506 522 1506 708 1506 c 0,20,21
 886 1506 886 1506 988 1396 c 128,-1,22
 1090 1286 1090 1286 1062 1118 c 0,23,24
 1040 990 1040 990 959 905 c 128,-1,25
 878 820 878 820 776 786 c 1,26,27
 890 748 890 748 953 648 c 128,-1,28
 1016 548 1016 548 990 390 c 0,29,30
 960 204 960 204 809 84 c 128,-1,31
 658 -36 658 -36 452 -36 c 0,32,33
 254 -36 254 -36 139 80 c 128,-1,34
 24 196 24 196 56 392 c 0,12,13
216 400 m 0,35,36
 194 266 194 266 267 180 c 128,-1,37
 340 94 340 94 474 94 c 0,38,39
 606 94 606 94 710 181 c 128,-1,40
 814 268 814 268 836 400 c 0,41,42
 858 534 858 534 782 626 c 128,-1,43
 706 718 706 718 576 718 c 256,44,45
 446 718 446 718 342 628 c 128,-1,46
 238 538 238 538 216 400 c 0,35,36
EndSplineSet
EndChar

StartChar: nine
Encoding: 57 57 28
Width: 1100
GlyphClass: 2
Flags: W
LayerCount: 2
Fore
SplineSet
314 1014 m 256,0,1
 288 852 288 852 358 752 c 128,-1,2
 428 652 428 652 546 652 c 0,3,4
 670 652 670 652 771 755 c 128,-1,5
 872 858 872 858 898 1012 c 256,6,7
 924 1166 924 1166 860 1272 c 128,-1,8
 796 1378 796 1378 666 1378 c 0,9,10
 542 1378 542 1378 441 1277 c 128,-1,11
 340 1176 340 1176 314 1014 c 256,0,1
42 236 m 1,12,-1
 176 280 l 1,13,14
 202 198 202 198 264 146 c 128,-1,15
 326 94 326 94 414 94 c 0,16,17
 508 94 508 94 585 145 c 128,-1,18
 662 196 662 196 715 288 c 128,-1,19
 768 380 768 380 803 488 c 128,-1,20
 838 596 838 596 862 728 c 1,21,22
 812 646 812 646 717 585 c 128,-1,23
 622 524 622 524 506 524 c 0,24,25
 332 524 332 524 227 656 c 128,-1,26
 122 788 122 788 158 1012 c 0,27,28
 194 1230 194 1230 346 1368 c 128,-1,29
 498 1506 498 1506 688 1506 c 0,30,31
 850 1506 850 1506 945 1399 c 128,-1,32
 1040 1292 1040 1292 1052 1122 c 0,33,34
 1058 1000 1058 1000 1024 808 c 0,35,36
 992 618 992 618 941 468 c 128,-1,37
 890 318 890 318 813 203 c 128,-1,38
 736 88 736 88 629 26 c 128,-1,39
 522 -36 522 -36 390 -36 c 0,40,41
 250 -36 250 -36 161 46 c 128,-1,42
 72 128 72 128 42 236 c 1,12,-1
EndSplineSet
EndChar

StartChar: colon
Encoding: 58 58 29
Width: 550
GlyphClass: 2
Flags: W
LayerCount: 2
Fore
SplineSet
56 0 m 1,0,-1
 96 234 l 1,1,-1
 338 234 l 1,2,-1
 300 0 l 1,3,-1
 56 0 l 1,0,-1
186 778 m 1,4,-1
 224 1012 l 1,5,-1
 466 1012 l 1,6,-1
 428 778 l 1,7,-1
 186 778 l 1,4,-1
EndSplineSet
EndChar

StartChar: semicolon
Encoding: 59 59 30
Width: 550
GlyphClass: 2
Flags: W
LayerCount: 2
Fore
SplineSet
-114 -342 m 1,0,-1
 140 232 l 1,1,-1
 352 232 l 1,2,-1
 8 -342 l 1,3,-1
 -114 -342 l 1,0,-1
194 776 m 1,4,-1
 232 1010 l 1,5,-1
 476 1010 l 1,6,-1
 436 776 l 1,7,-1
 194 776 l 1,4,-1
EndSplineSet
EndChar

StartChar: less
Encoding: 60 60 31
Width: 1078
GlyphClass: 2
Flags: W
LayerCount: 2
Fore
SplineSet
108 642 m 1,0,-1
 132 782 l 1,1,-1
 1046 1398 l 1,2,-1
 1106 1284 l 1,3,-1
 266 710 l 1,4,-1
 918 138 l 1,5,-1
 818 24 l 1,6,-1
 108 642 l 1,0,-1
EndSplineSet
EndChar

StartChar: equal
Encoding: 61 61 32
Width: 1080
GlyphClass: 2
Flags: W
LayerCount: 2
Fore
SplineSet
70 468 m 1,0,-1
 90 600 l 1,1,-1
 998 600 l 1,2,-1
 976 468 l 1,3,-1
 70 468 l 1,0,-1
134 856 m 1,4,-1
 156 990 l 1,5,-1
 1062 990 l 1,6,-1
 1040 856 l 1,7,-1
 134 856 l 1,4,-1
EndSplineSet
Substitution2: "'sups' Superscript lookup 5 subtable" uni207C
Substitution2: "'aalt' Access All Alternates lookup 0 subtable" uni207C
EndChar

StartChar: greater
Encoding: 62 62 33
Width: 1078
GlyphClass: 2
Flags: W
LayerCount: 2
Fore
SplineSet
80 24 m 1,0,-1
 22 138 l 1,1,-1
 860 710 l 1,2,-1
 212 1284 l 1,3,-1
 306 1398 l 1,4,-1
 1020 782 l 1,5,-1
 996 642 l 1,6,-1
 80 24 l 1,0,-1
EndSplineSet
EndChar

StartChar: question
Encoding: 63 63 34
Width: 1064
GlyphClass: 2
Flags: W
LayerCount: 2
Fore
SplineSet
218 1186 m 1,0,1
 290 1330 290 1330 416 1418 c 128,-1,2
 542 1506 542 1506 690 1506 c 0,3,4
 872 1506 872 1506 963 1398 c 128,-1,5
 1054 1290 1054 1290 1024 1108 c 0,6,7
 1010 1018 1010 1018 962 946 c 128,-1,8
 914 874 914 874 855 823 c 128,-1,9
 796 772 796 772 737 723 c 128,-1,10
 678 674 678 674 630 604 c 128,-1,11
 582 534 582 534 568 448 c 2,12,-1
 558 394 l 1,13,-1
 406 394 l 1,14,-1
 416 458 l 2,15,16
 432 554 432 554 480 631 c 128,-1,17
 528 708 528 708 587 761 c 128,-1,18
 646 814 646 814 704 862 c 128,-1,19
 762 910 762 910 808 974 c 128,-1,20
 854 1038 854 1038 866 1112 c 0,21,22
 886 1230 886 1230 834 1302 c 128,-1,23
 782 1374 782 1374 670 1374 c 0,24,25
 478 1374 478 1374 342 1138 c 1,26,-1
 218 1186 l 1,0,1
292 -20 m 1,27,-1
 330 206 l 1,28,-1
 572 206 l 1,29,-1
 534 -20 l 1,30,-1
 292 -20 l 1,27,-1
EndSplineSet
EndChar

StartChar: at
Encoding: 64 64 35
Width: 1834
GlyphClass: 2
Flags: W
LayerCount: 2
Fore
SplineSet
126 690 m 0,0,1
 186 1058 186 1058 462 1290 c 128,-1,2
 738 1522 738 1522 1118 1522 c 0,3,4
 1460 1522 1460 1522 1641 1319 c 128,-1,5
 1822 1116 1822 1116 1768 794 c 0,6,7
 1744 648 1744 648 1692 535 c 128,-1,8
 1640 422 1640 422 1574 359 c 128,-1,9
 1508 296 1508 296 1441 265 c 128,-1,10
 1374 234 1374 234 1306 234 c 0,11,12
 1220 234 1220 234 1166 296 c 128,-1,13
 1112 358 1112 358 1120 450 c 1,14,-1
 1118 450 l 1,15,16
 1074 368 1074 368 982 302 c 128,-1,17
 890 236 890 236 782 236 c 0,18,19
 642 236 642 236 568 342 c 128,-1,20
 494 448 494 448 522 624 c 0,21,22
 562 860 562 860 705 995 c 128,-1,23
 848 1130 848 1130 1014 1130 c 0,24,25
 1102 1130 1102 1130 1152 1090 c 128,-1,26
 1202 1050 1202 1050 1220 1002 c 1,27,-1
 1246 1112 l 1,28,-1
 1364 1112 l 1,29,-1
 1244 550 l 2,30,31
 1242 540 1242 540 1240 530 c 0,32,33
 1226 448 1226 448 1251 400 c 128,-1,34
 1276 352 1276 352 1336 352 c 0,35,36
 1436 352 1436 352 1518 466 c 128,-1,37
 1600 580 1600 580 1634 786 c 0,38,39
 1680 1064 1680 1064 1536 1237 c 128,-1,40
 1392 1410 1392 1410 1098 1410 c 0,41,42
 784 1410 784 1410 549 1210 c 128,-1,43
 314 1010 314 1010 262 690 c 0,44,45
 208 360 208 360 368 167 c 128,-1,46
 528 -26 528 -26 836 -26 c 0,47,48
 1064 -26 1064 -26 1276 36 c 1,49,-1
 1282 -70 l 1,50,51
 1064 -140 1064 -140 818 -140 c 0,52,53
 442 -140 442 -140 254 92 c 128,-1,54
 66 324 66 324 126 690 c 0,0,1
664 626 m 0,55,56
 644 508 644 508 687 434 c 128,-1,57
 730 360 730 360 818 360 c 0,58,59
 862 360 862 360 908 380 c 128,-1,60
 954 400 954 400 1006 445 c 128,-1,61
 1058 490 1058 490 1100 582 c 128,-1,62
 1142 674 1142 674 1162 796 c 0,63,64
 1176 886 1176 886 1138 950 c 128,-1,65
 1100 1014 1100 1014 1000 1014 c 0,66,67
 896 1014 896 1014 795 909 c 128,-1,68
 694 804 694 804 664 626 c 0,55,56
EndSplineSet
EndChar

StartChar: A
Encoding: 65 65 36
Width: 1250
GlyphClass: 2
Flags: W
LayerCount: 2
Fore
SplineSet
352 550 m 1,0,-1
 894 550 l 1,1,-1
 806 1044 l 2,2,3
 798 1090 798 1090 781 1189 c 128,-1,4
 764 1288 764 1288 758 1326 c 1,5,-1
 746 1326 l 1,6,7
 626 1086 626 1086 604 1044 c 2,8,-1
 352 550 l 1,0,-1
-102 0 m 1,9,-1
 682 1470 l 1,10,-1
 870 1470 l 1,11,-1
 1164 0 l 1,12,-1
 994 0 l 1,13,-1
 920 424 l 1,14,-1
 284 424 l 1,15,-1
 68 0 l 1,16,-1
 -102 0 l 1,9,-1
EndSplineSet
Substitution2: "Single Substitution lookup 12 subtable" ordfeminine
EndChar

StartChar: B
Encoding: 66 66 37
Width: 1286
GlyphClass: 2
Flags: W
LayerCount: 2
Fore
SplineSet
92 0 m 1,0,-1
 334 1470 l 1,1,-1
 866 1470 l 2,2,3
 1076 1470 1076 1470 1168 1368 c 128,-1,4
 1260 1266 1260 1266 1232 1094 c 0,5,6
 1212 976 1212 976 1139 894 c 128,-1,7
 1066 812 1066 812 970 772 c 1,8,9
 1074 738 1074 738 1134 642 c 128,-1,10
 1194 546 1194 546 1170 410 c 0,11,12
 1142 242 1142 242 1014 121 c 128,-1,13
 886 0 886 0 692 0 c 2,14,-1
 92 0 l 1,0,-1
268 134 m 1,15,-1
 676 134 l 2,16,17
 800 134 800 134 896 207 c 128,-1,18
 992 280 992 280 1014 408 c 0,19,20
 1034 530 1034 530 965 610 c 128,-1,21
 896 690 896 690 760 690 c 2,22,-1
 360 690 l 1,23,-1
 268 134 l 1,15,-1
382 822 m 1,24,-1
 732 822 l 2,25,26
 862 822 862 822 955 887 c 128,-1,27
 1048 952 1048 952 1070 1082 c 0,28,29
 1088 1196 1088 1196 1033 1266 c 128,-1,30
 978 1336 978 1336 824 1336 c 2,31,-1
 468 1336 l 1,32,-1
 382 822 l 1,24,-1
EndSplineSet
EndChar

StartChar: C
Encoding: 67 67 38
Width: 1262
GlyphClass: 2
Flags: W
LayerCount: 2
Fore
SplineSet
120 734 m 256,0,1
 180 1094 180 1094 386 1300 c 128,-1,2
 592 1506 592 1506 864 1506 c 0,3,4
 1032 1506 1032 1506 1135 1410 c 128,-1,5
 1238 1314 1238 1314 1276 1184 c 1,6,-1
 1138 1136 l 1,7,8
 1048 1372 1048 1372 838 1372 c 0,9,10
 630 1372 630 1372 478 1198 c 128,-1,11
 326 1024 326 1024 278 734 c 0,12,13
 230 440 230 440 327 270 c 128,-1,14
 424 100 424 100 626 100 c 0,15,16
 756 100 756 100 864 174 c 128,-1,17
 972 248 972 248 1038 356 c 1,18,-1
 1170 310 l 1,19,20
 1082 166 1082 166 939 65 c 128,-1,21
 796 -36 796 -36 608 -36 c 0,22,23
 338 -36 338 -36 199 169 c 128,-1,24
 60 374 60 374 120 734 c 256,0,1
EndSplineSet
EndChar

StartChar: D
Encoding: 68 68 39
Width: 1326
GlyphClass: 2
Flags: W
LayerCount: 2
Fore
SplineSet
92 0 m 1,0,-1
 334 1470 l 1,1,-1
 724 1470 l 2,2,3
 1036 1470 1036 1470 1184 1283 c 128,-1,4
 1332 1096 1332 1096 1272 734 c 0,5,6
 1216 390 1216 390 1010 195 c 128,-1,7
 804 0 804 0 476 0 c 2,8,-1
 92 0 l 1,0,-1
268 134 m 1,9,-1
 476 134 l 2,10,11
 724 134 724 134 893 278 c 128,-1,12
 1062 422 1062 422 1112 734 c 0,13,14
 1164 1050 1164 1050 1044 1193 c 128,-1,15
 924 1336 924 1336 680 1336 c 2,16,-1
 468 1336 l 1,17,-1
 268 134 l 1,9,-1
EndSplineSet
EndChar

StartChar: E
Encoding: 69 69 40
Width: 1170
GlyphClass: 2
Flags: W
LayerCount: 2
Fore
SplineSet
92 0 m 1,0,-1
 334 1470 l 1,1,-1
 1234 1470 l 1,2,-1
 1212 1336 l 1,3,-1
 468 1336 l 1,4,-1
 384 826 l 1,5,-1
 1056 826 l 1,6,-1
 1034 694 l 1,7,-1
 362 694 l 1,8,-1
 268 134 l 1,9,-1
 1030 134 l 1,10,-1
 1006 0 l 1,11,-1
 92 0 l 1,0,-1
EndSplineSet
EndChar

StartChar: F
Encoding: 70 70 41
Width: 1082
GlyphClass: 2
Flags: W
LayerCount: 2
Fore
SplineSet
92 0 m 1,0,-1
 334 1470 l 1,1,-1
 1210 1470 l 1,2,-1
 1186 1336 l 1,3,-1
 468 1336 l 1,4,-1
 380 806 l 1,5,-1
 1024 806 l 1,6,-1
 1004 676 l 1,7,-1
 358 676 l 1,8,-1
 246 0 l 1,9,-1
 92 0 l 1,0,-1
EndSplineSet
EndChar

StartChar: G
Encoding: 71 71 42
Width: 1378
GlyphClass: 2
Flags: W
LayerCount: 2
Fore
SplineSet
120 734 m 0,0,1
 176 1076 176 1076 381 1291 c 128,-1,2
 586 1506 586 1506 876 1506 c 0,3,4
 974 1506 974 1506 1053 1475 c 128,-1,5
 1132 1444 1132 1444 1180 1393 c 128,-1,6
 1228 1342 1228 1342 1258 1294 c 128,-1,7
 1288 1246 1288 1246 1304 1194 c 1,8,-1
 1166 1146 l 1,9,10
 1066 1372 1066 1372 854 1372 c 0,11,12
 632 1372 632 1372 478 1196 c 128,-1,13
 324 1020 324 1020 278 734 c 0,14,15
 228 436 228 436 327 268 c 128,-1,16
 426 100 426 100 634 100 c 0,17,18
 822 100 822 100 945 226 c 128,-1,19
 1068 352 1068 352 1096 522 c 2,20,-1
 1120 660 l 1,21,-1
 712 660 l 1,22,-1
 734 792 l 1,23,-1
 1292 792 l 1,24,-1
 1162 0 l 1,25,-1
 1050 0 l 1,26,-1
 1074 216 l 1,27,28
 918 -36 918 -36 608 -36 c 0,29,30
 334 -36 334 -36 197 170 c 128,-1,31
 60 376 60 376 120 734 c 0,0,1
EndSplineSet
EndChar

StartChar: H
Encoding: 72 72 43
Width: 1386
GlyphClass: 2
Flags: W
LayerCount: 2
Fore
SplineSet
92 0 m 1,0,-1
 334 1470 l 1,1,-1
 490 1470 l 1,2,-1
 382 822 l 1,3,-1
 1090 822 l 1,4,-1
 1198 1470 l 1,5,-1
 1350 1470 l 1,6,-1
 1106 0 l 1,7,-1
 954 0 l 1,8,-1
 1068 690 l 1,9,-1
 360 690 l 1,10,-1
 246 0 l 1,11,-1
 92 0 l 1,0,-1
EndSplineSet
EndChar

StartChar: I
Encoding: 73 73 44
Width: 524
GlyphClass: 2
Flags: W
LayerCount: 2
Fore
SplineSet
92 0 m 1,0,-1
 334 1470 l 1,1,-1
 490 1470 l 1,2,-1
 246 0 l 1,3,-1
 92 0 l 1,0,-1
EndSplineSet
EndChar

StartChar: J
Encoding: 74 74 45
Width: 958
GlyphClass: 2
Flags: W
LayerCount: 2
Fore
SplineSet
-34 236 m 1,0,-1
 112 288 l 1,1,2
 124 200 124 200 177 150 c 128,-1,3
 230 100 230 100 312 100 c 0,4,5
 540 100 540 100 594 428 c 2,6,-1
 768 1470 l 1,7,-1
 920 1470 l 1,8,-1
 744 402 l 2,9,10
 708 186 708 186 592 75 c 128,-1,11
 476 -36 476 -36 294 -36 c 0,12,13
 8 -36 8 -36 -34 236 c 1,0,-1
EndSplineSet
EndChar

StartChar: K
Encoding: 75 75 46
Width: 1234
GlyphClass: 2
Flags: W
LayerCount: 2
Fore
SplineSet
92 0 m 1,0,-1
 334 1470 l 1,1,-1
 490 1470 l 1,2,-1
 362 692 l 1,3,-1
 364 692 l 1,4,-1
 1146 1470 l 1,5,-1
 1350 1470 l 1,6,-1
 698 834 l 1,7,-1
 1138 0 l 1,8,-1
 946 0 l 1,9,-1
 580 720 l 1,10,-1
 324 470 l 1,11,-1
 246 0 l 1,12,-1
 92 0 l 1,0,-1
EndSplineSet
EndChar

StartChar: L
Encoding: 76 76 47
Width: 1038
GlyphClass: 2
Flags: W
LayerCount: 2
Fore
SplineSet
92 0 m 1,0,-1
 334 1470 l 1,1,-1
 490 1470 l 1,2,-1
 268 134 l 1,3,-1
 952 134 l 1,4,-1
 930 0 l 1,5,-1
 92 0 l 1,0,-1
EndSplineSet
EndChar

StartChar: M
Encoding: 77 77 48
Width: 1688
GlyphClass: 2
Flags: W
LayerCount: 2
Fore
SplineSet
92 0 m 1,0,-1
 334 1470 l 1,1,-1
 534 1470 l 1,2,-1
 720 680 l 2,3,4
 738 596 738 596 767 454 c 128,-1,5
 796 312 796 312 796 306 c 2,6,-1
 804 306 l 1,7,8
 820 336 820 336 1006 680 c 1,9,-1
 1450 1470 l 1,10,-1
 1654 1470 l 1,11,-1
 1410 0 l 1,12,-1
 1258 0 l 1,13,-1
 1396 830 l 2,14,15
 1422 990 1422 990 1488 1276 c 1,16,-1
 1480 1276 l 1,17,-1
 838 110 l 1,18,-1
 702 110 l 1,19,-1
 442 1276 l 1,20,-1
 434 1276 l 1,21,22
 406 960 406 960 384 830 c 2,23,-1
 246 0 l 1,24,-1
 92 0 l 1,0,-1
EndSplineSet
EndChar

StartChar: N
Encoding: 78 78 49
Width: 1394
GlyphClass: 2
Flags: W
LayerCount: 2
Fore
SplineSet
92 0 m 1,0,-1
 334 1470 l 1,1,-1
 512 1470 l 1,2,-1
 888 532 l 1,3,-1
 1008 222 l 1,4,-1
 1020 222 l 1,5,6
 1028 404 1028 404 1068 638 c 2,7,-1
 1206 1470 l 1,8,-1
 1358 1470 l 1,9,-1
 1114 0 l 1,10,-1
 938 0 l 1,11,-1
 440 1246 l 1,12,-1
 434 1246 l 1,13,14
 422 1050 422 1050 384 832 c 2,15,-1
 246 0 l 1,16,-1
 92 0 l 1,0,-1
EndSplineSet
EndChar

StartChar: O
Encoding: 79 79 50
Width: 1380
GlyphClass: 2
Flags: W
LayerCount: 2
Fore
SplineSet
120 734 m 0,0,1
 178 1080 178 1080 377 1293 c 128,-1,2
 576 1506 576 1506 848 1506 c 0,3,4
 1124 1506 1124 1506 1249 1294 c 128,-1,5
 1374 1082 1374 1082 1316 732 c 0,6,7
 1258 378 1258 378 1062 171 c 128,-1,8
 866 -36 866 -36 592 -36 c 256,9,10
 320 -36 320 -36 191 173 c 128,-1,11
 62 382 62 382 120 734 c 0,0,1
278 734 m 0,12,13
 230 444 230 444 321 272 c 128,-1,14
 412 100 412 100 616 100 c 0,15,16
 816 100 816 100 963 269 c 128,-1,17
 1110 438 1110 438 1158 732 c 0,18,19
 1206 1022 1206 1022 1120 1197 c 128,-1,20
 1034 1372 1034 1372 826 1372 c 0,21,22
 622 1372 622 1372 474 1199 c 128,-1,23
 326 1026 326 1026 278 734 c 0,12,13
EndSplineSet
Substitution2: "Single Substitution lookup 12 subtable" ordmasculine
EndChar

StartChar: P
Encoding: 80 80 51
Width: 1254
GlyphClass: 2
Flags: W
LayerCount: 2
Fore
SplineSet
92 0 m 1,0,-1
 334 1470 l 1,1,-1
 878 1470 l 2,2,3
 1088 1470 1088 1470 1190 1352 c 128,-1,4
 1292 1234 1292 1234 1260 1040 c 0,5,6
 1226 840 1226 840 1083 724 c 128,-1,7
 940 608 940 608 736 608 c 2,8,-1
 348 608 l 1,9,-1
 246 0 l 1,10,-1
 92 0 l 1,0,-1
368 740 m 1,11,-1
 734 740 l 2,12,13
 886 740 886 740 982 816 c 128,-1,14
 1078 892 1078 892 1102 1040 c 0,15,16
 1126 1186 1126 1186 1056 1261 c 128,-1,17
 986 1336 986 1336 828 1336 c 2,18,-1
 468 1336 l 1,19,-1
 368 740 l 1,11,-1
EndSplineSet
EndChar

StartChar: Q
Encoding: 81 81 52
Width: 1380
GlyphClass: 2
Flags: W
LayerCount: 2
Fore
SplineSet
120 732 m 0,0,1
 178 1084 178 1084 378 1295 c 128,-1,2
 578 1506 578 1506 848 1506 c 0,3,4
 1122 1506 1122 1506 1248 1294 c 128,-1,5
 1374 1082 1374 1082 1316 732 c 0,6,7
 1258 386 1258 386 1064 176 c 0,8,9
 1060 170 1060 170 1054 164 c 2,10,-1
 1192 -10 l 1,11,-1
 1078 -100 l 1,12,-1
 944 70 l 1,13,14
 790 -36 790 -36 592 -36 c 0,15,16
 318 -36 318 -36 190 175 c 128,-1,17
 62 386 62 386 120 732 c 0,0,1
642 448 m 1,18,-1
 758 540 l 1,19,-1
 968 274 l 1,20,21
 1112 444 1112 444 1158 732 c 0,22,23
 1208 1034 1208 1034 1117 1203 c 128,-1,24
 1026 1372 1026 1372 826 1372 c 0,25,26
 624 1372 624 1372 475 1200 c 128,-1,27
 326 1028 326 1028 276 732 c 0,28,29
 228 442 228 442 321 271 c 128,-1,30
 414 100 414 100 616 100 c 0,31,32
 750 100 750 100 858 174 c 1,33,-1
 642 448 l 1,18,-1
EndSplineSet
EndChar

StartChar: R
Encoding: 82 82 53
Width: 1282
GlyphClass: 2
Flags: W
LayerCount: 2
Fore
SplineSet
374 770 m 1,0,-1
 762 770 l 2,1,2
 906 770 906 770 997 848 c 128,-1,3
 1088 926 1088 926 1110 1056 c 0,4,5
 1130 1182 1130 1182 1060 1259 c 128,-1,6
 990 1336 990 1336 840 1336 c 2,7,-1
 468 1336 l 1,8,-1
 374 770 l 1,0,-1
92 0 m 1,9,-1
 334 1470 l 1,10,-1
 898 1470 l 2,11,12
 1110 1470 1110 1470 1203 1353 c 128,-1,13
 1296 1236 1296 1236 1268 1066 c 0,14,15
 1242 910 1242 910 1150 814 c 128,-1,16
 1058 718 1058 718 960 692 c 1,17,18
 1034 650 1034 650 1060 587 c 128,-1,19
 1086 524 1086 524 1090 412 c 0,20,21
 1098 302 1098 302 1102 262 c 128,-1,22
 1106 222 1106 222 1121 147 c 128,-1,23
 1136 72 1136 72 1166 0 c 1,24,-1
 992 0 l 1,25,26
 970 62 970 62 956 134 c 128,-1,27
 942 206 942 206 937 252 c 128,-1,28
 932 298 932 298 928 400 c 0,29,30
 920 510 920 510 880 573 c 128,-1,31
 840 636 840 636 728 636 c 2,32,-1
 352 636 l 1,33,-1
 246 0 l 1,34,-1
 92 0 l 1,9,-1
EndSplineSet
EndChar

StartChar: S
Encoding: 83 83 54
Width: 1182
GlyphClass: 2
Flags: W
LayerCount: 2
Fore
SplineSet
22 276 m 1,0,-1
 174 328 l 1,1,2
 266 100 266 100 536 100 c 0,3,4
 686 100 686 100 793 175 c 128,-1,5
 900 250 900 250 922 378 c 0,6,7
 932 444 932 444 913 494 c 128,-1,8
 894 544 894 544 841 581 c 128,-1,9
 788 618 788 618 742 640 c 128,-1,10
 696 662 696 662 614 690 c 0,11,12
 550 714 550 714 522 724 c 128,-1,13
 494 734 494 734 437 760 c 128,-1,14
 380 786 380 786 353 805 c 128,-1,15
 326 824 326 824 287 858 c 128,-1,16
 248 892 248 892 233 928 c 128,-1,17
 218 964 218 964 211 1014 c 128,-1,18
 204 1064 204 1064 214 1120 c 0,19,20
 244 1296 244 1296 391 1401 c 128,-1,21
 538 1506 538 1506 758 1506 c 0,22,23
 924 1506 924 1506 1035 1427 c 128,-1,24
 1146 1348 1146 1348 1182 1230 c 1,25,-1
 1044 1184 l 1,26,27
 962 1372 962 1372 732 1372 c 0,28,29
 584 1372 584 1372 487 1303 c 128,-1,30
 390 1234 390 1234 370 1120 c 0,31,32
 362 1070 362 1070 378 1026 c 128,-1,33
 394 982 394 982 417 955 c 128,-1,34
 440 928 440 928 498 898 c 128,-1,35
 556 868 556 868 589 855 c 128,-1,36
 622 842 622 842 700 814 c 0,37,38
 716 808 716 808 726 804 c 0,39,40
 816 774 816 774 874 744 c 128,-1,41
 932 714 932 714 992 665 c 128,-1,42
 1052 616 1052 616 1073 546 c 128,-1,43
 1094 476 1094 476 1080 384 c 0,44,45
 1048 186 1048 186 894 75 c 128,-1,46
 740 -36 740 -36 510 -36 c 0,47,48
 314 -36 314 -36 192 49 c 128,-1,49
 70 134 70 134 22 276 c 1,0,-1
EndSplineSet
EndChar

StartChar: T
Encoding: 84 84 55
Width: 1070
GlyphClass: 2
Flags: W
LayerCount: 2
Fore
SplineSet
150 1336 m 1,0,-1
 172 1470 l 1,1,-1
 1202 1470 l 1,2,-1
 1180 1336 l 1,3,-1
 740 1336 l 1,4,-1
 520 0 l 1,5,-1
 366 0 l 1,6,-1
 588 1336 l 1,7,-1
 150 1336 l 1,0,-1
EndSplineSet
EndChar

StartChar: U
Encoding: 85 85 56
Width: 1380
GlyphClass: 2
Flags: W
LayerCount: 2
Fore
SplineSet
176 532 m 2,0,-1
 332 1470 l 1,1,-1
 486 1470 l 1,2,-1
 332 536 l 2,3,4
 296 316 296 316 377 208 c 128,-1,5
 458 100 458 100 612 100 c 0,6,7
 772 100 772 100 890 211 c 128,-1,8
 1008 322 1008 322 1044 536 c 2,9,-1
 1198 1470 l 1,10,-1
 1350 1470 l 1,11,-1
 1196 532 l 2,12,13
 1152 264 1152 264 994 114 c 128,-1,14
 836 -36 836 -36 590 -36 c 0,15,16
 348 -36 348 -36 239 112 c 128,-1,17
 130 260 130 260 176 532 c 2,0,-1
EndSplineSet
EndChar

StartChar: V
Encoding: 86 86 57
Width: 1148
GlyphClass: 2
Flags: W
LayerCount: 2
Fore
SplineSet
146 1470 m 1,0,-1
 314 1470 l 1,1,-1
 460 460 l 2,2,3
 468 408 468 408 481 311 c 128,-1,4
 494 214 494 214 500 156 c 1,5,-1
 508 156 l 1,6,7
 536 216 536 216 581 311 c 128,-1,8
 626 406 626 406 650 460 c 2,9,-1
 1134 1470 l 1,10,-1
 1304 1470 l 1,11,-1
 574 0 l 1,12,-1
 386 0 l 1,13,-1
 146 1470 l 1,0,-1
EndSplineSet
EndChar

StartChar: W
Encoding: 87 87 58
Width: 1664
GlyphClass: 2
Flags: W
LayerCount: 2
Fore
SplineSet
170 1470 m 1,0,-1
 338 1470 l 1,1,-1
 378 476 l 2,2,3
 380 266 380 266 378 176 c 1,4,-1
 390 176 l 1,5,6
 476 412 476 412 500 476 c 2,7,-1
 898 1470 l 1,8,-1
 1064 1470 l 1,9,-1
 1136 476 l 2,10,11
 1144 354 1144 354 1146 176 c 1,12,-1
 1154 176 l 1,13,14
 1160 196 1160 196 1258 476 c 2,15,-1
 1628 1470 l 1,16,-1
 1796 1470 l 1,17,-1
 1214 0 l 1,18,-1
 1034 0 l 1,19,-1
 962 982 l 1,20,21
 954 1238 954 1238 954 1270 c 1,22,-1
 946 1270 l 1,23,24
 928 1216 928 1216 887 1112 c 128,-1,25
 846 1008 846 1008 838 982 c 2,26,-1
 446 0 l 1,27,-1
 266 0 l 1,28,-1
 170 1470 l 1,0,-1
EndSplineSet
EndChar

StartChar: X
Encoding: 88 88 59
Width: 1132
GlyphClass: 2
Flags: W
LayerCount: 2
Fore
SplineSet
-98 0 m 1,0,-1
 500 756 l 1,1,-1
 170 1470 l 1,2,-1
 362 1470 l 1,3,-1
 514 1114 l 2,4,5
 534 1070 534 1070 570 981 c 128,-1,6
 606 892 606 892 614 876 c 1,7,-1
 620 876 l 1,8,9
 652 920 652 920 715 1002 c 128,-1,10
 778 1084 778 1084 802 1114 c 2,11,-1
 1072 1470 l 1,12,-1
 1264 1470 l 1,13,-1
 694 756 l 1,14,-1
 1046 0 l 1,15,-1
 856 0 l 1,16,-1
 690 368 l 2,17,18
 670 414 670 414 630 509 c 128,-1,19
 590 604 590 604 578 630 c 1,20,-1
 574 630 l 1,21,22
 470 490 470 490 376 368 c 2,23,-1
 90 0 l 1,24,-1
 -98 0 l 1,0,-1
EndSplineSet
EndChar

StartChar: Y
Encoding: 89 89 60
Width: 1160
GlyphClass: 2
Flags: W
LayerCount: 2
Fore
SplineSet
142 1470 m 1,0,-1
 326 1470 l 1,1,-1
 500 1020 l 2,2,3
 560 864 560 864 606 744 c 1,4,-1
 610 744 l 1,5,6
 648 796 648 796 725 902 c 128,-1,7
 802 1008 802 1008 810 1020 c 2,8,-1
 1130 1470 l 1,9,-1
 1316 1470 l 1,10,-1
 666 604 l 1,11,-1
 566 0 l 1,12,-1
 410 0 l 1,13,-1
 510 604 l 1,14,-1
 142 1470 l 1,0,-1
EndSplineSet
EndChar

StartChar: Z
Encoding: 90 90 61
Width: 1178
GlyphClass: 2
Flags: W
LayerCount: 2
Fore
SplineSet
8 116 m 1,0,-1
 1020 1336 l 1,1,-1
 272 1336 l 1,2,-1
 294 1470 l 1,3,-1
 1230 1470 l 1,4,-1
 1212 1352 l 1,5,-1
 194 134 l 1,6,-1
 1030 134 l 1,7,-1
 1008 0 l 1,8,-1
 -12 0 l 1,9,-1
 8 116 l 1,0,-1
EndSplineSet
EndChar

StartChar: bracketleft
Encoding: 91 91 62
Width: 840
GlyphClass: 2
Flags: W
LayerCount: 2
Fore
SplineSet
132 -256 m 1,0,-1
 450 1664 l 1,1,-1
 852 1664 l 1,2,-1
 832 1538 l 1,3,-1
 580 1538 l 1,4,-1
 302 -132 l 1,5,-1
 556 -132 l 1,6,-1
 534 -256 l 1,7,-1
 132 -256 l 1,0,-1
EndSplineSet
EndChar

StartChar: backslash
Encoding: 92 92 63
Width: 630
GlyphClass: 2
Flags: W
LayerCount: 2
Fore
SplineSet
140 1562 m 1,0,-1
 296 1562 l 1,1,-1
 546 -112 l 1,2,-1
 392 -112 l 1,3,-1
 140 1562 l 1,0,-1
EndSplineSet
EndChar

StartChar: bracketright
Encoding: 93 93 64
Width: 840
GlyphClass: 2
Flags: W
LayerCount: 2
Fore
SplineSet
52 -132 m 1,0,-1
 306 -132 l 1,1,-1
 582 1538 l 1,2,-1
 328 1538 l 1,3,-1
 348 1664 l 1,4,-1
 752 1664 l 1,5,-1
 434 -256 l 1,6,-1
 32 -256 l 1,7,-1
 52 -132 l 1,0,-1
EndSplineSet
EndChar

StartChar: asciicircum
Encoding: 94 94 65
Width: 970
GlyphClass: 2
Flags: W
LayerCount: 2
Fore
SplineSet
94 954 m 1,0,-1
 586 1616 l 1,1,-1
 732 1616 l 1,2,-1
 1006 954 l 1,3,-1
 850 954 l 1,4,-1
 640 1494 l 1,5,-1
 248 954 l 1,6,-1
 94 954 l 1,0,-1
EndSplineSet
EndChar

StartChar: underscore
Encoding: 95 95 66
Width: 880
GlyphClass: 2
Flags: W
LayerCount: 2
Fore
SplineSet
-88 -34 m 1,0,-1
 774 -34 l 1,1,-1
 754 -158 l 1,2,-1
 -110 -158 l 1,3,-1
 -88 -34 l 1,0,-1
EndSplineSet
EndChar

StartChar: grave
Encoding: 96 96 67
Width: 574
GlyphClass: 2
Flags: W
LayerCount: 2
Fore
SplineSet
398 1074 m 1,0,-1
 242 1648 l 1,1,-1
 456 1648 l 1,2,-1
 520 1074 l 1,3,-1
 398 1074 l 1,0,-1
EndSplineSet
EndChar

StartChar: a
Encoding: 97 97 68
Width: 1036
GlyphClass: 2
Flags: W
LayerCount: 2
Fore
SplineSet
170 270 m 0,0,1
 158 196 158 196 209 144 c 128,-1,2
 260 92 260 92 364 92 c 0,3,4
 496 92 496 92 605 182 c 128,-1,5
 714 272 714 272 736 412 c 2,6,-1
 762 560 l 1,7,8
 676 538 676 538 492 508 c 0,9,10
 342 480 342 480 264 424 c 128,-1,11
 186 368 186 368 170 270 c 0,0,1
24 260 m 0,12,13
 72 554 72 554 516 624 c 0,14,15
 714 658 714 658 782 680 c 1,16,-1
 792 740 l 2,17,18
 808 838 808 838 752 903 c 128,-1,19
 696 968 696 968 572 968 c 0,20,21
 482 968 482 968 392 924 c 128,-1,22
 302 880 302 880 232 804 c 1,23,-1
 154 888 l 1,24,25
 242 978 242 978 357 1035 c 128,-1,26
 472 1092 472 1092 590 1092 c 0,27,28
 992 1092 992 1092 922 678 c 2,29,-1
 810 0 l 1,30,-1
 672 0 l 1,31,-1
 702 172 l 1,32,33
 660 88 660 88 555 26 c 128,-1,34
 450 -36 450 -36 326 -36 c 0,35,36
 160 -36 160 -36 81 47 c 128,-1,37
 2 130 2 130 24 260 c 0,12,13
EndSplineSet
Substitution2: "Single Substitution lookup 12 subtable" ordfeminine
EndChar

StartChar: b
Encoding: 98 98 69
Width: 1098
GlyphClass: 2
Flags: W
LayerCount: 2
Fore
SplineSet
58 0 m 1,0,-1
 312 1524 l 1,1,-1
 452 1524 l 1,2,-1
 344 868 l 1,3,4
 384 950 384 950 479 1021 c 128,-1,5
 574 1092 574 1092 686 1092 c 0,6,7
 872 1092 872 1092 964 941 c 128,-1,8
 1056 790 1056 790 1014 530 c 0,9,10
 990 384 990 384 932 271 c 128,-1,11
 874 158 874 158 802 94 c 128,-1,12
 730 30 730 30 653 -3 c 128,-1,13
 576 -36 576 -36 500 -36 c 0,14,15
 394 -36 394 -36 323 30 c 128,-1,16
 252 96 252 96 232 188 c 1,17,-1
 200 0 l 1,18,-1
 58 0 l 1,0,-1
284 530 m 0,19,20
 250 330 250 330 315 211 c 128,-1,21
 380 92 380 92 502 92 c 0,22,23
 632 92 632 92 734 209 c 128,-1,24
 836 326 836 326 870 530 c 0,25,26
 902 728 902 728 840 846 c 128,-1,27
 778 964 778 964 646 964 c 0,28,29
 524 964 524 964 420 846 c 128,-1,30
 316 728 316 728 284 530 c 0,19,20
EndSplineSet
EndChar

StartChar: c
Encoding: 99 99 70
Width: 950
GlyphClass: 2
Flags: W
LayerCount: 2
Fore
SplineSet
72 528 m 0,0,1
 114 780 114 780 261 936 c 128,-1,2
 408 1092 408 1092 612 1092 c 0,3,4
 744 1092 744 1092 827 1010 c 128,-1,5
 910 928 910 928 924 816 c 1,6,-1
 794 780 l 1,7,8
 780 858 780 858 726 911 c 128,-1,9
 672 964 672 964 590 964 c 0,10,11
 452 964 452 964 350 840 c 128,-1,12
 248 716 248 716 216 528 c 0,13,14
 182 328 182 328 249 210 c 128,-1,15
 316 92 316 92 446 92 c 0,16,17
 534 92 534 92 615 152 c 128,-1,18
 696 212 696 212 740 290 c 1,19,-1
 856 250 l 1,20,21
 796 132 796 132 679 48 c 128,-1,22
 562 -36 562 -36 426 -36 c 0,23,24
 226 -36 226 -36 128 117 c 128,-1,25
 30 270 30 270 72 528 c 0,0,1
EndSplineSet
EndChar

StartChar: d
Encoding: 100 100 71
Width: 1098
GlyphClass: 2
Flags: W
LayerCount: 2
Fore
SplineSet
72 530 m 0,0,1
 116 790 116 790 260 941 c 128,-1,2
 404 1092 404 1092 586 1092 c 0,3,4
 696 1092 696 1092 765 1025 c 128,-1,5
 834 958 834 958 854 872 c 1,6,-1
 962 1524 l 1,7,-1
 1102 1524 l 1,8,-1
 850 0 l 1,9,-1
 714 0 l 1,10,-1
 746 190 l 1,11,12
 690 92 690 92 599 28 c 128,-1,13
 508 -36 508 -36 400 -36 c 0,14,15
 324 -36 324 -36 257 -3 c 128,-1,16
 190 30 190 30 138 94 c 128,-1,17
 86 158 86 158 67 270 c 128,-1,18
 48 382 48 382 72 530 c 0,0,1
216 530 m 0,19,20
 184 332 184 332 246 212 c 128,-1,21
 308 92 308 92 438 92 c 0,22,23
 560 92 560 92 664 211 c 128,-1,24
 768 330 768 330 802 530 c 0,25,26
 834 728 834 728 769 846 c 128,-1,27
 704 964 704 964 584 964 c 0,28,29
 452 964 452 964 350 845 c 128,-1,30
 248 726 248 726 216 530 c 0,19,20
EndSplineSet
EndChar

StartChar: e
Encoding: 101 101 72
Width: 1044
GlyphClass: 2
Flags: W
LayerCount: 2
Fore
SplineSet
72 536 m 0,0,1
 114 784 114 784 266 938 c 128,-1,2
 418 1092 418 1092 620 1092 c 0,3,4
 824 1092 824 1092 915 941 c 128,-1,5
 1006 790 1006 790 968 558 c 0,6,7
 964 530 964 530 952 478 c 1,8,-1
 208 478 l 1,9,10
 182 320 182 320 247 206 c 128,-1,11
 312 92 312 92 462 92 c 0,12,13
 558 92 558 92 640 140 c 128,-1,14
 722 188 722 188 778 268 c 1,15,-1
 892 230 l 1,16,17
 828 114 828 114 711 39 c 128,-1,18
 594 -36 594 -36 440 -36 c 0,19,20
 232 -36 232 -36 131 121 c 128,-1,21
 30 278 30 278 72 536 c 0,0,1
232 594 m 1,22,-1
 832 594 l 1,23,24
 858 750 858 750 795 857 c 128,-1,25
 732 964 732 964 598 964 c 0,26,27
 462 964 462 964 361 854 c 128,-1,28
 260 744 260 744 232 594 c 1,22,-1
EndSplineSet
EndChar

StartChar: f
Encoding: 102 102 73
Width: 634
GlyphClass: 2
Flags: W
LayerCount: 2
Fore
SplineSet
104 928 m 1,0,-1
 124 1056 l 1,1,-1
 296 1056 l 1,2,-1
 322 1218 l 2,3,4
 348 1374 348 1374 434 1449 c 128,-1,5
 520 1524 520 1524 652 1524 c 2,6,-1
 782 1524 l 1,7,-1
 762 1400 l 1,8,-1
 650 1400 l 2,9,10
 496 1400 496 1400 462 1204 c 2,11,-1
 438 1056 l 1,12,-1
 678 1056 l 1,13,-1
 656 928 l 1,14,-1
 418 928 l 1,15,-1
 264 0 l 1,16,-1
 120 0 l 1,17,-1
 274 928 l 1,18,-1
 104 928 l 1,0,-1
EndSplineSet
EndChar

StartChar: g
Encoding: 103 103 74
Width: 1072
GlyphClass: 2
Flags: W
LayerCount: 2
Fore
SplineSet
220 548 m 0,0,1
 190 362 190 362 248 247 c 128,-1,2
 306 132 306 132 434 132 c 0,3,4
 564 132 564 132 657 242 c 128,-1,5
 750 352 750 352 782 550 c 0,6,7
 814 742 814 742 756 853 c 128,-1,8
 698 964 698 964 576 964 c 0,9,10
 444 964 444 964 347 847 c 128,-1,11
 250 730 250 730 220 548 c 0,0,1
74 546 m 0,12,13
 114 790 114 790 255 941 c 128,-1,14
 396 1092 396 1092 578 1092 c 0,15,16
 694 1092 694 1092 757 1029 c 128,-1,17
 820 966 820 966 838 884 c 1,18,-1
 866 1056 l 1,19,-1
 1008 1056 l 1,20,-1
 852 124 l 2,21,22
 802 -176 802 -176 677 -323 c 128,-1,23
 552 -470 552 -470 330 -470 c 0,24,25
 90 -470 90 -470 -8 -276 c 1,26,-1
 102 -208 l 1,27,28
 194 -346 194 -346 354 -346 c 0,29,30
 486 -346 486 -346 578 -237 c 128,-1,31
 670 -128 670 -128 700 54 c 2,32,-1
 726 206 l 1,33,34
 672 118 672 118 589 61 c 128,-1,35
 506 4 506 4 402 4 c 0,36,37
 212 4 212 4 123 156 c 128,-1,38
 34 308 34 308 74 546 c 0,12,13
EndSplineSet
EndChar

StartChar: h
Encoding: 104 104 75
Width: 1062
GlyphClass: 2
Flags: W
LayerCount: 2
Fore
SplineSet
58 0 m 1,0,-1
 312 1524 l 1,1,-1
 452 1524 l 1,2,-1
 346 886 l 1,3,-1
 350 886 l 1,4,5
 402 970 402 970 495 1031 c 128,-1,6
 588 1092 588 1092 694 1092 c 0,7,8
 1018 1092 1018 1092 950 682 c 2,9,-1
 836 0 l 1,10,-1
 696 0 l 1,11,-1
 804 658 l 2,12,13
 854 964 854 964 646 964 c 0,14,15
 530 964 530 964 428 864 c 128,-1,16
 326 764 326 764 304 626 c 2,17,-1
 200 0 l 1,18,-1
 58 0 l 1,0,-1
EndSplineSet
Substitution2: "'sups' Superscript lookup 5 subtable" uni02B0
Substitution2: "'aalt' Access All Alternates lookup 0 subtable" uni02B0
EndChar

StartChar: i
Encoding: 105 105 76
Width: 496
GlyphClass: 2
Flags: W
LayerCount: 2
Fore
SplineSet
276 1294 m 1,0,-1
 310 1492 l 1,1,-1
 492 1492 l 1,2,-1
 460 1294 l 1,3,-1
 276 1294 l 1,0,-1
86 0 m 1,4,-1
 260 1056 l 1,5,-1
 400 1056 l 1,6,-1
 226 0 l 1,7,-1
 86 0 l 1,4,-1
EndSplineSet
EndChar

StartChar: j
Encoding: 106 106 77
Width: 514
GlyphClass: 2
Flags: W
LayerCount: 2
Fore
SplineSet
292 1294 m 1,0,-1
 324 1492 l 1,1,-1
 510 1492 l 1,2,-1
 476 1294 l 1,3,-1
 292 1294 l 1,0,-1
-166 -320 m 1,4,-1
 -120 -320 l 2,5,6
 48 -320 48 -320 88 -76 c 2,7,-1
 276 1056 l 1,8,-1
 416 1056 l 1,9,-1
 228 -84 l 2,10,11
 198 -262 198 -262 108 -355 c 128,-1,12
 18 -448 18 -448 -118 -448 c 2,13,-1
 -186 -448 l 1,14,-1
 -166 -320 l 1,4,-1
EndSplineSet
Substitution2: "'sups' Superscript lookup 5 subtable" uni02B2
Substitution2: "'aalt' Access All Alternates lookup 0 subtable" uni02B2
EndChar

StartChar: k
Encoding: 107 107 78
Width: 956
GlyphClass: 2
Flags: W
LayerCount: 2
Fore
SplineSet
62 0 m 1,0,-1
 314 1524 l 1,1,-1
 460 1524 l 1,2,-1
 294 526 l 1,3,-1
 820 1056 l 1,4,-1
 1010 1056 l 1,5,-1
 580 634 l 1,6,-1
 874 0 l 1,7,-1
 700 0 l 1,8,-1
 470 528 l 1,9,-1
 260 322 l 1,10,-1
 208 0 l 1,11,-1
 62 0 l 1,0,-1
EndSplineSet
EndChar

StartChar: l
Encoding: 108 108 79
Width: 468
GlyphClass: 2
Flags: W
LayerCount: 2
Fore
SplineSet
70 0 m 1,0,-1
 322 1524 l 1,1,-1
 464 1524 l 1,2,-1
 210 0 l 1,3,-1
 70 0 l 1,0,-1
EndSplineSet
Substitution2: "'sups' Superscript lookup 5 subtable" uni02E1
Substitution2: "'aalt' Access All Alternates lookup 0 subtable" uni02E1
EndChar

StartChar: m
Encoding: 109 109 80
Width: 1566
GlyphClass: 2
Flags: W
LayerCount: 2
Fore
SplineSet
50 0 m 1,0,-1
 224 1056 l 1,1,-1
 364 1056 l 1,2,-1
 338 896 l 1,3,4
 376 970 376 970 458 1031 c 128,-1,5
 540 1092 540 1092 652 1092 c 0,6,7
 762 1092 762 1092 809 1026 c 128,-1,8
 856 960 856 960 870 856 c 1,9,10
 884 882 884 882 910 915 c 128,-1,11
 936 948 936 948 980 991 c 128,-1,12
 1024 1034 1024 1034 1091 1063 c 128,-1,13
 1158 1092 1158 1092 1232 1092 c 0,14,15
 1522 1092 1522 1092 1454 682 c 2,16,-1
 1342 0 l 1,17,-1
 1198 0 l 1,18,-1
 1310 672 l 2,19,20
 1334 816 1334 816 1309 890 c 128,-1,21
 1284 964 1284 964 1180 964 c 0,22,23
 1072 964 1072 964 983 869 c 128,-1,24
 894 774 894 774 868 628 c 2,25,-1
 764 0 l 1,26,-1
 626 0 l 1,27,-1
 738 674 l 2,28,29
 786 964 786 964 604 964 c 0,30,31
 490 964 490 964 406 874 c 128,-1,32
 322 784 322 784 298 638 c 2,33,-1
 192 0 l 1,34,-1
 50 0 l 1,0,-1
EndSplineSet
EndChar

StartChar: n
Encoding: 110 110 81
Width: 1054
GlyphClass: 2
Flags: W
LayerCount: 2
Fore
SplineSet
50 0 m 1,0,-1
 224 1056 l 1,1,-1
 364 1056 l 1,2,-1
 334 876 l 1,3,-1
 336 876 l 1,4,5
 372 954 372 954 470 1023 c 128,-1,6
 568 1092 568 1092 690 1092 c 0,7,8
 828 1092 828 1092 904 999 c 128,-1,9
 980 906 980 906 942 682 c 2,10,-1
 830 0 l 1,11,-1
 684 0 l 1,12,-1
 794 658 l 2,13,14
 844 964 844 964 636 964 c 0,15,16
 520 964 520 964 420 866 c 128,-1,17
 320 768 320 768 296 630 c 2,18,-1
 192 0 l 1,19,-1
 50 0 l 1,0,-1
EndSplineSet
Substitution2: "'sups' Superscript lookup 5 subtable" uni207F
Substitution2: "'aalt' Access All Alternates lookup 0 subtable" uni207F
EndChar

StartChar: o
Encoding: 111 111 82
Width: 1054
GlyphClass: 2
Flags: W
LayerCount: 2
Fore
SplineSet
216 528 m 0,0,1
 182 328 182 328 251 210 c 128,-1,2
 320 92 320 92 450 92 c 0,3,4
 578 92 578 92 687 210 c 128,-1,5
 796 328 796 328 828 528 c 0,6,7
 862 732 862 732 791 848 c 128,-1,8
 720 964 720 964 594 964 c 0,9,10
 464 964 464 964 357 848 c 128,-1,11
 250 732 250 732 216 528 c 0,0,1
72 528 m 0,12,13
 112 770 112 770 257 931 c 128,-1,14
 402 1092 402 1092 616 1092 c 0,15,16
 828 1092 828 1092 920 931 c 128,-1,17
 1012 770 1012 770 972 528 c 0,18,19
 956 426 956 426 915 330 c 128,-1,20
 874 234 874 234 809 150 c 128,-1,21
 744 66 744 66 644 15 c 128,-1,22
 544 -36 544 -36 428 -36 c 256,23,24
 312 -36 312 -36 231 14 c 128,-1,25
 150 64 150 64 113 148 c 128,-1,26
 76 232 76 232 65 328 c 128,-1,27
 54 424 54 424 72 528 c 0,12,13
EndSplineSet
Substitution2: "Single Substitution lookup 12 subtable" ordmasculine
EndChar

StartChar: p
Encoding: 112 112 83
Width: 1098
GlyphClass: 2
Flags: W
LayerCount: 2
Fore
SplineSet
288 530 m 0,0,1
 256 334 256 334 312 213 c 128,-1,2
 368 92 368 92 502 92 c 0,3,4
 630 92 630 92 733 210 c 128,-1,5
 836 328 836 328 870 530 c 0,6,7
 902 720 902 720 843 842 c 128,-1,8
 784 964 784 964 646 964 c 0,9,10
 518 964 518 964 419 841 c 128,-1,11
 320 718 320 718 288 530 c 0,0,1
-18 -462 m 1,12,-1
 234 1056 l 1,13,-1
 370 1056 l 1,14,-1
 340 866 l 1,15,16
 400 968 400 968 491 1030 c 128,-1,17
 582 1092 582 1092 686 1092 c 0,18,19
 868 1092 868 1092 962 939 c 128,-1,20
 1056 786 1056 786 1014 530 c 0,21,22
 968 258 968 258 819 111 c 128,-1,23
 670 -36 670 -36 500 -36 c 0,24,25
 388 -36 388 -36 320 26 c 128,-1,26
 252 88 252 88 230 182 c 1,27,-1
 124 -462 l 1,28,-1
 -18 -462 l 1,12,-1
EndSplineSet
EndChar

StartChar: q
Encoding: 113 113 84
Width: 1094
GlyphClass: 2
Flags: W
LayerCount: 2
Fore
SplineSet
216 530 m 0,0,1
 182 330 182 330 246 211 c 128,-1,2
 310 92 310 92 438 92 c 256,3,4
 568 92 568 92 667 213 c 128,-1,5
 766 334 766 334 798 530 c 0,6,7
 830 722 830 722 769 843 c 128,-1,8
 708 964 708 964 584 964 c 0,9,10
 444 964 444 964 346 842 c 128,-1,11
 248 720 248 720 216 530 c 0,0,1
72 530 m 0,12,13
 114 788 114 788 258 940 c 128,-1,14
 402 1092 402 1092 586 1092 c 0,15,16
 688 1092 688 1092 759 1031 c 128,-1,17
 830 970 830 970 858 866 c 1,18,-1
 890 1056 l 1,19,-1
 1024 1056 l 1,20,-1
 774 -462 l 1,21,-1
 634 -462 l 1,22,-1
 740 182 l 1,23,24
 686 88 686 88 597 26 c 128,-1,25
 508 -36 508 -36 400 -36 c 0,26,27
 230 -36 230 -36 128 111 c 128,-1,28
 26 258 26 258 72 530 c 0,12,13
EndSplineSet
EndChar

StartChar: r
Encoding: 114 114 85
Width: 690
GlyphClass: 2
Flags: W
LayerCount: 2
Fore
SplineSet
50 0 m 1,0,-1
 224 1056 l 1,1,-1
 360 1056 l 1,2,-1
 334 902 l 1,3,4
 376 974 376 974 455 1033 c 128,-1,5
 534 1092 534 1092 642 1092 c 0,6,7
 724 1092 724 1092 780 1064 c 1,8,-1
 756 926 l 1,9,10
 694 954 694 954 618 954 c 0,11,12
 492 954 492 954 405 854 c 128,-1,13
 318 754 318 754 290 588 c 2,14,-1
 192 0 l 1,15,-1
 50 0 l 1,0,-1
EndSplineSet
Substitution2: "'sups' Superscript lookup 5 subtable" uni02B3
Substitution2: "'aalt' Access All Alternates lookup 0 subtable" uni02B3
EndChar

StartChar: s
Encoding: 115 115 86
Width: 926
GlyphClass: 2
Flags: W
LayerCount: 2
Fore
SplineSet
4 208 m 1,0,-1
 122 274 l 1,1,2
 202 92 202 92 390 92 c 0,3,4
 504 92 504 92 580 135 c 128,-1,5
 656 178 656 178 668 262 c 0,6,7
 674 296 674 296 662 325 c 128,-1,8
 650 354 650 354 633 372 c 128,-1,9
 616 390 616 390 570 413 c 128,-1,10
 524 436 524 436 493 447 c 128,-1,11
 462 458 462 458 392 482 c 0,12,13
 332 504 332 504 288 526 c 128,-1,14
 244 548 244 548 200 584 c 128,-1,15
 156 620 156 620 138 673 c 128,-1,16
 120 726 120 726 132 794 c 0,17,18
 154 926 154 926 268 1009 c 128,-1,19
 382 1092 382 1092 556 1092 c 0,20,21
 680 1092 680 1092 770 1023 c 128,-1,22
 860 954 860 954 890 862 c 1,23,-1
 782 794 l 1,24,25
 756 864 756 864 690 914 c 128,-1,26
 624 964 624 964 534 964 c 0,27,28
 420 964 420 964 355 918 c 128,-1,29
 290 872 290 872 276 792 c 0,30,31
 268 748 268 748 284 712 c 128,-1,32
 300 676 300 676 341 649 c 128,-1,33
 382 622 382 622 418 607 c 128,-1,34
 454 592 454 592 514 572 c 0,35,36
 564 554 564 554 603 538 c 128,-1,37
 642 522 642 522 688 495 c 128,-1,38
 734 468 734 468 763 437 c 128,-1,39
 792 406 792 406 806 360 c 128,-1,40
 820 314 820 314 812 262 c 0,41,42
 792 136 792 136 672 50 c 128,-1,43
 552 -36 552 -36 368 -36 c 0,44,45
 236 -36 236 -36 143 28 c 128,-1,46
 50 92 50 92 4 208 c 1,0,-1
EndSplineSet
Substitution2: "'hist' Historical Forms lookup 11 subtable" longs
Substitution2: "'sups' Superscript lookup 5 subtable" uni02E2
AlternateSubs2: "'aalt' Access All Alternates lookup 1 subtable" uni02E2 longs
EndChar

StartChar: t
Encoding: 116 116 87
Width: 674
GlyphClass: 2
Flags: W
LayerCount: 2
Fore
SplineSet
96 928 m 1,0,-1
 118 1056 l 1,1,-1
 292 1056 l 1,2,-1
 348 1394 l 1,3,-1
 490 1394 l 1,4,-1
 434 1056 l 1,5,-1
 700 1056 l 1,6,-1
 680 928 l 1,7,-1
 414 928 l 1,8,-1
 312 310 l 2,9,10
 296 212 296 212 325 171 c 128,-1,11
 354 130 354 130 432 130 c 2,12,-1
 548 130 l 1,13,-1
 526 0 l 1,14,-1
 392 0 l 2,15,16
 118 0 118 0 166 296 c 2,17,-1
 270 928 l 1,18,-1
 96 928 l 1,0,-1
EndSplineSet
EndChar

StartChar: u
Encoding: 117 117 88
Width: 1048
GlyphClass: 2
Flags: W
LayerCount: 2
Fore
SplineSet
100 370 m 2,0,-1
 214 1056 l 1,1,-1
 356 1056 l 1,2,-1
 248 402 l 2,3,4
 196 92 196 92 414 92 c 0,5,6
 546 92 546 92 634 200 c 128,-1,7
 722 308 722 308 746 456 c 2,8,-1
 844 1056 l 1,9,-1
 986 1056 l 1,10,-1
 812 0 l 1,11,-1
 674 0 l 1,12,-1
 702 170 l 1,13,14
 676 106 676 106 588 35 c 128,-1,15
 500 -36 500 -36 358 -36 c 256,16,17
 216 -36 216 -36 141 67 c 128,-1,18
 66 170 66 170 100 370 c 2,0,-1
EndSplineSet
EndChar

StartChar: v
Encoding: 118 118 89
Width: 942
GlyphClass: 2
Flags: W
LayerCount: 2
Fore
SplineSet
96 1056 m 1,0,-1
 254 1056 l 1,1,-1
 362 394 l 2,2,3
 370 346 370 346 381 257 c 128,-1,4
 392 168 392 168 396 132 c 1,5,-1
 400 132 l 1,6,7
 420 176 420 176 463 263 c 128,-1,8
 506 350 506 350 526 394 c 2,9,-1
 848 1056 l 1,10,-1
 1010 1056 l 1,11,-1
 464 0 l 1,12,-1
 290 0 l 1,13,-1
 96 1056 l 1,0,-1
EndSplineSet
EndChar

StartChar: w
Encoding: 119 119 90
Width: 1354
GlyphClass: 2
Flags: W
LayerCount: 2
Fore
SplineSet
96 1056 m 1,0,-1
 254 1056 l 1,1,-1
 294 400 l 2,2,3
 302 174 302 174 304 140 c 1,4,-1
 312 140 l 1,5,6
 330 186 330 186 365 275 c 128,-1,7
 400 364 400 364 414 400 c 2,8,-1
 674 1056 l 1,9,-1
 846 1056 l 1,10,-1
 892 392 l 2,11,12
 894 360 894 360 898 277 c 128,-1,13
 902 194 902 194 906 140 c 1,14,-1
 912 140 l 1,15,16
 922 162 922 162 1010 400 c 2,17,-1
 1266 1056 l 1,18,-1
 1424 1056 l 1,19,-1
 976 0 l 1,20,-1
 794 0 l 1,21,-1
 750 636 l 2,22,23
 738 876 738 876 738 894 c 1,24,-1
 730 894 l 1,25,26
 650 674 650 674 634 636 c 2,27,-1
 376 0 l 1,28,-1
 196 0 l 1,29,-1
 96 1056 l 1,0,-1
EndSplineSet
Substitution2: "'sups' Superscript lookup 5 subtable" uni02B7
Substitution2: "'aalt' Access All Alternates lookup 0 subtable" uni02B7
EndChar

StartChar: x
Encoding: 120 120 91
Width: 914
GlyphClass: 2
Flags: W
LayerCount: 2
Fore
SplineSet
-86 0 m 1,0,-1
 366 548 l 1,1,-1
 108 1056 l 1,2,-1
 278 1056 l 1,3,-1
 408 784 l 2,4,5
 418 758 418 758 438 716 c 128,-1,6
 458 674 458 674 464 658 c 1,7,-1
 472 658 l 1,8,9
 488 680 488 680 522 723 c 128,-1,10
 556 766 556 766 572 784 c 2,11,-1
 790 1056 l 1,12,-1
 960 1056 l 1,13,-1
 538 548 l 1,14,-1
 808 0 l 1,15,-1
 638 0 l 1,16,-1
 494 314 l 2,17,18
 456 386 456 386 436 434 c 1,19,-1
 428 434 l 1,20,21
 418 416 418 416 334 314 c 2,22,-1
 84 0 l 1,23,-1
 -86 0 l 1,0,-1
EndSplineSet
Substitution2: "'sups' Superscript lookup 5 subtable" uni02E3
Substitution2: "'aalt' Access All Alternates lookup 0 subtable" uni02E3
EndChar

StartChar: y
Encoding: 121 121 92
Width: 936
GlyphClass: 2
Flags: W
LayerCount: 2
Fore
SplineSet
96 1056 m 1,0,-1
 262 1056 l 1,1,-1
 368 438 l 2,2,3
 392 300 392 300 406 170 c 1,4,-1
 414 170 l 1,5,6
 458 266 458 266 540 438 c 2,7,-1
 840 1056 l 1,8,-1
 1006 1056 l 1,9,-1
 368 -176 l 2,10,11
 286 -334 286 -334 202 -398 c 128,-1,12
 118 -462 118 -462 12 -462 c 2,13,-1
 -44 -462 l 1,14,-1
 -22 -336 l 1,15,-1
 10 -336 l 2,16,17
 82 -336 82 -336 138 -293 c 128,-1,18
 194 -250 194 -250 252 -138 c 2,19,-1
 310 -14 l 1,20,-1
 96 1056 l 1,0,-1
EndSplineSet
Substitution2: "'sups' Superscript lookup 5 subtable" uni02B8
Substitution2: "'aalt' Access All Alternates lookup 0 subtable" uni02B8
EndChar

StartChar: z
Encoding: 122 122 93
Width: 900
GlyphClass: 2
Flags: W
LayerCount: 2
Fore
SplineSet
-38 0 m 1,0,-1
 -20 102 l 1,1,-1
 704 928 l 1,2,-1
 170 928 l 1,3,-1
 190 1056 l 1,4,-1
 910 1056 l 1,5,-1
 894 960 l 1,6,-1
 168 128 l 1,7,-1
 772 128 l 1,8,-1
 750 0 l 1,9,-1
 -38 0 l 1,0,-1
EndSplineSet
EndChar

StartChar: braceleft
Encoding: 123 123 94
Width: 852
GlyphClass: 2
Flags: W
LayerCount: 2
Fore
SplineSet
132 638 m 1,0,-1
 152 756 l 1,1,-1
 204 756 l 2,2,3
 348 756 348 756 392 1024 c 2,4,-1
 456 1408 l 2,5,6
 476 1528 476 1528 552 1596 c 128,-1,7
 628 1664 628 1664 728 1664 c 2,8,-1
 880 1664 l 1,9,-1
 858 1538 l 1,10,-1
 732 1538 l 2,11,12
 686 1538 686 1538 648 1499 c 128,-1,13
 610 1460 610 1460 598 1388 c 2,14,-1
 534 998 l 2,15,16
 514 874 514 874 466 808 c 128,-1,17
 418 742 418 742 342 696 c 1,18,19
 472 620 472 620 438 420 c 2,20,-1
 374 34 l 2,21,22
 360 -50 360 -50 385 -91 c 128,-1,23
 410 -132 410 -132 458 -132 c 2,24,-1
 582 -132 l 1,25,-1
 562 -256 l 1,26,-1
 412 -256 l 2,27,28
 314 -256 314 -256 257 -193 c 128,-1,29
 200 -130 200 -130 222 -2 c 2,30,-1
 288 394 l 2,31,32
 308 510 308 510 278 574 c 128,-1,33
 248 638 248 638 184 638 c 2,34,-1
 132 638 l 1,0,-1
EndSplineSet
EndChar

StartChar: bar
Encoding: 124 124 95
Width: 498
GlyphClass: 2
Flags: W
LayerCount: 2
Fore
SplineSet
26 -332 m 1,0,-1
 368 1732 l 1,1,-1
 518 1732 l 1,2,-1
 176 -332 l 1,3,-1
 26 -332 l 1,0,-1
EndSplineSet
EndChar

StartChar: braceright
Encoding: 125 125 96
Width: 852
GlyphClass: 2
Flags: W
LayerCount: 2
Fore
SplineSet
38 -132 m 1,0,-1
 160 -132 l 2,1,2
 210 -132 210 -132 248 -91 c 128,-1,3
 286 -50 286 -50 300 34 c 2,4,-1
 364 420 l 2,5,6
 398 620 398 620 554 696 c 1,7,8
 492 742 492 742 465 808 c 128,-1,9
 438 874 438 874 460 998 c 2,10,-1
 524 1388 l 2,11,12
 536 1460 536 1460 513 1499 c 128,-1,13
 490 1538 490 1538 440 1538 c 2,14,-1
 314 1538 l 1,15,-1
 334 1664 l 1,16,-1
 488 1664 l 2,17,18
 588 1664 588 1664 642 1596 c 128,-1,19
 696 1528 696 1528 676 1408 c 2,20,-1
 612 1024 l 2,21,22
 568 756 568 756 710 756 c 2,23,-1
 764 756 l 1,24,-1
 744 638 l 1,25,-1
 690 638 l 2,26,27
 628 638 628 638 578 573 c 128,-1,28
 528 508 528 508 508 394 c 2,29,-1
 442 -2 l 2,30,31
 420 -130 420 -130 344 -193 c 128,-1,32
 268 -256 268 -256 170 -256 c 2,33,-1
 16 -256 l 1,34,-1
 38 -132 l 1,0,-1
EndSplineSet
EndChar

StartChar: asciitilde
Encoding: 126 126 97
Width: 1468
GlyphClass: 2
Flags: W
LayerCount: 2
Fore
SplineSet
134 616 m 1,0,1
 308 898 308 898 552 898 c 0,2,3
 626 898 626 898 690 858 c 128,-1,4
 754 818 754 818 791 770 c 128,-1,5
 828 722 828 722 879 682 c 128,-1,6
 930 642 930 642 982 642 c 0,7,8
 1012 642 1012 642 1041 649 c 128,-1,9
 1070 656 1070 656 1090 666 c 128,-1,10
 1110 676 1110 676 1132 694 c 128,-1,11
 1154 712 1154 712 1168 725 c 128,-1,12
 1182 738 1182 738 1200 763 c 128,-1,13
 1218 788 1218 788 1226 798 c 128,-1,14
 1234 808 1234 808 1250 834 c 128,-1,15
 1266 860 1266 860 1268 864 c 1,16,-1
 1382 800 l 1,17,18
 1198 516 1198 516 966 516 c 0,19,20
 888 516 888 516 824 556 c 128,-1,21
 760 596 760 596 723 644 c 128,-1,22
 686 692 686 692 636 733 c 128,-1,23
 586 774 586 774 532 774 c 0,24,25
 384 774 384 774 244 552 c 1,26,-1
 134 616 l 1,0,1
EndSplineSet
EndChar

StartChar: exclamdown
Encoding: 161 161 99
Width: 580
GlyphClass: 2
Flags: W
LayerCount: 2
Fore
SplineSet
42 -422 m 1,0,-1
 236 636 l 1,1,-1
 370 636 l 1,2,-1
 214 -422 l 1,3,-1
 42 -422 l 1,0,-1
214 838 m 1,4,-1
 252 1064 l 1,5,-1
 494 1064 l 1,6,-1
 458 838 l 1,7,-1
 214 838 l 1,4,-1
EndSplineSet
EndChar

StartChar: cent
Encoding: 162 162 100
Width: 976
GlyphClass: 2
Flags: W
LayerCount: 2
Fore
SplineSet
72 528 m 0,0,1
 108 750 108 750 239 908 c 128,-1,2
 370 1066 370 1066 558 1086 c 1,3,-1
 584 1240 l 1,4,-1
 720 1240 l 1,5,-1
 696 1086 l 1,6,7
 810 1064 810 1064 872 988 c 128,-1,8
 934 912 934 912 948 818 c 1,9,-1
 818 780 l 1,10,11
 800 856 800 856 747 910 c 128,-1,12
 694 964 694 964 612 964 c 0,13,14
 464 964 464 964 359 841 c 128,-1,15
 254 718 254 718 222 528 c 0,16,17
 190 332 190 332 256 212 c 128,-1,18
 322 92 322 92 466 92 c 0,19,20
 552 92 552 92 633 151 c 128,-1,21
 714 210 714 210 762 290 c 1,22,-1
 882 250 l 1,23,24
 828 150 828 150 733 73 c 128,-1,25
 638 -4 638 -4 510 -30 c 1,26,-1
 484 -192 l 1,27,-1
 346 -192 l 1,28,-1
 374 -30 l 1,29,30
 202 -12 202 -12 117 139 c 128,-1,31
 32 290 32 290 72 528 c 0,0,1
EndSplineSet
EndChar

StartChar: sterling
Encoding: 163 163 101
Width: 1136
GlyphClass: 2
Flags: W
LayerCount: 2
Fore
SplineSet
86 664 m 1,0,-1
 106 796 l 1,1,-1
 320 796 l 1,2,-1
 378 1138 l 2,3,4
 406 1312 406 1312 531 1409 c 128,-1,5
 656 1506 656 1506 838 1506 c 0,6,7
 964 1506 964 1506 1045 1442 c 128,-1,8
 1126 1378 1126 1378 1156 1292 c 1,9,-1
 1040 1224 l 1,10,11
 1012 1286 1012 1286 954 1329 c 128,-1,12
 896 1372 896 1372 818 1372 c 0,13,14
 704 1372 704 1372 626 1309 c 128,-1,15
 548 1246 548 1246 528 1124 c 2,16,-1
 474 796 l 1,17,-1
 914 796 l 1,18,-1
 892 664 l 1,19,-1
 452 664 l 1,20,-1
 412 422 l 2,21,22
 378 216 378 216 270 140 c 1,23,24
 378 158 378 158 444 158 c 0,25,26
 500 158 500 158 593 128 c 128,-1,27
 686 98 686 98 750 98 c 0,28,29
 890 98 890 98 1008 160 c 1,30,-1
 1032 36 l 1,31,32
 880 -36 880 -36 724 -36 c 0,33,34
 664 -36 664 -36 550 -3 c 128,-1,35
 436 30 436 30 376 30 c 0,36,37
 312 30 312 30 221 16 c 128,-1,38
 130 2 130 2 72 -12 c 2,39,-1
 16 -26 l 1,40,-1
 -8 88 l 1,41,42
 102 116 102 116 170 204 c 128,-1,43
 238 292 238 292 258 414 c 2,44,-1
 298 664 l 1,45,-1
 86 664 l 1,0,-1
EndSplineSet
EndChar

StartChar: currency
Encoding: 164 164 102
Width: 1232
GlyphClass: 2
Flags: W
LayerCount: 2
Fore
SplineSet
0 288 m 1,0,-1
 250 492 l 1,1,2
 186 594 186 594 210 736 c 0,3,4
 234 884 234 884 330 982 c 1,5,-1
 150 1184 l 1,6,-1
 270 1282 l 1,7,-1
 442 1080 l 1,8,9
 576 1168 576 1168 718 1168 c 0,10,11
 864 1168 864 1168 964 1080 c 1,12,-1
 1200 1280 l 1,13,-1
 1286 1182 l 1,14,-1
 1042 982 l 1,15,16
 1106 886 1106 886 1082 736 c 0,17,18
 1058 594 1058 594 962 492 c 1,19,-1
 1138 288 l 1,20,-1
 1022 190 l 1,21,-1
 848 392 l 1,22,23
 724 304 724 304 574 304 c 0,24,25
 426 304 426 304 328 392 c 1,26,-1
 88 192 l 1,27,-1
 0 288 l 1,0,-1
348 736 m 256,28,29
 328 612 328 612 396 524 c 128,-1,30
 464 436 464 436 596 436 c 256,31,32
 728 436 728 436 826 524 c 128,-1,33
 924 612 924 612 946 736 c 0,34,35
 966 862 966 862 895 948 c 128,-1,36
 824 1034 824 1034 694 1034 c 256,37,38
 564 1034 564 1034 466 947 c 128,-1,39
 368 860 368 860 348 736 c 256,28,29
EndSplineSet
EndChar

StartChar: yen
Encoding: 165 165 103
Width: 1158
GlyphClass: 2
Flags: W
LayerCount: 2
Fore
SplineSet
142 1470 m 1,0,-1
 326 1470 l 1,1,-1
 504 1100 l 2,2,3
 582 930 582 930 620 832 c 1,4,-1
 624 832 l 1,5,6
 748 994 748 994 830 1100 c 2,7,-1
 1130 1470 l 1,8,-1
 1316 1470 l 1,9,-1
 774 808 l 1,10,-1
 1076 808 l 1,11,-1
 1056 694 l 1,12,-1
 678 694 l 1,13,-1
 640 466 l 1,14,-1
 1018 466 l 1,15,-1
 1000 352 l 1,16,-1
 622 352 l 1,17,-1
 564 0 l 1,18,-1
 408 0 l 1,19,-1
 466 352 l 1,20,-1
 86 352 l 1,21,-1
 106 466 l 1,22,-1
 486 466 l 1,23,-1
 524 694 l 1,24,-1
 142 694 l 1,25,-1
 162 808 l 1,26,-1
 466 808 l 1,27,-1
 142 1470 l 1,0,-1
EndSplineSet
EndChar

StartChar: brokenbar
Encoding: 166 166 104
Width: 498
GlyphClass: 2
Flags: W
LayerCount: 2
Fore
SplineSet
234 924 m 1,0,-1
 368 1732 l 1,1,-1
 518 1732 l 1,2,-1
 384 924 l 1,3,-1
 234 924 l 1,0,-1
26 -332 m 1,4,-1
 160 474 l 1,5,-1
 310 474 l 1,6,-1
 176 -332 l 1,7,-1
 26 -332 l 1,4,-1
EndSplineSet
EndChar

StartChar: section
Encoding: 167 167 105
Width: 1078
GlyphClass: 2
Flags: W
LayerCount: 2
Fore
SplineSet
26 92 m 1,0,-1
 142 168 l 1,1,2
 174 104 174 104 245 63 c 128,-1,3
 316 22 316 22 410 22 c 0,4,5
 646 22 646 22 668 168 c 0,6,7
 678 224 678 224 649 255 c 128,-1,8
 620 286 620 286 546 326 c 2,9,-1
 352 422 l 2,10,11
 236 478 236 478 188 545 c 128,-1,12
 140 612 140 612 156 708 c 0,13,14
 168 778 168 778 212 839 c 128,-1,15
 256 900 256 900 296 933 c 128,-1,16
 336 966 336 966 396 1004 c 1,17,18
 280 1108 280 1108 298 1220 c 0,19,20
 320 1348 320 1348 432 1427 c 128,-1,21
 544 1506 544 1506 736 1506 c 0,22,23
 864 1506 864 1506 957 1449 c 128,-1,24
 1050 1392 1050 1392 1092 1302 c 1,25,-1
 978 1224 l 1,26,27
 880 1372 880 1372 710 1372 c 0,28,29
 590 1372 590 1372 527 1330 c 128,-1,30
 464 1288 464 1288 452 1220 c 0,31,32
 448 1196 448 1196 452 1174 c 128,-1,33
 456 1152 456 1152 473 1131 c 128,-1,34
 490 1110 490 1110 505 1096 c 128,-1,35
 520 1082 520 1082 552 1063 c 128,-1,36
 584 1044 584 1044 603 1033 c 128,-1,37
 622 1022 622 1022 665 1002 c 128,-1,38
 708 982 708 982 726 972 c 0,39,40
 798 932 798 932 837 908 c 128,-1,41
 876 884 876 884 920 843 c 128,-1,42
 964 802 964 802 978 753 c 128,-1,43
 992 704 992 704 982 642 c 0,44,45
 956 488 956 488 772 352 c 1,46,47
 840 276 840 276 822 168 c 0,48,49
 802 44 802 44 693 -34 c 128,-1,50
 584 -112 584 -112 388 -112 c 0,51,52
 252 -112 252 -112 158 -51 c 128,-1,53
 64 10 64 10 26 92 c 1,0,-1
312 716 m 0,54,55
 300 644 300 644 333 610 c 128,-1,56
 366 576 366 576 464 524 c 2,57,-1
 664 426 l 1,58,59
 808 530 808 530 828 642 c 0,60,61
 838 704 838 704 798 746 c 128,-1,62
 758 788 758 788 656 844 c 2,63,-1
 500 934 l 1,64,65
 416 880 416 880 370 832 c 128,-1,66
 324 784 324 784 312 716 c 0,54,55
EndSplineSet
EndChar

StartChar: dieresis
Encoding: 168 168 106
Width: 906
GlyphClass: 2
Flags: W
LayerCount: 2
Fore
SplineSet
296 1270 m 1,0,-1
 330 1470 l 1,1,-1
 526 1470 l 1,2,-1
 492 1270 l 1,3,-1
 296 1270 l 1,0,-1
650 1270 m 1,4,-1
 682 1470 l 1,5,-1
 876 1470 l 1,6,-1
 844 1270 l 1,7,-1
 650 1270 l 1,4,-1
EndSplineSet
EndChar

StartChar: copyright
Encoding: 169 169 107
Width: 1700
GlyphClass: 2
Flags: W
LayerCount: 2
Fore
SplineSet
516 744 m 0,0,1
 552 956 552 956 679 1086 c 128,-1,2
 806 1216 806 1216 984 1216 c 0,3,4
 1190 1216 1190 1216 1256 992 c 1,5,-1
 1136 952 l 1,6,7
 1080 1096 1080 1096 962 1096 c 0,8,9
 846 1096 846 1096 762 999 c 128,-1,10
 678 902 678 902 652 744 c 0,11,12
 624 580 624 580 677 485 c 128,-1,13
 730 390 730 390 846 390 c 0,14,15
 920 390 920 390 985 435 c 128,-1,16
 1050 480 1050 480 1086 548 c 1,17,-1
 1200 510 l 1,18,19
 1150 414 1150 414 1051 342 c 128,-1,20
 952 270 952 270 826 270 c 0,21,22
 654 270 654 270 567 399 c 128,-1,23
 480 528 480 528 516 744 c 0,0,1
116 746 m 0,24,25
 174 1094 174 1094 428 1313 c 128,-1,26
 682 1532 682 1532 1012 1532 c 0,27,28
 1344 1532 1344 1532 1525 1312 c 128,-1,29
 1706 1092 1706 1092 1648 746 c 0,30,31
 1592 406 1592 406 1338 183 c 128,-1,32
 1084 -40 1084 -40 752 -40 c 0,33,34
 422 -40 422 -40 240 180 c 128,-1,35
 58 400 58 400 116 746 c 0,24,25
226 746 m 0,36,37
 178 452 178 452 327 259 c 128,-1,38
 476 66 476 66 768 66 c 0,39,40
 1056 66 1056 66 1271 256 c 128,-1,41
 1486 446 1486 446 1536 746 c 0,42,43
 1586 1042 1586 1042 1434 1234 c 128,-1,44
 1282 1426 1282 1426 994 1426 c 256,45,46
 706 1426 706 1426 491 1236 c 128,-1,47
 276 1046 276 1046 226 746 c 0,36,37
EndSplineSet
EndChar

StartChar: ordfeminine
Encoding: 170 170 108
Width: 750
GlyphClass: 2
Flags: W
LayerCount: 2
Fore
SplineSet
90 660 m 1,0,-1
 106 766 l 1,1,-1
 708 766 l 1,2,-1
 692 660 l 1,3,-1
 90 660 l 1,0,-1
262 1094 m 0,4,5
 254 1046 254 1046 287 1013 c 128,-1,6
 320 980 320 980 392 980 c 0,7,8
 480 980 480 980 554 1039 c 128,-1,9
 628 1098 628 1098 644 1190 c 2,10,-1
 658 1280 l 1,11,12
 626 1272 626 1272 566 1263 c 128,-1,13
 506 1254 506 1254 463 1245 c 128,-1,14
 420 1236 420 1236 373 1219 c 128,-1,15
 326 1202 326 1202 298 1170 c 128,-1,16
 270 1138 270 1138 262 1094 c 0,4,5
142 1086 m 0,17,18
 154 1158 154 1158 196 1209 c 128,-1,19
 238 1260 238 1260 303 1286 c 128,-1,20
 368 1312 368 1312 425 1327 c 128,-1,21
 482 1342 482 1342 560 1355 c 128,-1,22
 638 1368 638 1368 674 1378 c 1,23,-1
 680 1414 l 2,24,25
 690 1476 690 1476 652 1518 c 128,-1,26
 614 1560 614 1560 530 1560 c 0,27,28
 458 1560 458 1560 392 1522 c 128,-1,29
 326 1484 326 1484 296 1446 c 1,30,-1
 228 1512 l 1,31,32
 266 1556 266 1556 356 1607 c 128,-1,33
 446 1658 446 1658 544 1658 c 0,34,35
 836 1658 836 1658 788 1370 c 2,36,-1
 712 900 l 1,37,-1
 600 900 l 1,38,-1
 616 996 l 1,39,40
 576 944 576 944 508 911 c 128,-1,41
 440 878 440 878 362 878 c 0,42,43
 242 878 242 878 184 936 c 128,-1,44
 126 994 126 994 142 1086 c 0,17,18
EndSplineSet
EndChar

StartChar: guillemotleft
Encoding: 171 171 109
Width: 894
GlyphClass: 2
Flags: W
LayerCount: 2
Fore
SplineSet
58 498 m 1,0,-1
 444 948 l 1,1,-1
 542 874 l 1,2,-1
 222 498 l 1,3,-1
 416 126 l 1,4,-1
 296 50 l 1,5,-1
 58 498 l 1,0,-1
402 498 m 1,6,-1
 786 934 l 1,7,-1
 878 854 l 1,8,-1
 566 498 l 1,9,-1
 762 142 l 1,10,-1
 642 62 l 1,11,-1
 402 498 l 1,6,-1
EndSplineSet
EndChar

StartChar: logicalnot
Encoding: 172 172 110
Width: 1056
GlyphClass: 2
Flags: W
LayerCount: 2
Fore
SplineSet
98 632 m 1,0,-1
 120 766 l 1,1,-1
 1004 766 l 1,2,-1
 918 248 l 1,3,-1
 776 248 l 1,4,-1
 838 632 l 1,5,-1
 98 632 l 1,0,-1
EndSplineSet
EndChar

StartChar: uni00AD
Encoding: 173 173 111
Width: 1076
GlyphClass: 2
Flags: W
LayerCount: 2
Fore
SplineSet
120 662 m 1,0,-1
 142 794 l 1,1,-1
 1010 794 l 1,2,-1
 988 662 l 1,3,-1
 120 662 l 1,0,-1
EndSplineSet
EndChar

StartChar: registered
Encoding: 174 174 112
Width: 1700
GlyphClass: 2
Flags: W
LayerCount: 2
Fore
SplineSet
534 292 m 1,0,-1
 682 1190 l 1,1,-1
 1024 1190 l 2,2,3
 1152 1190 1152 1190 1207 1117 c 128,-1,4
 1262 1044 1262 1044 1244 936 c 0,5,6
 1218 778 1218 778 1074 716 c 1,7,8
 1134 672 1134 672 1138 548 c 0,9,10
 1144 426 1144 426 1188 292 c 1,11,-1
 1044 292 l 1,12,13
 1012 376 1012 376 1006 534 c 0,14,15
 1006 578 1006 578 1000 601 c 128,-1,16
 994 624 994 624 974 647 c 128,-1,17
 954 670 954 670 914 670 c 2,18,-1
 728 670 l 1,19,-1
 666 292 l 1,20,-1
 534 292 l 1,0,-1
746 780 m 1,21,-1
 934 780 l 2,22,23
 1006 780 1006 780 1054 819 c 128,-1,24
 1102 858 1102 858 1114 926 c 0,25,26
 1124 988 1124 988 1090 1028 c 128,-1,27
 1056 1068 1056 1068 982 1068 c 2,28,-1
 794 1068 l 1,29,-1
 746 780 l 1,21,-1
116 748 m 256,30,31
 174 1096 174 1096 428 1314 c 128,-1,32
 682 1532 682 1532 1012 1532 c 0,33,34
 1344 1532 1344 1532 1525 1313 c 128,-1,35
 1706 1094 1706 1094 1648 748 c 0,36,37
 1592 408 1592 408 1339 184 c 128,-1,38
 1086 -40 1086 -40 752 -40 c 0,39,40
 422 -40 422 -40 240 180 c 128,-1,41
 58 400 58 400 116 748 c 256,30,31
228 748 m 0,42,43
 178 452 178 452 327 259 c 128,-1,44
 476 66 476 66 768 66 c 0,45,46
 1056 66 1056 66 1272 259 c 128,-1,47
 1488 452 1488 452 1536 748 c 0,48,49
 1586 1046 1586 1046 1433 1236 c 128,-1,50
 1280 1426 1280 1426 994 1426 c 0,51,52
 706 1426 706 1426 492 1237 c 128,-1,53
 278 1048 278 1048 228 748 c 0,42,43
EndSplineSet
EndChar

StartChar: macron
Encoding: 175 175 113
Width: 988
GlyphClass: 2
Flags: W
LayerCount: 2
Fore
SplineSet
152 1486 m 1,0,-1
 174 1618 l 1,1,-1
 1166 1618 l 1,2,-1
 1144 1486 l 1,3,-1
 152 1486 l 1,0,-1
EndSplineSet
EndChar

StartChar: degree
Encoding: 176 176 114
Width: 796
GlyphClass: 2
Flags: W
LayerCount: 2
Fore
SplineSet
264 1240 m 0,0,1
 280 1340 280 1340 362 1412 c 128,-1,2
 444 1484 444 1484 552 1484 c 0,3,4
 654 1484 654 1484 714 1415 c 128,-1,5
 774 1346 774 1346 756 1240 c 256,6,7
 738 1134 738 1134 655 1066 c 128,-1,8
 572 998 572 998 472 998 c 0,9,10
 368 998 368 998 307 1067 c 128,-1,11
 246 1136 246 1136 264 1240 c 0,0,1
364 1240 m 0,12,13
 354 1176 354 1176 389 1135 c 128,-1,14
 424 1094 424 1094 486 1094 c 0,15,16
 544 1094 544 1094 594 1135 c 128,-1,17
 644 1176 644 1176 654 1240 c 0,18,19
 664 1302 664 1302 631 1345 c 128,-1,20
 598 1388 598 1388 536 1388 c 0,21,22
 472 1388 472 1388 423 1344 c 128,-1,23
 374 1300 374 1300 364 1240 c 0,12,13
EndSplineSet
EndChar

StartChar: plusminus
Encoding: 177 177 115
Width: 1080
GlyphClass: 2
Flags: W
LayerCount: 2
Fore
SplineSet
122 806 m 1,0,-1
 144 940 l 1,1,-1
 528 940 l 1,2,-1
 586 1292 l 1,3,-1
 732 1292 l 1,4,-1
 674 940 l 1,5,-1
 1060 940 l 1,6,-1
 1038 806 l 1,7,-1
 652 806 l 1,8,-1
 596 462 l 1,9,-1
 448 462 l 1,10,-1
 506 806 l 1,11,-1
 122 806 l 1,0,-1
20 192 m 1,12,-1
 42 326 l 1,13,-1
 960 326 l 1,14,-1
 936 192 l 1,15,-1
 20 192 l 1,12,-1
EndSplineSet
EndChar

StartChar: twosuperior
Encoding: 178 178 116
Width: 624
GlyphClass: 2
Flags: W
LayerCount: 2
Fore
SplineSet
194 1428 m 1,0,1
 206 1458 206 1458 212 1471 c 128,-1,2
 218 1484 218 1484 246 1525 c 128,-1,3
 274 1566 274 1566 302 1589 c 128,-1,4
 330 1612 330 1612 381 1633 c 128,-1,5
 432 1654 432 1654 492 1654 c 0,6,7
 600 1654 600 1654 659 1590 c 128,-1,8
 718 1526 718 1526 700 1416 c 0,9,10
 680 1294 680 1294 510 1146 c 0,11,12
 490 1128 490 1128 439 1086 c 128,-1,13
 388 1044 388 1044 362 1021 c 128,-1,14
 336 998 336 998 302 961 c 128,-1,15
 268 924 268 924 248 892 c 1,16,-1
 612 892 l 1,17,-1
 596 792 l 1,18,-1
 94 792 l 1,19,20
 110 892 110 892 181 975 c 128,-1,21
 252 1058 252 1058 452 1224 c 0,22,23
 570 1320 570 1320 586 1416 c 0,24,25
 598 1484 598 1484 567 1520 c 128,-1,26
 536 1556 536 1556 474 1556 c 0,27,28
 428 1556 428 1556 394 1539 c 128,-1,29
 360 1522 360 1522 336 1487 c 128,-1,30
 312 1452 312 1452 306 1440 c 128,-1,31
 300 1428 300 1428 290 1402 c 1,32,-1
 194 1428 l 1,0,1
EndSplineSet
EndChar

StartChar: threesuperior
Encoding: 179 179 117
Width: 626
GlyphClass: 2
Flags: W
LayerCount: 2
Fore
SplineSet
102 958 m 1,0,-1
 202 996 l 1,1,2
 242 874 242 874 354 874 c 0,3,4
 422 874 422 874 476 915 c 128,-1,5
 530 956 530 956 544 1036 c 0,6,7
 556 1108 556 1108 510 1149 c 128,-1,8
 464 1190 464 1190 390 1190 c 0,9,10
 360 1190 360 1190 316 1186 c 1,11,-1
 332 1288 l 1,12,13
 388 1284 388 1284 402 1284 c 0,14,15
 468 1284 468 1284 517 1322 c 128,-1,16
 566 1360 566 1360 576 1426 c 0,17,18
 586 1486 586 1486 554 1523 c 128,-1,19
 522 1560 522 1560 464 1560 c 0,20,21
 368 1560 368 1560 294 1432 c 1,22,-1
 208 1464 l 1,23,24
 306 1656 306 1656 482 1656 c 0,25,26
 594 1656 594 1656 651 1593 c 128,-1,27
 708 1530 708 1530 692 1434 c 0,28,29
 670 1306 670 1306 554 1244 c 1,30,31
 682 1186 682 1186 656 1036 c 0,32,33
 636 914 636 914 548 845 c 128,-1,34
 460 776 460 776 338 776 c 0,35,36
 146 776 146 776 102 958 c 1,0,-1
EndSplineSet
EndChar

StartChar: acute
Encoding: 180 180 118
Width: 636
GlyphClass: 2
Flags: W
LayerCount: 2
Fore
SplineSet
254 1306 m 1,0,-1
 528 1648 l 1,1,-1
 722 1648 l 1,2,-1
 382 1306 l 1,3,-1
 254 1306 l 1,0,-1
EndSplineSet
EndChar

StartChar: uni00B5
Encoding: 181 181 119
Width: 1070
GlyphClass: 2
Flags: W
LayerCount: 2
Fore
SplineSet
-18 -462 m 1,0,-1
 234 1056 l 1,1,-1
 376 1056 l 1,2,-1
 268 402 l 2,3,4
 216 92 216 92 432 92 c 0,5,6
 564 92 564 92 653 200 c 128,-1,7
 742 308 742 308 766 456 c 2,8,-1
 864 1056 l 1,9,-1
 1008 1056 l 1,10,-1
 832 0 l 1,11,-1
 696 0 l 1,12,-1
 724 170 l 1,13,-1
 722 170 l 1,14,15
 680 82 680 82 590 23 c 128,-1,16
 500 -36 500 -36 384 -36 c 0,17,18
 258 -36 258 -36 214 70 c 1,19,-1
 126 -462 l 1,20,-1
 -18 -462 l 1,0,-1
EndSplineSet
EndChar

StartChar: paragraph
Encoding: 182 182 120
Width: 1214
GlyphClass: 2
Flags: W
LayerCount: 2
Fore
SplineSet
192 1088 m 0,0,1
 226 1288 226 1288 348 1410 c 128,-1,2
 470 1532 470 1532 662 1532 c 2,3,-1
 1214 1532 l 1,4,-1
 936 -144 l 1,5,-1
 810 -144 l 1,6,-1
 1066 1394 l 1,7,-1
 864 1394 l 1,8,-1
 610 -144 l 1,9,-1
 484 -144 l 1,10,-1
 616 650 l 1,11,12
 552 630 552 630 486 630 c 0,13,14
 330 630 330 630 243 750 c 128,-1,15
 156 870 156 870 192 1088 c 0,0,1
EndSplineSet
EndChar

StartChar: periodcentered
Encoding: 183 183 121
Width: 632
GlyphClass: 2
Flags: W
LayerCount: 2
Fore
SplineSet
198 588 m 1,0,-1
 236 822 l 1,1,-1
 480 822 l 1,2,-1
 442 588 l 1,3,-1
 198 588 l 1,0,-1
EndSplineSet
EndChar

StartChar: cedilla
Encoding: 184 184 122
Width: 566
GlyphClass: 2
Flags: W
LayerCount: 2
Fore
SplineSet
-68 -332 m 1,0,1
 10 -352 10 -352 54 -352 c 0,2,3
 188 -352 188 -352 200 -266 c 256,4,5
 214 -180 214 -180 30 -162 c 1,6,-1
 154 28 l 1,7,-1
 284 28 l 1,8,-1
 210 -90 l 1,9,10
 360 -132 360 -132 338 -268 c 0,11,12
 324 -356 324 -356 253 -410 c 128,-1,13
 182 -464 182 -464 46 -464 c 0,14,15
 -32 -464 -32 -464 -88 -444 c 1,16,-1
 -68 -332 l 1,0,1
EndSplineSet
EndChar

StartChar: onesuperior
Encoding: 185 185 123
Width: 608
GlyphClass: 2
Flags: W
LayerCount: 2
Fore
SplineSet
240 1426 m 1,0,-1
 256 1520 l 1,1,-1
 302 1520 l 2,2,3
 386 1520 386 1520 420 1544 c 128,-1,4
 454 1568 454 1568 462 1618 c 2,5,-1
 468 1654 l 1,6,-1
 568 1654 l 1,7,-1
 426 792 l 1,8,-1
 312 792 l 1,9,-1
 416 1426 l 1,10,-1
 240 1426 l 1,0,-1
EndSplineSet
EndChar

StartChar: ordmasculine
Encoding: 186 186 124
Width: 752
GlyphClass: 2
Flags: W
LayerCount: 2
Fore
SplineSet
284 1268 m 0,0,1
 262 1134 262 1134 309 1057 c 128,-1,2
 356 980 356 980 442 980 c 256,3,4
 528 980 528 980 602 1057 c 128,-1,5
 676 1134 676 1134 698 1268 c 0,6,7
 720 1404 720 1404 672 1480 c 128,-1,8
 624 1556 624 1556 538 1556 c 256,9,10
 452 1556 452 1556 379 1480 c 128,-1,11
 306 1404 306 1404 284 1268 c 0,0,1
166 1268 m 0,12,13
 194 1434 194 1434 298 1546 c 128,-1,14
 402 1658 402 1658 554 1658 c 256,15,16
 706 1658 706 1658 775 1546 c 128,-1,17
 844 1434 844 1434 816 1268 c 0,18,19
 790 1112 790 1112 689 995 c 128,-1,20
 588 878 588 878 426 878 c 0,21,22
 316 878 316 878 250 938 c 128,-1,23
 184 998 184 998 167 1084 c 128,-1,24
 150 1170 150 1170 166 1268 c 0,12,13
90 660 m 1,25,-1
 108 766 l 1,26,-1
 710 766 l 1,27,-1
 692 660 l 1,28,-1
 90 660 l 1,25,-1
EndSplineSet
EndChar

StartChar: guillemotright
Encoding: 187 187 125
Width: 892
GlyphClass: 2
Flags: W
LayerCount: 2
Fore
SplineSet
112 854 m 1,0,-1
 232 934 l 1,1,-1
 470 498 l 1,2,-1
 88 62 l 1,3,-1
 -4 142 l 1,4,-1
 308 498 l 1,5,-1
 112 854 l 1,0,-1
334 128 m 1,6,-1
 652 498 l 1,7,-1
 456 874 l 1,8,-1
 580 948 l 1,9,-1
 814 498 l 1,10,-1
 430 50 l 1,11,-1
 334 128 l 1,6,-1
EndSplineSet
EndChar

StartChar: onequarter
Encoding: 188 188 126
Width: 1870
GlyphClass: 3
Flags: W
LayerCount: 2
Fore
SplineSet
1150 258 m 1,0,-1
 1412 258 l 1,1,-1
 1480 672 l 1,2,-1
 1414 586 l 1,3,-1
 1150 258 l 1,0,-1
276 1318 m 1,4,-1
 294 1434 l 1,5,-1
 352 1434 l 2,6,7
 446 1434 446 1434 482 1460 c 128,-1,8
 518 1486 518 1486 528 1538 c 2,9,-1
 536 1588 l 1,10,-1
 658 1588 l 1,11,-1
 494 598 l 1,12,-1
 354 598 l 1,13,-1
 474 1318 l 1,14,-1
 276 1318 l 1,4,-1
184 -100 m 1,15,-1
 1390 1562 l 1,16,-1
 1536 1562 l 1,17,-1
 334 -100 l 1,18,-1
 184 -100 l 1,15,-1
998 242 m 1,19,-1
 1536 904 l 1,20,-1
 1652 904 l 1,21,-1
 1544 258 l 1,22,-1
 1676 258 l 1,23,-1
 1656 136 l 1,24,-1
 1524 136 l 1,25,-1
 1488 -84 l 1,26,-1
 1354 -84 l 1,27,-1
 1390 136 l 1,28,-1
 982 136 l 1,29,-1
 998 242 l 1,19,-1
EndSplineSet
Ligature2: "'frac' Diagonal Fractions lookup 7 subtable" one fraction four
Ligature2: "'frac' Diagonal Fractions lookup 7 subtable" one slash four
EndChar

StartChar: onehalf
Encoding: 189 189 127
Width: 1866
GlyphClass: 3
Flags: W
LayerCount: 2
Fore
SplineSet
1110 634 m 1,0,1
 1124 666 1124 666 1133 683 c 128,-1,2
 1142 700 1142 700 1173 747 c 128,-1,3
 1204 794 1204 794 1237 822 c 128,-1,4
 1270 850 1270 850 1329 874 c 128,-1,5
 1388 898 1388 898 1456 898 c 0,6,7
 1582 898 1582 898 1649 824 c 128,-1,8
 1716 750 1716 750 1694 622 c 0,9,10
 1670 476 1670 476 1500 334 c 0,11,12
 1348 208 1348 208 1284 149 c 128,-1,13
 1220 90 1220 90 1186 32 c 1,14,-1
 1598 32 l 1,15,-1
 1578 -88 l 1,16,-1
 998 -88 l 1,17,18
 1016 26 1016 26 1094 120 c 128,-1,19
 1172 214 1172 214 1408 408 c 0,20,21
 1538 514 1538 514 1556 624 c 0,22,23
 1568 698 1568 698 1536 739 c 128,-1,24
 1504 780 1504 780 1432 780 c 0,25,26
 1296 780 1296 780 1226 600 c 1,27,-1
 1110 634 l 1,0,1
276 1318 m 1,28,-1
 294 1434 l 1,29,-1
 352 1434 l 2,30,31
 446 1434 446 1434 482 1460 c 128,-1,32
 518 1486 518 1486 528 1538 c 2,33,-1
 536 1588 l 1,34,-1
 658 1588 l 1,35,-1
 494 598 l 1,36,-1
 354 598 l 1,37,-1
 474 1318 l 1,38,-1
 276 1318 l 1,28,-1
178 -100 m 1,39,-1
 1384 1562 l 1,40,-1
 1530 1562 l 1,41,-1
 328 -100 l 1,42,-1
 178 -100 l 1,39,-1
EndSplineSet
Ligature2: "'frac' Diagonal Fractions lookup 7 subtable" one fraction two
Ligature2: "'frac' Diagonal Fractions lookup 7 subtable" one slash two
EndChar

StartChar: threequarters
Encoding: 190 190 128
Width: 1874
GlyphClass: 3
Flags: W
LayerCount: 2
Fore
SplineSet
1172 258 m 1,0,-1
 1432 258 l 1,1,-1
 1500 670 l 1,2,-1
 1438 588 l 1,3,-1
 1172 258 l 1,0,-1
334 -100 m 1,4,-1
 1540 1562 l 1,5,-1
 1684 1562 l 1,6,-1
 482 -100 l 1,7,-1
 334 -100 l 1,4,-1
1018 242 m 1,8,-1
 1556 904 l 1,9,-1
 1674 904 l 1,10,-1
 1566 258 l 1,11,-1
 1698 258 l 1,12,-1
 1678 136 l 1,13,-1
 1546 136 l 1,14,-1
 1510 -84 l 1,15,-1
 1374 -84 l 1,16,-1
 1410 136 l 1,17,-1
 1002 136 l 1,18,-1
 1018 242 l 1,8,-1
160 818 m 1,19,-1
 282 864 l 1,20,21
 330 726 330 726 452 726 c 0,22,23
 528 726 528 726 588 771 c 128,-1,24
 648 816 648 816 662 904 c 0,25,26
 676 986 676 986 626 1031 c 128,-1,27
 576 1076 576 1076 494 1076 c 0,28,29
 446 1076 446 1076 402 1072 c 1,30,-1
 422 1196 l 1,31,32
 454 1192 454 1192 508 1192 c 0,33,34
 578 1192 578 1192 632 1233 c 128,-1,35
 686 1274 686 1274 698 1348 c 0,36,37
 708 1414 708 1414 674 1455 c 128,-1,38
 640 1496 640 1496 576 1496 c 0,39,40
 528 1496 528 1496 490 1470 c 128,-1,41
 452 1444 452 1444 432 1418 c 128,-1,42
 412 1392 412 1392 386 1350 c 1,43,-1
 280 1390 l 1,44,45
 392 1616 392 1616 600 1616 c 0,46,47
 730 1616 730 1616 793 1542 c 128,-1,48
 856 1468 856 1468 836 1356 c 0,49,50
 812 1214 812 1214 686 1142 c 1,51,52
 828 1072 828 1072 800 904 c 0,53,54
 776 764 776 764 675 685 c 128,-1,55
 574 606 574 606 432 606 c 0,56,57
 214 606 214 606 160 818 c 1,19,-1
EndSplineSet
Ligature2: "'frac' Diagonal Fractions lookup 7 subtable" three fraction four
Ligature2: "'frac' Diagonal Fractions lookup 7 subtable" three slash four
EndChar

StartChar: questiondown
Encoding: 191 191 129
Width: 1064
GlyphClass: 2
Flags: W
LayerCount: 2
Fore
SplineSet
30 -58 m 0,0,1
 46 34 46 34 92 106 c 128,-1,2
 138 178 138 178 198 227 c 128,-1,3
 258 276 258 276 317 326 c 128,-1,4
 376 376 376 376 423 446 c 128,-1,5
 470 516 470 516 484 604 c 2,6,-1
 492 650 l 1,7,-1
 646 650 l 1,8,-1
 636 594 l 2,9,10
 620 494 620 494 571 416 c 128,-1,11
 522 338 522 338 464 287 c 128,-1,12
 406 236 406 236 348 189 c 128,-1,13
 290 142 290 142 244 78 c 128,-1,14
 198 14 198 14 186 -62 c 0,15,16
 166 -182 166 -182 218 -253 c 128,-1,17
 270 -324 270 -324 384 -324 c 0,18,19
 576 -324 576 -324 708 -90 c 1,20,-1
 836 -138 l 1,21,22
 762 -282 762 -282 636 -370 c 128,-1,23
 510 -458 510 -458 362 -458 c 0,24,25
 180 -458 180 -458 90 -350 c 128,-1,26
 0 -242 0 -242 30 -58 c 0,0,1
480 840 m 1,27,-1
 516 1064 l 1,28,-1
 758 1064 l 1,29,-1
 720 840 l 1,30,-1
 480 840 l 1,27,-1
EndSplineSet
EndChar

StartChar: AE
Encoding: 198 198 136
Width: 1830
GlyphClass: 2
Flags: W
LayerCount: 2
Fore
SplineSet
468 550 m 1,0,-1
 926 550 l 1,1,-1
 1054 1322 l 1,2,-1
 1036 1322 l 1,3,-1
 468 550 l 1,0,-1
-102 0 m 1,4,-1
 982 1470 l 1,5,-1
 1892 1470 l 1,6,-1
 1870 1336 l 1,7,-1
 1208 1336 l 1,8,-1
 1124 826 l 1,9,-1
 1716 826 l 1,10,-1
 1694 694 l 1,11,-1
 1096 694 l 1,12,-1
 1002 134 l 1,13,-1
 1688 134 l 1,14,-1
 1666 0 l 1,15,-1
 836 0 l 1,16,-1
 906 424 l 1,17,-1
 374 424 l 1,18,-1
 70 0 l 1,19,-1
 -102 0 l 1,4,-1
EndSplineSet
EndChar

StartChar: multiply
Encoding: 215 215 153
Width: 1080
GlyphClass: 2
Flags: W
LayerCount: 2
Fore
SplineSet
50 374 m 1,0,-1
 478 728 l 1,1,-1
 168 1084 l 1,2,-1
 274 1176 l 1,3,-1
 582 814 l 1,4,-1
 1010 1176 l 1,5,-1
 1084 1086 l 1,6,-1
 660 728 l 1,7,-1
 966 372 l 1,8,-1
 860 282 l 1,9,-1
 552 642 l 1,10,-1
 126 282 l 1,11,-1
 50 374 l 1,0,-1
EndSplineSet
EndChar

StartChar: Oslash
Encoding: 216 216 154
Width: 1382
GlyphClass: 2
Flags: W
LayerCount: 2
Fore
SplineSet
120 734 m 0,0,1
 178 1080 178 1080 377 1293 c 128,-1,2
 576 1506 576 1506 848 1506 c 0,3,4
 1016 1506 1016 1506 1132 1422 c 1,5,-1
 1242 1588 l 1,6,-1
 1386 1588 l 1,7,-1
 1218 1338 l 1,8,9
 1382 1124 1382 1124 1318 732 c 0,10,11
 1260 378 1260 378 1063 171 c 128,-1,12
 866 -36 866 -36 592 -36 c 0,13,14
 448 -36 448 -36 336 30 c 1,15,-1
 224 -140 l 1,16,-1
 80 -140 l 1,17,-1
 244 104 l 1,18,19
 50 310 50 310 120 734 c 0,0,1
1122 1196 m 1,20,-1
 422 156 l 1,21,22
 502 100 502 100 616 100 c 0,23,24
 818 100 818 100 965 269 c 128,-1,25
 1112 438 1112 438 1160 732 c 0,26,27
 1208 1022 1208 1022 1122 1196 c 1,20,-1
1046 1296 m 1,28,29
 960 1372 960 1372 826 1372 c 0,30,31
 622 1372 622 1372 474 1199 c 128,-1,32
 326 1026 326 1026 278 734 c 0,33,34
 226 414 226 414 338 244 c 1,35,-1
 1046 1296 l 1,28,29
EndSplineSet
EndChar

StartChar: Thorn
Encoding: 222 222 160
Width: 1156
GlyphClass: 2
Flags: W
LayerCount: 2
Fore
SplineSet
92 0 m 1,0,-1
 334 1470 l 1,1,-1
 490 1470 l 1,2,-1
 450 1224 l 1,3,-1
 682 1224 l 2,4,5
 940 1224 940 1224 1044 1098 c 128,-1,6
 1148 972 1148 972 1114 764 c 0,7,8
 1074 528 1074 528 911 412 c 128,-1,9
 748 296 748 296 512 296 c 2,10,-1
 296 296 l 1,11,-1
 246 0 l 1,12,-1
 92 0 l 1,0,-1
318 430 m 1,13,-1
 520 430 l 2,14,15
 900 430 900 430 956 764 c 0,16,17
 1010 1094 1010 1094 648 1094 c 2,18,-1
 428 1094 l 1,19,-1
 318 430 l 1,13,-1
EndSplineSet
EndChar

StartChar: germandbls
Encoding: 223 223 161
Width: 1226
GlyphClass: 2
Flags: W
LayerCount: 2
Fore
SplineSet
92 0 m 1,0,-1
 274 1104 l 2,1,2
 306 1296 306 1296 443 1401 c 128,-1,3
 580 1506 580 1506 758 1506 c 0,4,5
 946 1506 946 1506 1044 1398 c 128,-1,6
 1142 1290 1142 1290 1112 1110 c 0,7,8
 1092 988 1092 988 1030 905 c 128,-1,9
 968 822 968 822 890 782 c 1,10,-1
 890 778 l 1,11,12
 1000 742 1000 742 1066 644 c 128,-1,13
 1132 546 1132 546 1104 378 c 0,14,15
 1074 194 1074 194 945 79 c 128,-1,16
 816 -36 816 -36 626 -36 c 0,17,18
 486 -36 486 -36 366 8 c 1,19,-1
 400 146 l 1,20,21
 504 100 504 100 644 100 c 0,22,23
 754 100 754 100 844 178 c 128,-1,24
 934 256 934 256 954 378 c 0,25,26
 980 534 980 534 906 614 c 128,-1,27
 832 694 832 694 694 694 c 2,28,-1
 574 694 l 1,29,-1
 596 826 l 1,30,-1
 702 826 l 2,31,32
 796 826 796 826 867 904 c 128,-1,33
 938 982 938 982 958 1102 c 0,34,35
 978 1218 978 1218 919 1295 c 128,-1,36
 860 1372 860 1372 738 1372 c 0,37,38
 612 1372 612 1372 527 1298 c 128,-1,39
 442 1224 442 1224 422 1096 c 2,40,-1
 240 0 l 1,41,-1
 92 0 l 1,0,-1
EndSplineSet
EndChar

StartChar: ae
Encoding: 230 230 168
Width: 1712
GlyphClass: 2
Flags: W
LayerCount: 2
Fore
SplineSet
24 262 m 0,0,1
 72 556 72 556 514 624 c 0,2,3
 744 666 744 666 782 680 c 0,4,5
 782 686 782 686 785 710 c 128,-1,6
 788 734 788 734 790 740 c 0,7,8
 806 832 806 832 753 900 c 128,-1,9
 700 968 700 968 582 968 c 0,10,11
 388 968 388 968 230 804 c 1,12,-1
 152 888 l 1,13,14
 242 980 242 980 359 1036 c 128,-1,15
 476 1092 476 1092 602 1092 c 0,16,17
 860 1092 860 1092 906 866 c 1,18,19
 974 970 974 970 1075 1031 c 128,-1,20
 1176 1092 1176 1092 1294 1092 c 0,21,22
 1490 1092 1490 1092 1582 940 c 128,-1,23
 1674 788 1674 788 1636 558 c 2,24,-1
 1622 478 l 1,25,-1
 892 478 l 1,26,-1
 886 438 l 1,27,28
 876 298 876 298 936 195 c 128,-1,29
 996 92 996 92 1130 92 c 0,30,31
 1228 92 1228 92 1310 143 c 128,-1,32
 1392 194 1392 194 1444 268 c 1,33,-1
 1558 230 l 1,34,35
 1486 110 1486 110 1372 37 c 128,-1,36
 1258 -36 1258 -36 1108 -36 c 0,37,38
 976 -36 976 -36 891 38 c 128,-1,39
 806 112 806 112 774 238 c 1,40,41
 600 -36 600 -36 326 -36 c 0,42,43
 164 -36 164 -36 83 45 c 128,-1,44
 2 126 2 126 24 262 c 0,0,1
170 270 m 0,45,46
 158 194 158 194 208 143 c 128,-1,47
 258 92 258 92 362 92 c 0,48,49
 494 92 494 92 603 182 c 128,-1,50
 712 272 712 272 736 414 c 2,51,-1
 760 560 l 1,52,53
 690 542 690 542 500 510 c 0,54,55
 202 462 202 462 170 270 c 0,45,46
912 594 m 1,56,-1
 1498 594 l 1,57,58
 1524 750 1524 750 1461 857 c 128,-1,59
 1398 964 1398 964 1274 964 c 256,60,61
 1150 964 1150 964 1057 867 c 128,-1,62
 964 770 964 770 922 628 c 2,63,-1
 912 594 l 1,56,-1
EndSplineSet
EndChar

StartChar: eth
Encoding: 240 240 178
Width: 1052
GlyphClass: 2
Flags: W
LayerCount: 2
Fore
SplineSet
62 474 m 0,0,1
 102 712 102 712 248 851 c 128,-1,2
 394 990 394 990 592 990 c 0,3,4
 696 990 696 990 764 939 c 128,-1,5
 832 888 832 888 856 818 c 1,6,7
 846 1096 846 1096 720 1246 c 1,8,-1
 456 1068 l 1,9,-1
 388 1164 l 1,10,-1
 630 1326 l 1,11,12
 542 1386 542 1386 418 1408 c 1,13,-1
 486 1526 l 1,14,15
 622 1504 622 1504 724 1440 c 0,16,17
 742 1428 742 1428 760 1416 c 1,18,-1
 982 1566 l 1,19,-1
 1048 1468 l 1,20,-1
 848 1332 l 1,21,22
 874 1300 874 1300 900 1262 c 0,23,24
 972 1148 972 1148 991 962 c 128,-1,25
 1010 776 1010 776 970 528 c 256,26,27
 928 280 928 280 784 122 c 128,-1,28
 640 -36 640 -36 424 -36 c 0,29,30
 220 -36 220 -36 123 111 c 128,-1,31
 26 258 26 258 62 474 c 0,0,1
208 480 m 0,32,33
 180 310 180 310 244 201 c 128,-1,34
 308 92 308 92 448 92 c 0,35,36
 580 92 580 92 679 198 c 128,-1,37
 778 304 778 304 808 482 c 0,38,39
 836 654 836 654 771 757 c 128,-1,40
 706 860 706 860 578 860 c 0,41,42
 446 860 446 860 342 760 c 128,-1,43
 238 660 238 660 208 480 c 0,32,33
EndSplineSet
EndChar

StartChar: divide
Encoding: 247 247 185
Width: 1084
GlyphClass: 2
Flags: W
LayerCount: 2
Fore
SplineSet
506 992 m 1,0,-1
 540 1204 l 1,1,-1
 756 1204 l 1,2,-1
 722 992 l 1,3,-1
 506 992 l 1,0,-1
64 662 m 1,4,-1
 86 794 l 1,5,-1
 1072 794 l 1,6,-1
 1050 662 l 1,7,-1
 64 662 l 1,4,-1
382 252 m 1,8,-1
 418 466 l 1,9,-1
 634 466 l 1,10,-1
 598 252 l 1,11,-1
 382 252 l 1,8,-1
EndSplineSet
EndChar

StartChar: oslash
Encoding: 248 248 186
Width: 1054
GlyphClass: 2
Flags: W
LayerCount: 2
Fore
SplineSet
72 528 m 0,0,1
 112 770 112 770 257 931 c 128,-1,2
 402 1092 402 1092 616 1092 c 0,3,4
 734 1092 734 1092 814 1038 c 1,5,-1
 906 1180 l 1,6,-1
 1026 1180 l 1,7,-1
 890 970 l 1,8,9
 1016 814 1016 814 970 528 c 0,10,11
 954 426 954 426 913 330 c 128,-1,12
 872 234 872 234 807 150 c 128,-1,13
 742 66 742 66 643 15 c 128,-1,14
 544 -36 544 -36 428 -36 c 0,15,16
 324 -36 324 -36 244 8 c 1,17,-1
 158 -122 l 1,18,-1
 38 -122 l 1,19,-1
 162 70 l 1,20,21
 94 148 94 148 72 270 c 128,-1,22
 50 392 50 392 72 528 c 0,0,1
798 832 m 1,23,-1
 324 130 l 1,24,25
 378 92 378 92 450 92 c 0,26,27
 578 92 578 92 686 210 c 128,-1,28
 794 328 794 328 826 528 c 0,29,30
 856 714 856 714 798 832 c 1,23,-1
732 914 m 1,31,32
 674 964 674 964 594 964 c 0,33,34
 464 964 464 964 357 848 c 128,-1,35
 250 732 250 732 216 528 c 0,36,37
 182 328 182 328 252 206 c 1,38,-1
 732 914 l 1,31,32
EndSplineSet
EndChar

StartChar: thorn
Encoding: 254 254 192
Width: 1102
GlyphClass: 2
Flags: W
LayerCount: 2
Fore
SplineSet
290 528 m 256,0,1
 258 332 258 332 321 212 c 128,-1,2
 384 92 384 92 502 92 c 0,3,4
 640 92 640 92 740 209 c 128,-1,5
 840 326 840 326 874 528 c 256,6,7
 908 730 908 730 847 847 c 128,-1,8
 786 964 786 964 648 964 c 0,9,10
 534 964 534 964 428 844 c 128,-1,11
 322 724 322 724 290 528 c 256,0,1
-12 -462 m 1,12,-1
 316 1524 l 1,13,-1
 460 1524 l 1,14,-1
 350 864 l 1,15,16
 396 964 396 964 497 1028 c 128,-1,17
 598 1092 598 1092 686 1092 c 0,18,19
 882 1092 882 1092 972 940 c 128,-1,20
 1062 788 1062 788 1018 528 c 0,21,22
 972 250 972 250 822 107 c 128,-1,23
 672 -36 672 -36 498 -36 c 0,24,25
 394 -36 394 -36 325 32 c 128,-1,26
 256 100 256 100 238 186 c 1,27,-1
 130 -462 l 1,28,-1
 -12 -462 l 1,12,-1
EndSplineSet
EndChar

StartChar: dcroat
Encoding: 273 273 211
Width: 1102
GlyphClass: 2
Flags: W
LayerCount: 2
Fore
SplineSet
72 530 m 0,0,1
 116 792 116 792 260 942 c 128,-1,2
 404 1092 404 1092 586 1092 c 0,3,4
 696 1092 696 1092 765 1026 c 128,-1,5
 834 960 834 960 852 872 c 1,6,-1
 914 1244 l 1,7,-1
 504 1244 l 1,8,-1
 522 1358 l 1,9,-1
 934 1358 l 1,10,-1
 960 1524 l 1,11,-1
 1102 1524 l 1,12,-1
 1074 1358 l 1,13,-1
 1208 1358 l 1,14,-1
 1188 1244 l 1,15,-1
 1056 1244 l 1,16,-1
 850 0 l 1,17,-1
 712 0 l 1,18,-1
 744 190 l 1,19,20
 684 88 684 88 596 26 c 128,-1,21
 508 -36 508 -36 398 -36 c 0,22,23
 230 -36 230 -36 128 108 c 128,-1,24
 26 252 26 252 72 530 c 0,0,1
216 530 m 0,25,26
 184 332 184 332 246 212 c 128,-1,27
 308 92 308 92 438 92 c 0,28,29
 562 92 562 92 665 213 c 128,-1,30
 768 334 768 334 800 530 c 0,31,32
 832 718 832 718 770 841 c 128,-1,33
 708 964 708 964 582 964 c 0,34,35
 450 964 450 964 349 845 c 128,-1,36
 248 726 248 726 216 530 c 0,25,26
EndSplineSet
EndChar

StartChar: uni0123
Encoding: 291 291 229
Width: 1072
GlyphClass: 2
Flags: W
LayerCount: 2
Fore
SplineSet
532 1258 m 1,0,-1
 750 1616 l 1,1,-1
 852 1616 l 1,2,-1
 700 1258 l 1,3,-1
 532 1258 l 1,0,-1
220 548 m 0,4,5
 188 358 188 358 248 245 c 128,-1,6
 308 132 308 132 430 132 c 0,7,8
 562 132 562 132 656 242 c 128,-1,9
 750 352 750 352 782 550 c 0,10,11
 814 744 814 744 756 854 c 128,-1,12
 698 964 698 964 570 964 c 0,13,14
 444 964 444 964 347 848 c 128,-1,15
 250 732 250 732 220 548 c 0,4,5
74 546 m 0,16,17
 114 788 114 788 255 940 c 128,-1,18
 396 1092 396 1092 574 1092 c 0,19,20
 694 1092 694 1092 757 1029 c 128,-1,21
 820 966 820 966 838 884 c 1,22,-1
 866 1056 l 1,23,-1
 1008 1056 l 1,24,-1
 852 124 l 2,25,26
 802 -176 802 -176 677 -323 c 128,-1,27
 552 -470 552 -470 326 -470 c 0,28,29
 84 -470 84 -470 -10 -276 c 1,30,-1
 100 -208 l 1,31,32
 192 -346 192 -346 352 -346 c 0,33,34
 492 -346 492 -346 578 -239 c 128,-1,35
 664 -132 664 -132 698 48 c 0,36,37
 710 108 710 108 726 206 c 1,38,39
 672 116 672 116 588 60 c 128,-1,40
 504 4 504 4 398 4 c 0,41,42
 214 4 214 4 124 155 c 128,-1,43
 34 306 34 306 74 546 c 0,16,17
EndSplineSet
EndChar

StartChar: Hbar
Encoding: 294 294 232
Width: 1410
GlyphClass: 2
Flags: W
LayerCount: 2
Fore
SplineSet
124 1130 m 1,0,-1
 144 1254 l 1,1,-1
 312 1254 l 1,2,-1
 346 1470 l 1,3,-1
 502 1470 l 1,4,-1
 466 1254 l 1,5,-1
 1174 1254 l 1,6,-1
 1210 1470 l 1,7,-1
 1362 1470 l 1,8,-1
 1326 1254 l 1,9,-1
 1494 1254 l 1,10,-1
 1474 1130 l 1,11,-1
 1306 1130 l 1,12,-1
 1118 0 l 1,13,-1
 966 0 l 1,14,-1
 1080 690 l 1,15,-1
 372 690 l 1,16,-1
 258 0 l 1,17,-1
 104 0 l 1,18,-1
 290 1130 l 1,19,-1
 124 1130 l 1,0,-1
1154 1130 m 1,20,-1
 446 1130 l 1,21,-1
 394 822 l 1,22,-1
 1102 822 l 1,23,-1
 1154 1130 l 1,20,-1
EndSplineSet
EndChar

StartChar: hbar
Encoding: 295 295 233
Width: 1068
GlyphClass: 2
Flags: W
LayerCount: 2
Fore
SplineSet
132 1248 m 1,0,-1
 152 1364 l 1,1,-1
 288 1364 l 1,2,-1
 316 1524 l 1,3,-1
 458 1524 l 1,4,-1
 432 1364 l 1,5,-1
 822 1364 l 1,6,-1
 804 1248 l 1,7,-1
 412 1248 l 1,8,-1
 348 860 l 1,9,-1
 350 860 l 1,10,11
 398 938 398 938 491 1001 c 128,-1,12
 584 1064 584 1064 690 1064 c 0,13,14
 744 1064 744 1064 793 1047 c 128,-1,15
 842 1030 842 1030 889 989 c 128,-1,16
 936 948 936 948 954 863 c 128,-1,17
 972 778 972 778 952 656 c 2,18,-1
 842 0 l 1,19,-1
 700 0 l 1,20,-1
 804 632 l 2,21,22
 828 772 828 772 796 854 c 128,-1,23
 764 936 764 936 644 936 c 0,24,25
 530 936 530 936 428 834 c 128,-1,26
 326 732 326 732 306 600 c 2,27,-1
 206 0 l 1,28,-1
 62 0 l 1,29,-1
 270 1248 l 1,30,-1
 132 1248 l 1,0,-1
EndSplineSet
EndChar

StartChar: dotlessi
Encoding: 305 305 243
Width: 454
GlyphClass: 2
Flags: W
LayerCount: 2
Fore
SplineSet
62 0 m 1,0,-1
 238 1056 l 1,1,-1
 380 1056 l 1,2,-1
 206 0 l 1,3,-1
 62 0 l 1,0,-1
EndSplineSet
EndChar

StartChar: kgreenlandic
Encoding: 312 312 250
Width: 958
GlyphClass: 2
Flags: W
LayerCount: 2
Fore
SplineSet
58 0 m 1,0,-1
 232 1056 l 1,1,-1
 374 1056 l 1,2,-1
 298 590 l 1,3,-1
 302 590 l 1,4,-1
 850 1056 l 1,5,-1
 1034 1056 l 1,6,-1
 448 556 l 1,7,-1
 876 0 l 1,8,-1
 700 0 l 1,9,-1
 336 448 l 1,10,-1
 264 384 l 1,11,-1
 200 0 l 1,12,-1
 58 0 l 1,0,-1
EndSplineSet
EndChar

StartChar: Lslash
Encoding: 321 321 259
Width: 1058
GlyphClass: 2
Flags: W
LayerCount: 2
Fore
SplineSet
380 694 m 1,0,-1
 288 134 l 1,1,-1
 972 134 l 1,2,-1
 950 0 l 1,3,-1
 110 0 l 1,4,-1
 210 594 l 1,5,-1
 -14 458 l 1,6,-1
 -66 570 l 1,7,-1
 236 754 l 1,8,-1
 354 1470 l 1,9,-1
 510 1470 l 1,10,-1
 406 852 l 1,11,-1
 624 986 l 1,12,-1
 676 874 l 1,13,-1
 380 694 l 1,0,-1
EndSplineSet
EndChar

StartChar: lslash
Encoding: 322 322 260
Width: 488
GlyphClass: 2
Flags: W
LayerCount: 2
Fore
SplineSet
344 726 m 1,0,-1
 224 0 l 1,1,-1
 80 0 l 1,2,-1
 184 630 l 1,3,-1
 -16 508 l 1,4,-1
 -66 622 l 1,5,-1
 212 790 l 1,6,-1
 332 1524 l 1,7,-1
 476 1524 l 1,8,-1
 370 890 l 1,9,-1
 568 1008 l 1,10,-1
 616 894 l 1,11,-1
 344 726 l 1,0,-1
EndSplineSet
EndChar

StartChar: Eng
Encoding: 330 330 268
Width: 1396
GlyphClass: 2
Flags: W
LayerCount: 2
Fore
SplineSet
92 0 m 1,0,-1
 334 1470 l 1,1,-1
 512 1470 l 1,2,-1
 936 418 l 1,3,-1
 1008 222 l 1,4,-1
 1020 222 l 1,5,6
 1032 410 1032 410 1068 626 c 2,7,-1
 1208 1470 l 1,8,-1
 1360 1470 l 1,9,-1
 1120 18 l 2,10,11
 1040 -470 1040 -470 670 -470 c 0,12,13
 588 -470 588 -470 476 -454 c 1,14,-1
 496 -324 l 1,15,16
 584 -338 584 -338 664 -338 c 0,17,18
 788 -338 788 -338 847 -259 c 128,-1,19
 906 -180 906 -180 940 0 c 1,20,-1
 522 1044 l 1,21,-1
 442 1246 l 1,22,-1
 434 1246 l 1,23,24
 422 1054 422 1054 394 890 c 2,25,-1
 246 0 l 1,26,-1
 92 0 l 1,0,-1
EndSplineSet
EndChar

StartChar: eng
Encoding: 331 331 269
Width: 1052
GlyphClass: 2
Flags: W
LayerCount: 2
Fore
SplineSet
50 0 m 1,0,-1
 224 1056 l 1,1,-1
 362 1056 l 1,2,-1
 332 876 l 1,3,-1
 334 876 l 1,4,5
 372 954 372 954 468 1023 c 128,-1,6
 564 1092 564 1092 688 1092 c 0,7,8
 826 1092 826 1092 902 999 c 128,-1,9
 978 906 978 906 940 682 c 2,10,-1
 830 18 l 2,11,12
 788 -234 788 -234 678 -352 c 128,-1,13
 568 -470 568 -470 416 -470 c 0,14,15
 370 -470 370 -470 248 -452 c 1,16,-1
 268 -322 l 1,17,18
 364 -338 364 -338 418 -338 c 0,19,20
 532 -338 532 -338 594 -254 c 128,-1,21
 656 -170 656 -170 684 0 c 2,22,-1
 794 658 l 2,23,24
 844 964 844 964 636 964 c 0,25,26
 520 964 520 964 419 865 c 128,-1,27
 318 766 318 766 296 630 c 2,28,-1
 190 0 l 1,29,-1
 50 0 l 1,0,-1
EndSplineSet
EndChar

StartChar: OE
Encoding: 338 338 276
Width: 1856
GlyphClass: 2
Flags: W
LayerCount: 2
Fore
SplineSet
120 734 m 0,0,1
 178 1086 178 1086 387 1296 c 128,-1,2
 596 1506 596 1506 868 1506 c 0,3,4
 984 1506 984 1506 1066 1470 c 1,5,-1
 1918 1470 l 1,6,-1
 1896 1336 l 1,7,-1
 1192 1336 l 1,8,-1
 1108 826 l 1,9,-1
 1738 826 l 1,10,-1
 1716 694 l 1,11,-1
 1086 694 l 1,12,-1
 994 134 l 1,13,-1
 1714 134 l 1,14,-1
 1692 0 l 1,15,-1
 826 0 l 1,16,17
 728 -36 728 -36 612 -36 c 0,18,19
 336 -36 336 -36 199 172 c 128,-1,20
 62 380 62 380 120 734 c 0,0,1
278 734 m 0,21,22
 230 442 230 442 330 270 c 128,-1,23
 430 98 430 98 634 98 c 0,24,25
 754 98 754 98 842 154 c 1,26,-1
 1034 1312 l 1,27,28
 962 1372 962 1372 846 1372 c 0,29,30
 636 1372 636 1372 481 1197 c 128,-1,31
 326 1022 326 1022 278 734 c 0,21,22
EndSplineSet
EndChar

StartChar: uni0163
Encoding: 355 355 293
Width: 674
GlyphClass: 2
Flags: W
LayerCount: 2
Fore
SplineSet
96 928 m 1,0,-1
 118 1056 l 1,1,-1
 292 1056 l 1,2,-1
 348 1396 l 1,3,-1
 490 1396 l 1,4,-1
 434 1056 l 1,5,-1
 698 1056 l 1,6,-1
 676 928 l 1,7,-1
 412 928 l 1,8,-1
 310 310 l 2,9,10
 294 214 294 214 324 172 c 128,-1,11
 354 130 354 130 432 130 c 2,12,-1
 546 130 l 1,13,-1
 526 0 l 1,14,-1
 392 0 l 2,15,16
 390 0 l 1,17,-1
 354 -82 l 1,18,19
 434 -96 434 -96 474 -140 c 128,-1,20
 514 -184 514 -184 502 -254 c 0,21,22
 490 -332 490 -332 421 -385 c 128,-1,23
 352 -438 352 -438 230 -438 c 0,24,25
 140 -438 140 -438 72 -418 c 1,26,-1
 88 -320 l 1,27,28
 162 -340 162 -340 244 -340 c 0,29,30
 298 -340 298 -340 339 -315 c 128,-1,31
 380 -290 380 -290 386 -246 c 0,32,33
 400 -156 400 -156 202 -142 c 1,34,-1
 268 22 l 1,35,36
 130 80 130 80 166 296 c 2,37,-1
 270 928 l 1,38,-1
 96 928 l 1,0,-1
EndSplineSet
Substitution2: "'locl' Localized Forms in Latin lookup 3 subtable" uni021B
Substitution2: "'locl' Localized Forms in Latin lookup 2 subtable" uni021B
Substitution2: "'aalt' Access All Alternates lookup 0 subtable" uni021B
EndChar

StartChar: tbar
Encoding: 359 359 297
Width: 674
GlyphClass: 2
Flags: W
LayerCount: 2
Fore
SplineSet
96 928 m 1,0,-1
 118 1056 l 1,1,-1
 292 1056 l 1,2,-1
 350 1396 l 1,3,-1
 490 1396 l 1,4,-1
 434 1056 l 1,5,-1
 700 1056 l 1,6,-1
 678 928 l 1,7,-1
 412 928 l 1,8,-1
 376 704 l 1,9,-1
 654 704 l 1,10,-1
 634 578 l 1,11,-1
 354 578 l 1,12,-1
 310 310 l 2,13,14
 294 214 294 214 324 172 c 128,-1,15
 354 130 354 130 432 130 c 2,16,-1
 548 130 l 1,17,-1
 526 0 l 1,18,-1
 392 0 l 2,19,20
 118 0 118 0 168 296 c 2,21,-1
 214 578 l 1,22,-1
 20 578 l 1,23,-1
 40 704 l 1,24,-1
 234 704 l 1,25,-1
 272 928 l 1,26,-1
 96 928 l 1,0,-1
EndSplineSet
EndChar

StartChar: longs
Encoding: 383 383 321
Width: 566
GlyphClass: 2
Flags: W
LayerCount: 2
Fore
SplineSet
66 0 m 1,0,-1
 268 1216 l 2,1,2
 294 1374 294 1374 380 1449 c 128,-1,3
 466 1524 466 1524 596 1524 c 2,4,-1
 714 1524 l 1,5,-1
 694 1398 l 1,6,-1
 598 1398 l 2,7,8
 440 1398 440 1398 408 1198 c 2,9,-1
 210 0 l 1,10,-1
 66 0 l 1,0,-1
EndSplineSet
EndChar

StartChar: uni0180
Encoding: 384 384 322
Width: 1102
GlyphClass: 2
Flags: W
LayerCount: 2
Fore
SplineSet
290 528 m 256,0,1
 258 330 258 330 322 211 c 128,-1,2
 386 92 386 92 508 92 c 0,3,4
 640 92 640 92 740 209 c 128,-1,5
 840 326 840 326 874 528 c 0,6,7
 906 726 906 726 846 845 c 128,-1,8
 786 964 786 964 654 964 c 0,9,10
 532 964 532 964 427 845 c 128,-1,11
 322 726 322 726 290 528 c 256,0,1
140 1246 m 1,12,-1
 160 1364 l 1,13,-1
 290 1364 l 1,14,-1
 316 1524 l 1,15,-1
 460 1524 l 1,16,-1
 434 1364 l 1,17,-1
 826 1364 l 1,18,-1
 806 1246 l 1,19,-1
 414 1246 l 1,20,-1
 350 866 l 1,21,22
 390 948 390 948 484 1020 c 128,-1,23
 578 1092 578 1092 694 1092 c 0,24,25
 882 1092 882 1092 972 940 c 128,-1,26
 1062 788 1062 788 1018 528 c 0,27,28
 994 382 994 382 937 270 c 128,-1,29
 880 158 880 158 807 94 c 128,-1,30
 734 30 734 30 657 -3 c 128,-1,31
 580 -36 580 -36 506 -36 c 0,32,33
 396 -36 396 -36 327 30 c 128,-1,34
 258 96 258 96 236 188 c 1,35,-1
 206 0 l 1,36,-1
 64 0 l 1,37,-1
 270 1246 l 1,38,-1
 140 1246 l 1,12,-1
EndSplineSet
EndChar

StartChar: uni0182
Encoding: 386 386 324
Width: 1264
GlyphClass: 2
Flags: W
LayerCount: 2
Fore
SplineSet
268 134 m 1,0,-1
 650 134 l 2,1,2
 786 134 786 134 883 205 c 128,-1,3
 980 276 980 276 1002 412 c 0,4,5
 1022 538 1022 538 950 618 c 128,-1,6
 878 698 878 698 736 698 c 2,7,-1
 362 698 l 1,8,-1
 268 134 l 1,0,-1
92 0 m 1,9,-1
 334 1470 l 1,10,-1
 1170 1470 l 1,11,-1
 1148 1336 l 1,12,-1
 468 1336 l 1,13,-1
 384 830 l 1,14,-1
 774 830 l 2,15,16
 984 830 984 830 1087 713 c 128,-1,17
 1190 596 1190 596 1160 412 c 0,18,19
 1130 234 1130 234 992 117 c 128,-1,20
 854 0 854 0 654 0 c 2,21,-1
 92 0 l 1,9,-1
EndSplineSet
EndChar

StartChar: uni0183
Encoding: 387 387 325
Width: 1098
GlyphClass: 2
Flags: W
LayerCount: 2
Fore
SplineSet
286 528 m 0,0,1
 252 328 252 328 316 210 c 128,-1,2
 380 92 380 92 502 92 c 0,3,4
 634 92 634 92 735 209 c 128,-1,5
 836 326 836 326 868 528 c 0,6,7
 902 728 902 728 841 846 c 128,-1,8
 780 964 780 964 648 964 c 0,9,10
 526 964 526 964 422 845 c 128,-1,11
 318 726 318 726 286 528 c 0,0,1
58 0 m 1,12,-1
 312 1524 l 1,13,-1
 990 1524 l 1,14,-1
 970 1400 l 1,15,-1
 434 1400 l 1,16,-1
 346 868 l 1,17,18
 378 940 378 940 475 1016 c 128,-1,19
 572 1092 572 1092 688 1092 c 0,20,21
 874 1092 874 1092 965 940 c 128,-1,22
 1056 788 1056 788 1014 528 c 0,23,24
 990 382 990 382 932 270 c 128,-1,25
 874 158 874 158 802 94 c 128,-1,26
 730 30 730 30 653 -3 c 128,-1,27
 576 -36 576 -36 502 -36 c 0,28,29
 392 -36 392 -36 321 30 c 128,-1,30
 250 96 250 96 232 188 c 1,31,-1
 200 0 l 1,32,-1
 58 0 l 1,12,-1
EndSplineSet
EndChar

StartChar: uni0184
Encoding: 388 388 326
Width: 1288
GlyphClass: 2
Flags: W
LayerCount: 2
Fore
SplineSet
174 1350 m 1,0,-1
 404 1470 l 1,1,-1
 500 1470 l 1,2,-1
 394 822 l 1,3,-1
 796 822 l 2,4,5
 1008 822 1008 822 1111 707 c 128,-1,6
 1214 592 1214 592 1184 412 c 0,7,8
 1156 248 1156 248 1021 124 c 128,-1,9
 886 0 886 0 692 0 c 2,10,-1
 102 0 l 1,11,-1
 306 1228 l 1,12,-1
 174 1350 l 1,0,-1
280 134 m 1,13,-1
 680 134 l 2,14,15
 806 134 806 134 906 207 c 128,-1,16
 1006 280 1006 280 1026 410 c 0,17,18
 1046 528 1046 528 976 610 c 128,-1,19
 906 692 906 692 766 692 c 2,20,-1
 372 692 l 1,21,-1
 280 134 l 1,13,-1
EndSplineSet
EndChar

StartChar: uni0185
Encoding: 389 389 327
Width: 1104
GlyphClass: 2
Flags: W
LayerCount: 2
Fore
SplineSet
156 1400 m 1,0,-1
 382 1524 l 1,1,-1
 460 1524 l 1,2,-1
 352 870 l 1,3,4
 416 984 416 984 515 1038 c 128,-1,5
 614 1092 614 1092 694 1092 c 0,6,7
 882 1092 882 1092 972 940 c 128,-1,8
 1062 788 1062 788 1020 528 c 0,9,10
 996 384 996 384 939 272 c 128,-1,11
 882 160 882 160 810 95 c 128,-1,12
 738 30 738 30 660 -3 c 128,-1,13
 582 -36 582 -36 506 -36 c 0,14,15
 398 -36 398 -36 329 29 c 128,-1,16
 260 94 260 94 236 188 c 1,17,-1
 206 0 l 1,18,-1
 64 0 l 1,19,-1
 276 1280 l 1,20,-1
 156 1400 l 1,0,-1
292 528 m 0,21,22
 258 328 258 328 322 210 c 128,-1,23
 386 92 386 92 508 92 c 0,24,25
 640 92 640 92 741 209 c 128,-1,26
 842 326 842 326 874 528 c 0,27,28
 906 724 906 724 847 844 c 128,-1,29
 788 964 788 964 654 964 c 0,30,31
 532 964 532 964 428 845 c 128,-1,32
 324 726 324 726 292 528 c 0,21,22
EndSplineSet
EndChar

StartChar: uni0186
Encoding: 390 390 328
Width: 1262
GlyphClass: 2
Flags: W
LayerCount: 2
Fore
SplineSet
4 310 m 1,0,-1
 152 356 l 1,1,2
 184 248 184 248 267 174 c 128,-1,3
 350 100 350 100 480 100 c 0,4,5
 684 100 684 100 837 270 c 128,-1,6
 990 440 990 440 1040 734 c 0,7,8
 1088 1024 1088 1024 993 1198 c 128,-1,9
 898 1372 898 1372 690 1372 c 0,10,11
 480 1372 480 1372 312 1136 c 1,12,-1
 188 1184 l 1,13,14
 270 1314 270 1314 405 1410 c 128,-1,15
 540 1506 540 1506 710 1506 c 0,16,17
 982 1506 982 1506 1120 1300 c 128,-1,18
 1258 1094 1258 1094 1198 734 c 256,19,20
 1138 374 1138 374 932 169 c 128,-1,21
 726 -36 726 -36 454 -36 c 0,22,23
 264 -36 264 -36 155 66 c 128,-1,24
 46 168 46 168 4 310 c 1,0,-1
EndSplineSet
EndChar

StartChar: uni018B
Encoding: 395 395 333
Width: 1264
GlyphClass: 2
Flags: W
LayerCount: 2
Fore
SplineSet
212 412 m 0,0,1
 190 278 190 278 262 206 c 128,-1,2
 334 134 334 134 468 134 c 2,3,-1
 854 134 l 1,4,-1
 946 698 l 1,5,-1
 576 698 l 2,6,7
 434 698 434 698 334 619 c 128,-1,8
 234 540 234 540 212 412 c 0,0,1
52 412 m 0,9,10
 82 596 82 596 225 713 c 128,-1,11
 368 830 368 830 580 830 c 2,12,-1
 968 830 l 1,13,-1
 1052 1336 l 1,14,-1
 372 1336 l 1,15,-1
 394 1470 l 1,16,-1
 1228 1470 l 1,17,-1
 984 0 l 1,18,-1
 420 0 l 2,19,20
 224 0 224 0 123 117 c 128,-1,21
 22 234 22 234 52 412 c 0,9,10
EndSplineSet
EndChar

StartChar: uni018C
Encoding: 396 396 334
Width: 1098
GlyphClass: 2
Flags: W
LayerCount: 2
Fore
SplineSet
216 528 m 0,0,1
 182 326 182 326 246 209 c 128,-1,2
 310 92 310 92 438 92 c 0,3,4
 562 92 562 92 664 211 c 128,-1,5
 766 330 766 330 800 528 c 256,6,7
 832 726 832 726 767 845 c 128,-1,8
 702 964 702 964 582 964 c 0,9,10
 450 964 450 964 350 846 c 128,-1,11
 250 728 250 728 216 528 c 0,0,1
72 528 m 0,12,13
 114 786 114 786 259 939 c 128,-1,14
 404 1092 404 1092 586 1092 c 0,15,16
 704 1092 704 1092 772 1019 c 128,-1,17
 840 946 840 946 852 872 c 1,18,-1
 940 1400 l 1,19,-1
 394 1400 l 1,20,-1
 414 1524 l 1,21,-1
 1102 1524 l 1,22,-1
 850 0 l 1,23,-1
 712 0 l 1,24,-1
 744 190 l 1,25,26
 690 98 690 98 600 31 c 128,-1,27
 510 -36 510 -36 398 -36 c 0,28,29
 322 -36 322 -36 255 -3 c 128,-1,30
 188 30 188 30 136 94 c 128,-1,31
 84 158 84 158 66 270 c 128,-1,32
 48 382 48 382 72 528 c 0,12,13
EndSplineSet
EndChar

StartChar: uni018D
Encoding: 397 397 335
Width: 1148
GlyphClass: 2
Flags: W
LayerCount: 2
Fore
SplineSet
234 634 m 0,0,1
 212 500 212 500 303 386 c 128,-1,2
 394 272 394 272 528 212 c 1,3,4
 690 282 690 282 803 396 c 128,-1,5
 916 510 916 510 938 634 c 0,6,7
 960 772 960 772 886 868 c 128,-1,8
 812 964 812 964 646 964 c 0,9,10
 488 964 488 964 373 873 c 128,-1,11
 258 782 258 782 234 634 c 0,0,1
88 628 m 0,12,13
 124 844 124 844 282 968 c 128,-1,14
 440 1092 440 1092 670 1092 c 0,15,16
 896 1092 896 1092 1006 963 c 128,-1,17
 1116 834 1116 834 1084 640 c 0,18,19
 1062 504 1062 504 942 368 c 128,-1,20
 822 232 822 232 638 144 c 1,21,22
 844 8 844 8 818 -146 c 0,23,24
 796 -280 796 -280 678 -365 c 128,-1,25
 560 -450 560 -450 380 -450 c 0,26,27
 104 -450 104 -450 2 -222 c 1,28,-1
 120 -154 l 1,29,30
 152 -220 152 -220 224 -270 c 128,-1,31
 296 -320 296 -320 400 -320 c 0,32,33
 500 -320 500 -320 580 -272 c 128,-1,34
 660 -224 660 -224 672 -146 c 0,35,36
 676 -116 676 -116 662 -85 c 128,-1,37
 648 -54 648 -54 628 -32 c 128,-1,38
 608 -10 608 -10 563 21 c 128,-1,39
 518 52 518 52 487 71 c 128,-1,40
 456 90 456 90 396 124 c 0,41,42
 240 214 240 214 151 343 c 128,-1,43
 62 472 62 472 88 628 c 0,12,13
EndSplineSet
EndChar

StartChar: uni018E
Encoding: 398 398 336
Width: 1172
GlyphClass: 2
Flags: W
LayerCount: 2
Fore
SplineSet
-24 0 m 1,0,-1
 0 134 l 1,1,-1
 764 134 l 1,2,-1
 856 694 l 1,3,-1
 180 694 l 1,4,-1
 202 826 l 1,5,-1
 878 826 l 1,6,-1
 962 1336 l 1,7,-1
 216 1336 l 1,8,-1
 238 1470 l 1,9,-1
 1138 1470 l 1,10,-1
 894 0 l 1,11,-1
 -24 0 l 1,0,-1
EndSplineSet
EndChar

StartChar: uni018F
Encoding: 399 399 337
Width: 1360
GlyphClass: 2
Flags: W
LayerCount: 2
Fore
SplineSet
104 682 m 0,0,1
 118 766 118 766 126 798 c 1,2,-1
 1146 798 l 1,3,4
 1178 1064 1178 1064 1089 1218 c 128,-1,5
 1000 1372 1000 1372 790 1372 c 0,6,7
 544 1372 544 1372 356 1146 c 1,8,-1
 236 1202 l 1,9,10
 334 1346 334 1346 484 1426 c 128,-1,11
 634 1506 634 1506 814 1506 c 0,12,13
 1118 1506 1118 1506 1237 1292 c 128,-1,14
 1356 1078 1356 1078 1298 732 c 0,15,16
 1238 372 1238 372 1034 168 c 128,-1,17
 830 -36 830 -36 562 -36 c 0,18,19
 372 -36 372 -36 256 67 c 128,-1,20
 140 170 140 170 106 328 c 128,-1,21
 72 486 72 486 104 682 c 0,0,1
262 664 m 1,22,23
 260 654 260 654 259 639 c 128,-1,24
 258 624 258 624 256 618 c 0,25,26
 242 520 242 520 251 435 c 128,-1,27
 260 350 260 350 292 270 c 128,-1,28
 324 190 324 190 401 144 c 128,-1,29
 478 98 478 98 588 98 c 0,30,31
 668 98 668 98 747 129 c 128,-1,32
 826 160 826 160 903 224 c 128,-1,33
 980 288 980 288 1040 402 c 128,-1,34
 1100 516 1100 516 1126 664 c 1,35,-1
 262 664 l 1,22,23
EndSplineSet
EndChar

StartChar: uni0190
Encoding: 400 400 338
Width: 1168
GlyphClass: 2
Flags: W
LayerCount: 2
Fore
SplineSet
66 406 m 0,0,1
 92 560 92 560 199 654 c 128,-1,2
 306 748 306 748 432 782 c 1,3,4
 338 820 338 820 280 911 c 128,-1,5
 222 1002 222 1002 242 1130 c 0,6,7
 270 1294 270 1294 409 1400 c 128,-1,8
 548 1506 548 1506 756 1506 c 0,9,10
 944 1506 944 1506 1039 1414 c 128,-1,11
 1134 1322 1134 1322 1170 1200 c 1,12,-1
 1030 1154 l 1,13,14
 954 1378 954 1378 742 1378 c 0,15,16
 610 1378 610 1378 513 1303 c 128,-1,17
 416 1228 416 1228 396 1114 c 0,18,19
 374 986 374 986 463 909 c 128,-1,20
 552 832 552 832 686 832 c 0,21,22
 768 832 768 832 810 836 c 1,23,-1
 788 706 l 1,24,25
 744 710 744 710 660 710 c 0,26,27
 506 710 506 710 377 632 c 128,-1,28
 248 554 248 554 224 408 c 0,29,30
 198 254 198 254 292 174 c 128,-1,31
 386 94 386 94 538 94 c 0,32,33
 644 94 644 94 756 154 c 128,-1,34
 868 214 868 214 932 302 c 1,35,-1
 1050 250 l 1,36,37
 968 120 968 120 821 42 c 128,-1,38
 674 -36 674 -36 510 -36 c 0,39,40
 286 -36 286 -36 159 82 c 128,-1,41
 32 200 32 200 66 406 c 0,0,1
EndSplineSet
EndChar

StartChar: uni0191
Encoding: 401 401 339
Width: 1102
GlyphClass: 2
Flags: W
LayerCount: 2
Fore
SplineSet
-212 -328 m 1,0,1
 -148 -338 -148 -338 -118 -338 c 0,2,3
 -24 -338 -24 -338 26 -272 c 128,-1,4
 76 -206 76 -206 98 -72 c 2,5,-1
 354 1470 l 1,6,-1
 1228 1470 l 1,7,-1
 1206 1336 l 1,8,-1
 486 1336 l 1,9,-1
 400 806 l 1,10,-1
 1044 806 l 1,11,-1
 1022 676 l 1,12,-1
 378 676 l 1,13,-1
 254 -72 l 2,14,15
 220 -280 220 -280 121 -375 c 128,-1,16
 22 -470 22 -470 -114 -470 c 0,17,18
 -170 -470 -170 -470 -234 -458 c 1,19,-1
 -212 -328 l 1,0,1
EndSplineSet
EndChar

StartChar: florin
Encoding: 402 402 340
Width: 638
GlyphClass: 2
Flags: W
LayerCount: 2
Fore
SplineSet
-202 -330 m 1,0,1
 -166 -338 -166 -338 -108 -338 c 0,2,3
 68 -338 68 -338 114 -60 c 2,4,-1
 278 928 l 1,5,-1
 106 928 l 1,6,-1
 126 1056 l 1,7,-1
 300 1056 l 1,8,-1
 326 1218 l 2,9,10
 352 1376 352 1376 437 1450 c 128,-1,11
 522 1524 522 1524 654 1524 c 2,12,-1
 786 1524 l 1,13,-1
 766 1400 l 1,14,-1
 652 1400 l 2,15,16
 498 1400 498 1400 466 1204 c 2,17,-1
 440 1056 l 1,18,-1
 682 1056 l 1,19,-1
 660 928 l 1,20,-1
 420 928 l 1,21,-1
 256 -64 l 2,22,23
 222 -274 222 -274 126 -372 c 128,-1,24
 30 -470 30 -470 -106 -470 c 0,25,26
 -130 -470 -130 -470 -222 -458 c 1,27,-1
 -202 -330 l 1,0,1
EndSplineSet
EndChar

StartChar: uni0194
Encoding: 404 404 342
Width: 1188
GlyphClass: 2
Flags: W
LayerCount: 2
Fore
SplineSet
146 1470 m 1,0,-1
 316 1470 l 1,1,-1
 538 374 l 1,2,-1
 552 300 l 1,3,-1
 554 300 l 1,4,-1
 590 374 l 1,5,-1
 1170 1470 l 1,6,-1
 1342 1470 l 1,7,-1
 656 224 l 1,8,9
 722 114 722 114 753 23 c 128,-1,10
 784 -68 784 -68 768 -168 c 0,11,12
 748 -294 748 -294 651 -382 c 128,-1,13
 554 -470 554 -470 424 -470 c 0,14,15
 292 -470 292 -470 224 -387 c 128,-1,16
 156 -304 156 -304 178 -168 c 0,17,18
 188 -102 188 -102 233 -25 c 128,-1,19
 278 52 278 52 318 102 c 128,-1,20
 358 152 358 152 422 224 c 1,21,-1
 146 1470 l 1,0,-1
334 -162 m 0,22,23
 322 -240 322 -240 352 -292 c 128,-1,24
 382 -344 382 -344 446 -344 c 256,25,26
 510 -344 510 -344 558 -290 c 128,-1,27
 606 -236 606 -236 618 -162 c 0,28,29
 640 -32 640 -32 524 140 c 1,30,31
 356 -24 356 -24 334 -162 c 0,22,23
EndSplineSet
EndChar

StartChar: uni0195
Encoding: 405 405 343
Width: 1684
GlyphClass: 2
Flags: W
LayerCount: 2
Fore
SplineSet
58 0 m 1,0,-1
 312 1524 l 1,1,-1
 454 1524 l 1,2,-1
 348 888 l 1,3,-1
 350 888 l 1,4,5
 408 980 408 980 500 1036 c 128,-1,6
 592 1092 592 1092 694 1092 c 0,7,8
 1020 1092 1020 1092 952 682 c 2,9,-1
 896 350 l 2,10,11
 876 232 876 232 921 162 c 128,-1,12
 966 92 966 92 1090 92 c 0,13,14
 1332 92 1332 92 1374 358 c 2,15,-1
 1490 1056 l 1,16,-1
 1634 1056 l 1,17,-1
 1514 338 l 2,18,19
 1484 154 1484 154 1365 59 c 128,-1,20
 1246 -36 1246 -36 1068 -36 c 0,21,22
 994 -36 994 -36 933 -18 c 128,-1,23
 872 0 872 0 823 39 c 128,-1,24
 774 78 774 78 753 151 c 128,-1,25
 732 224 732 224 750 324 c 2,26,-1
 804 658 l 2,27,28
 854 964 854 964 646 964 c 0,29,30
 530 964 530 964 429 864 c 128,-1,31
 328 764 328 764 306 632 c 0,32,33
 306 628 306 628 306 626 c 2,34,-1
 202 0 l 1,35,-1
 58 0 l 1,0,-1
EndSplineSet
EndChar

StartChar: uni0196
Encoding: 406 406 344
Width: 662
GlyphClass: 2
Flags: W
LayerCount: 2
Fore
SplineSet
144 320 m 2,0,-1
 334 1470 l 1,1,-1
 490 1470 l 1,2,-1
 300 326 l 2,3,4
 280 208 280 208 308 153 c 128,-1,5
 336 98 336 98 418 98 c 0,6,7
 488 98 488 98 560 110 c 1,8,-1
 538 -22 l 1,9,10
 432 -36 432 -36 370 -36 c 0,11,12
 240 -36 240 -36 177 50 c 128,-1,13
 114 136 114 136 144 320 c 2,0,-1
EndSplineSet
EndChar

StartChar: uni0197
Encoding: 407 407 345
Width: 544
GlyphClass: 2
Flags: W
LayerCount: 2
Fore
SplineSet
66 686 m 1,0,-1
 88 810 l 1,1,-1
 236 810 l 1,2,-1
 346 1470 l 1,3,-1
 500 1470 l 1,4,-1
 392 810 l 1,5,-1
 540 810 l 1,6,-1
 520 686 l 1,7,-1
 370 686 l 1,8,-1
 258 0 l 1,9,-1
 102 0 l 1,10,-1
 216 686 l 1,11,-1
 66 686 l 1,0,-1
EndSplineSet
EndChar

StartChar: uni0198
Encoding: 408 408 346
Width: 1240
GlyphClass: 2
Flags: W
LayerCount: 2
Fore
SplineSet
92 0 m 1,0,-1
 334 1470 l 1,1,-1
 490 1470 l 1,2,-1
 362 692 l 1,3,-1
 364 692 l 1,4,-1
 1068 1392 l 2,5,6
 1184 1506 1184 1506 1340 1506 c 0,7,8
 1418 1506 1418 1506 1478 1490 c 1,9,-1
 1454 1354 l 1,10,11
 1388 1372 1388 1372 1326 1372 c 0,12,13
 1250 1372 1250 1372 1194 1314 c 2,14,-1
 698 834 l 1,15,-1
 1140 0 l 1,16,-1
 946 0 l 1,17,-1
 582 720 l 1,18,-1
 324 470 l 1,19,-1
 246 0 l 1,20,-1
 92 0 l 1,0,-1
EndSplineSet
EndChar

StartChar: uni0199
Encoding: 409 409 347
Width: 956
GlyphClass: 2
Flags: W
LayerCount: 2
Fore
SplineSet
62 0 m 1,0,-1
 264 1220 l 2,1,2
 290 1372 290 1372 390 1454 c 128,-1,3
 490 1536 490 1536 632 1536 c 0,4,5
 684 1536 684 1536 766 1528 c 1,6,-1
 744 1398 l 1,7,8
 678 1406 678 1406 634 1406 c 0,9,10
 548 1406 548 1406 484 1352 c 128,-1,11
 420 1298 420 1298 404 1196 c 2,12,-1
 292 524 l 1,13,-1
 820 1056 l 1,14,-1
 1010 1056 l 1,15,-1
 578 634 l 1,16,-1
 874 0 l 1,17,-1
 700 0 l 1,18,-1
 470 528 l 1,19,-1
 258 322 l 1,20,-1
 206 0 l 1,21,-1
 62 0 l 1,0,-1
EndSplineSet
EndChar

StartChar: uni019A
Encoding: 410 410 348
Width: 480
GlyphClass: 2
Flags: W
LayerCount: 2
Fore
SplineSet
44 742 m 1,0,-1
 64 866 l 1,1,-1
 220 866 l 1,2,-1
 328 1524 l 1,3,-1
 472 1524 l 1,4,-1
 362 866 l 1,5,-1
 518 866 l 1,6,-1
 498 742 l 1,7,-1
 342 742 l 1,8,-1
 220 0 l 1,9,-1
 76 0 l 1,10,-1
 200 742 l 1,11,-1
 44 742 l 1,0,-1
EndSplineSet
EndChar

StartChar: uni019B
Encoding: 411 411 349
Width: 936
GlyphClass: 2
Flags: W
LayerCount: 2
Fore
SplineSet
-82 0 m 1,0,-1
 488 1070 l 1,1,-1
 472 1170 l 1,2,-1
 212 996 l 1,3,-1
 158 1090 l 1,4,-1
 448 1276 l 1,5,6
 408 1392 408 1392 286 1392 c 2,7,-1
 250 1392 l 1,8,-1
 270 1518 l 1,9,-1
 330 1518 l 2,10,11
 502 1518 502 1518 566 1354 c 1,12,-1
 772 1500 l 1,13,-1
 826 1406 l 1,14,-1
 596 1248 l 1,15,-1
 828 0 l 1,16,-1
 662 0 l 1,17,-1
 568 618 l 2,18,19
 566 630 566 630 551 731 c 128,-1,20
 536 832 536 832 530 886 c 1,21,-1
 522 886 l 1,22,23
 488 802 488 802 396 618 c 2,24,-1
 86 0 l 1,25,-1
 -82 0 l 1,0,-1
EndSplineSet
EndChar

StartChar: uni019C
Encoding: 412 412 350
Width: 1852
GlyphClass: 2
Flags: W
CounterMasks: 1 1c
LayerCount: 2
Fore
SplineSet
164 436 m 2,0,-1
 334 1470 l 1,1,-1
 488 1470 l 1,2,-1
 316 430 l 2,3,4
 260 96 260 96 474 96 c 0,5,6
 596 96 596 96 702 207 c 128,-1,7
 808 318 808 318 836 480 c 2,8,-1
 1000 1470 l 1,9,-1
 1152 1470 l 1,10,-1
 980 426 l 2,11,12
 954 266 954 266 996 182 c 128,-1,13
 1038 98 1038 98 1144 98 c 0,14,15
 1274 98 1274 98 1373 203 c 128,-1,16
 1472 308 1472 308 1498 472 c 2,17,-1
 1664 1470 l 1,18,-1
 1816 1470 l 1,19,-1
 1574 0 l 1,20,-1
 1426 0 l 1,21,-1
 1456 176 l 1,22,-1
 1452 176 l 1,23,24
 1416 98 1416 98 1314 31 c 128,-1,25
 1212 -36 1212 -36 1090 -36 c 0,26,27
 848 -36 848 -36 828 210 c 1,28,29
 788 122 788 122 678 43 c 128,-1,30
 568 -36 568 -36 418 -36 c 0,31,32
 86 -36 86 -36 164 436 c 2,0,-1
EndSplineSet
EndChar

StartChar: uni019D
Encoding: 413 413 351
Width: 1412
GlyphClass: 2
Flags: W
LayerCount: 2
Fore
SplineSet
354 1470 m 1,0,-1
 530 1470 l 1,1,-1
 954 418 l 1,2,-1
 1026 222 l 1,3,-1
 1036 222 l 1,4,5
 1046 406 1046 406 1086 638 c 2,6,-1
 1224 1470 l 1,7,-1
 1376 1470 l 1,8,-1
 1132 0 l 1,9,-1
 956 0 l 1,10,-1
 540 1044 l 1,11,-1
 462 1246 l 1,12,-1
 452 1246 l 1,13,14
 440 1056 440 1056 402 832 c 2,15,-1
 258 -36 l 2,16,17
 186 -470 186 -470 -124 -470 c 0,18,19
 -166 -470 -166 -470 -222 -460 c 1,20,-1
 -200 -330 l 1,21,22
 -174 -336 -174 -336 -130 -336 c 0,23,24
 -22 -336 -22 -336 29 -261 c 128,-1,25
 80 -186 80 -186 104 -32 c 2,26,-1
 354 1470 l 1,0,-1
EndSplineSet
EndChar

StartChar: uni019E
Encoding: 414 414 352
Width: 1074
GlyphClass: 2
Flags: W
LayerCount: 2
Fore
SplineSet
50 0 m 1,0,-1
 224 1056 l 1,1,-1
 362 1056 l 1,2,-1
 332 878 l 1,3,-1
 334 878 l 1,4,5
 386 968 386 968 478 1030 c 128,-1,6
 570 1092 570 1092 688 1092 c 0,7,8
 826 1092 826 1092 902 999 c 128,-1,9
 978 906 978 906 940 682 c 2,10,-1
 752 -462 l 1,11,-1
 608 -462 l 1,12,-1
 794 658 l 2,13,14
 844 964 844 964 636 964 c 0,15,16
 520 964 520 964 419 865 c 128,-1,17
 318 766 318 766 296 630 c 2,18,-1
 190 0 l 1,19,-1
 50 0 l 1,0,-1
EndSplineSet
EndChar

StartChar: uni019F
Encoding: 415 415 353
Width: 1382
GlyphClass: 2
Flags: W
LayerCount: 2
Fore
SplineSet
120 734 m 0,0,1
 178 1080 178 1080 377 1293 c 128,-1,2
 576 1506 576 1506 848 1506 c 0,3,4
 1124 1506 1124 1506 1250 1294 c 128,-1,5
 1376 1082 1376 1082 1318 732 c 0,6,7
 1260 378 1260 378 1063 171 c 128,-1,8
 866 -36 866 -36 592 -36 c 256,9,10
 320 -36 320 -36 191 173 c 128,-1,11
 62 382 62 382 120 734 c 0,0,1
1148 670 m 1,12,-1
 268 670 l 1,13,14
 238 406 238 406 331 253 c 128,-1,15
 424 100 424 100 616 100 c 0,16,17
 804 100 804 100 947 251 c 128,-1,18
 1090 402 1090 402 1148 670 c 1,12,-1
288 792 m 1,19,-1
 1168 792 l 1,20,21
 1200 1058 1200 1058 1111 1215 c 128,-1,22
 1022 1372 1022 1372 826 1372 c 0,23,24
 632 1372 632 1372 488 1216 c 128,-1,25
 344 1060 344 1060 288 792 c 1,19,-1
EndSplineSet
EndChar

StartChar: uni01A2
Encoding: 418 418 356
Width: 1894
GlyphClass: 2
Flags: W
LayerCount: 2
Fore
SplineSet
118 724 m 0,0,1
 178 1088 178 1088 379 1297 c 128,-1,2
 580 1506 580 1506 832 1506 c 0,3,4
 930 1506 930 1506 1111 1465 c 128,-1,5
 1292 1424 1292 1424 1438 1424 c 0,6,7
 1586 1424 1586 1424 1860 1470 c 1,8,-1
 1616 0 l 1,9,-1
 1464 0 l 1,10,-1
 1682 1316 l 1,11,12
 1554 1294 1554 1294 1414 1294 c 0,13,14
 1290 1294 1290 1294 1176 1312 c 1,15,-1
 978 110 l 1,16,17
 798 -36 798 -36 576 -36 c 0,18,19
 322 -36 322 -36 192 173 c 128,-1,20
 62 382 62 382 118 724 c 0,0,1
276 724 m 0,21,22
 228 434 228 434 322 266 c 128,-1,23
 416 98 416 98 600 98 c 0,24,25
 718 98 718 98 832 168 c 1,26,-1
 1026 1334 l 1,27,28
 1012 1338 1012 1338 984 1347 c 128,-1,29
 956 1356 956 1356 940 1361 c 128,-1,30
 924 1366 924 1366 890 1370 c 128,-1,31
 856 1374 856 1374 810 1374 c 0,32,33
 634 1374 634 1374 481 1204 c 128,-1,34
 328 1034 328 1034 276 724 c 0,21,22
EndSplineSet
EndChar

StartChar: uni01A3
Encoding: 419 419 357
Width: 1502
GlyphClass: 2
Flags: W
LayerCount: 2
Fore
SplineSet
72 528 m 256,0,1
 116 796 116 796 265 944 c 128,-1,2
 414 1092 414 1092 620 1092 c 0,3,4
 708 1092 708 1092 855 1061 c 128,-1,5
 1002 1030 1002 1030 1118 1030 c 0,6,7
 1278 1030 1278 1030 1442 1062 c 1,8,-1
 1266 0 l 1,9,-1
 1126 0 l 1,10,-1
 1278 914 l 1,11,12
 1210 904 1210 904 1096 904 c 0,13,14
 976 904 976 904 926 912 c 1,15,-1
 798 142 l 1,16,17
 646 -36 646 -36 432 -36 c 0,18,19
 232 -36 232 -36 130 112 c 128,-1,20
 28 260 28 260 72 528 c 256,0,1
216 528 m 0,21,22
 184 330 184 330 249 211 c 128,-1,23
 314 92 314 92 454 92 c 0,24,25
 568 92 568 92 670 210 c 1,26,-1
 790 934 l 1,27,28
 658 964 658 964 598 964 c 0,29,30
 446 964 446 964 347 842 c 128,-1,31
 248 720 248 720 216 528 c 0,21,22
EndSplineSet
EndChar

StartChar: uni01A5
Encoding: 421 421 359
Width: 1098
GlyphClass: 2
Flags: W
LayerCount: 2
Fore
SplineSet
288 528 m 0,0,1
 254 324 254 324 314 208 c 128,-1,2
 374 92 374 92 502 92 c 0,3,4
 634 92 634 92 735 210 c 128,-1,5
 836 328 836 328 868 528 c 0,6,7
 900 724 900 724 839 844 c 128,-1,8
 778 964 778 964 646 964 c 0,9,10
 524 964 524 964 422 845 c 128,-1,11
 320 726 320 726 288 528 c 0,0,1
-18 -462 m 1,12,-1
 260 1218 l 2,13,14
 288 1384 288 1384 391 1460 c 128,-1,15
 494 1536 494 1536 620 1536 c 0,16,17
 670 1536 670 1536 756 1528 c 1,18,-1
 736 1400 l 1,19,20
 680 1406 680 1406 620 1406 c 0,21,22
 526 1406 526 1406 468 1345 c 128,-1,23
 410 1284 410 1284 396 1196 c 2,24,-1
 340 860 l 1,25,26
 376 940 376 940 473 1016 c 128,-1,27
 570 1092 570 1092 688 1092 c 0,28,29
 868 1092 868 1092 962 939 c 128,-1,30
 1056 786 1056 786 1014 528 c 0,31,32
 990 382 990 382 932 270 c 128,-1,33
 874 158 874 158 802 94 c 128,-1,34
 730 30 730 30 652 -3 c 128,-1,35
 574 -36 574 -36 500 -36 c 0,36,37
 386 -36 386 -36 318 30 c 128,-1,38
 250 96 250 96 232 184 c 1,39,-1
 126 -462 l 1,40,-1
 -18 -462 l 1,12,-1
EndSplineSet
EndChar

StartChar: uni01A6
Encoding: 422 422 360
Width: 1196
GlyphClass: 2
Flags: W
LayerCount: 2
Fore
SplineSet
318 594 m 1,0,-1
 630 594 l 2,1,2
 760 594 760 594 854 656 c 128,-1,3
 948 718 948 718 972 866 c 0,4,5
 1014 1114 1014 1114 722 1114 c 2,6,-1
 404 1114 l 1,7,-1
 318 594 l 1,0,-1
64 0 m 1,8,-1
 308 1470 l 1,9,-1
 462 1470 l 1,10,-1
 426 1248 l 1,11,-1
 776 1248 l 2,12,13
 986 1248 986 1248 1071 1143 c 128,-1,14
 1156 1038 1156 1038 1128 878 c 0,15,16
 1114 798 1114 798 1080 736 c 128,-1,17
 1046 674 1046 674 1011 639 c 128,-1,18
 976 604 976 604 920 574 c 128,-1,19
 864 544 864 544 844 537 c 128,-1,20
 824 530 824 530 780 516 c 1,21,22
 850 474 850 474 877 417 c 128,-1,23
 904 360 904 360 916 256 c 0,24,25
 918 246 918 246 927 190 c 128,-1,26
 936 134 936 134 938 118 c 128,-1,27
 940 102 940 102 949 55 c 128,-1,28
 958 8 958 8 964 -18 c 128,-1,29
 970 -44 970 -44 983 -84 c 128,-1,30
 996 -124 996 -124 1012 -160 c 1,31,-1
 844 -160 l 1,32,33
 820 -102 820 -102 805 -38 c 128,-1,34
 790 26 790 26 774 125 c 128,-1,35
 758 224 758 224 750 260 c 0,36,37
 732 364 732 364 690 414 c 128,-1,38
 648 464 648 464 552 464 c 2,39,-1
 296 464 l 1,40,-1
 220 0 l 1,41,-1
 64 0 l 1,8,-1
EndSplineSet
EndChar

StartChar: uni01A7
Encoding: 423 423 361
Width: 1170
GlyphClass: 2
Flags: W
LayerCount: 2
Fore
SplineSet
42 384 m 0,0,1
 54 460 54 460 90 520 c 128,-1,2
 126 580 126 580 170 622 c 128,-1,3
 214 664 214 664 281 700 c 128,-1,4
 348 736 348 736 403 757 c 128,-1,5
 458 778 458 778 536 802 c 0,6,7
 764 876 764 876 840 918 c 0,8,9
 974 998 974 998 996 1120 c 0,10,11
 1014 1234 1014 1234 941 1303 c 128,-1,12
 868 1372 868 1372 718 1372 c 0,13,14
 504 1372 504 1372 340 1188 c 1,15,-1
 216 1232 l 1,16,17
 296 1348 296 1348 435 1427 c 128,-1,18
 574 1506 574 1506 736 1506 c 0,19,20
 956 1506 956 1506 1071 1401 c 128,-1,21
 1186 1296 1186 1296 1156 1120 c 0,22,23
 1146 1064 1146 1064 1121 1014 c 128,-1,24
 1096 964 1096 964 1070 928 c 128,-1,25
 1044 892 1044 892 994 858 c 128,-1,26
 944 824 944 824 912 805 c 128,-1,27
 880 786 880 786 813 760 c 128,-1,28
 746 734 746 734 716 724 c 128,-1,29
 686 714 686 714 612 691 c 128,-1,30
 538 668 538 668 495 652 c 128,-1,31
 452 636 452 636 393 607 c 128,-1,32
 334 578 334 578 299 549 c 128,-1,33
 264 520 264 520 237 476 c 128,-1,34
 210 432 210 432 200 378 c 0,35,36
 180 252 180 252 263 175 c 128,-1,37
 346 98 346 98 492 98 c 0,38,39
 612 98 612 98 732 162 c 128,-1,40
 852 226 852 226 926 322 c 1,41,-1
 1050 268 l 1,42,43
 960 134 960 134 808 49 c 128,-1,44
 656 -36 656 -36 474 -36 c 0,45,46
 246 -36 246 -36 128 75 c 128,-1,47
 10 186 10 186 42 384 c 0,0,1
EndSplineSet
EndChar

StartChar: uni01A8
Encoding: 424 424 362
Width: 926
GlyphClass: 2
Flags: W
LayerCount: 2
Fore
SplineSet
12 262 m 0,0,1
 22 326 22 326 62 379 c 128,-1,2
 102 432 102 432 166 468 c 128,-1,3
 230 504 230 504 284 526 c 128,-1,4
 338 548 338 548 414 572 c 0,5,6
 482 592 482 592 520 607 c 128,-1,7
 558 622 558 622 610 649 c 128,-1,8
 662 676 662 676 689 711 c 128,-1,9
 716 746 716 746 724 792 c 0,10,11
 738 874 738 874 685 919 c 128,-1,12
 632 964 632 964 520 964 c 0,13,14
 428 964 428 964 348 913 c 128,-1,15
 268 862 268 862 216 794 c 1,16,-1
 132 862 l 1,17,18
 196 956 196 956 309 1024 c 128,-1,19
 422 1092 422 1092 542 1092 c 0,20,21
 710 1092 710 1092 801 1013 c 128,-1,22
 892 934 892 934 870 794 c 0,23,24
 858 726 858 726 822 673 c 128,-1,25
 786 620 786 620 729 584 c 128,-1,26
 672 548 672 548 623 527 c 128,-1,27
 574 506 574 506 504 482 c 0,28,29
 488 476 488 476 447 464 c 128,-1,30
 406 452 406 452 387 446 c 128,-1,31
 368 440 368 440 332 427 c 128,-1,32
 296 414 296 414 279 404 c 128,-1,33
 262 394 262 394 236 378 c 128,-1,34
 210 362 210 362 197 346 c 128,-1,35
 184 330 184 330 172 308 c 128,-1,36
 160 286 160 286 156 262 c 0,37,38
 142 180 142 180 201 136 c 128,-1,39
 260 92 260 92 374 92 c 0,40,41
 466 92 466 92 553 140 c 128,-1,42
 640 188 640 188 704 274 c 1,43,-1
 802 208 l 1,44,45
 728 98 728 98 612 31 c 128,-1,46
 496 -36 496 -36 354 -36 c 0,47,48
 168 -36 168 -36 80 51 c 128,-1,49
 -8 138 -8 138 12 262 c 0,0,1
EndSplineSet
EndChar

StartChar: uni01A9
Encoding: 425 425 363
Width: 1184
GlyphClass: 2
Flags: W
LayerCount: 2
Fore
SplineSet
60 0 m 1,0,-1
 78 106 l 1,1,-1
 718 736 l 1,2,-1
 286 1364 l 1,3,-1
 304 1470 l 1,4,-1
 1204 1470 l 1,5,-1
 1182 1334 l 1,6,-1
 494 1334 l 1,7,-1
 892 736 l 1,8,-1
 294 134 l 1,9,-1
 994 134 l 1,10,-1
 972 0 l 1,11,-1
 60 0 l 1,0,-1
EndSplineSet
EndChar

StartChar: uni01AA
Encoding: 426 426 364
Width: 824
GlyphClass: 2
Flags: W
LayerCount: 2
Fore
SplineSet
162 1218 m 0,0,1
 150 1148 150 1148 191 1108 c 128,-1,2
 232 1068 232 1068 294 1068 c 0,3,4
 410 1068 410 1068 488 1132 c 1,5,6
 504 1232 504 1232 475 1306 c 128,-1,7
 446 1380 446 1380 350 1380 c 0,8,9
 284 1380 284 1380 229 1333 c 128,-1,10
 174 1286 174 1286 162 1218 c 0,0,1
18 1212 m 0,11,12
 40 1346 40 1346 139 1426 c 128,-1,13
 238 1506 238 1506 368 1506 c 0,14,15
 524 1506 524 1506 590 1403 c 128,-1,16
 656 1300 656 1300 626 1118 c 2,17,-1
 418 -140 l 2,18,19
 402 -238 402 -238 430 -288 c 128,-1,20
 458 -338 458 -338 544 -338 c 0,21,22
 576 -338 576 -338 652 -328 c 1,23,-1
 632 -456 l 1,24,25
 504 -470 504 -470 496 -470 c 0,26,27
 364 -470 364 -470 304 -390 c 128,-1,28
 244 -310 244 -310 272 -148 c 2,29,-1
 462 998 l 1,30,31
 394 940 394 940 252 940 c 0,32,33
 130 940 130 940 64 1016 c 128,-1,34
 -2 1092 -2 1092 18 1212 c 0,11,12
EndSplineSet
EndChar

StartChar: uni01AB
Encoding: 427 427 365
Width: 674
GlyphClass: 2
Flags: W
LayerCount: 2
Fore
SplineSet
96 928 m 1,0,-1
 118 1056 l 1,1,-1
 292 1056 l 1,2,-1
 348 1396 l 1,3,-1
 490 1396 l 1,4,-1
 434 1056 l 1,5,-1
 698 1056 l 1,6,-1
 676 928 l 1,7,-1
 412 928 l 1,8,-1
 310 310 l 2,9,10
 294 214 294 214 324 172 c 128,-1,11
 354 130 354 130 432 130 c 0,12,13
 540 130 540 130 592 140 c 1,14,-1
 560 -48 l 2,15,16
 490 -470 490 -470 196 -470 c 0,17,18
 150 -470 150 -470 92 -458 c 1,19,-1
 114 -328 l 1,20,21
 172 -338 172 -338 202 -338 c 0,22,23
 374 -338 374 -338 420 -66 c 2,24,-1
 430 -2 l 1,25,26
 372 -2 372 -2 316 8 c 0,27,28
 126 44 126 44 166 296 c 2,29,-1
 270 928 l 1,30,-1
 96 928 l 1,0,-1
EndSplineSet
EndChar

StartChar: uni01AC
Encoding: 428 428 366
Width: 1136
GlyphClass: 2
Flags: W
LayerCount: 2
Fore
SplineSet
62 1200 m 0,0,1
 106 1470 106 1470 466 1470 c 2,2,-1
 1268 1470 l 1,3,-1
 1246 1334 l 1,4,-1
 806 1334 l 1,5,-1
 586 0 l 1,6,-1
 432 0 l 1,7,-1
 654 1334 l 1,8,-1
 448 1334 l 2,9,10
 224 1334 224 1334 200 1188 c 0,11,12
 194 1156 194 1156 196 1116 c 1,13,-1
 58 1116 l 1,14,15
 56 1160 56 1160 62 1200 c 0,0,1
EndSplineSet
EndChar

StartChar: uni01AD
Encoding: 429 429 367
Width: 676
GlyphClass: 2
Flags: W
LayerCount: 2
Fore
SplineSet
96 928 m 1,0,-1
 118 1056 l 1,1,-1
 292 1056 l 1,2,-1
 320 1220 l 2,3,4
 346 1372 346 1372 444 1454 c 128,-1,5
 542 1536 542 1536 686 1536 c 0,6,7
 734 1536 734 1536 818 1528 c 1,8,-1
 796 1400 l 1,9,10
 748 1406 748 1406 686 1406 c 0,11,12
 596 1406 596 1406 535 1354 c 128,-1,13
 474 1302 474 1302 458 1204 c 2,14,-1
 434 1056 l 1,15,-1
 700 1056 l 1,16,-1
 678 928 l 1,17,-1
 412 928 l 1,18,-1
 310 310 l 2,19,20
 294 214 294 214 324 172 c 128,-1,21
 354 130 354 130 432 130 c 2,22,-1
 548 130 l 1,23,-1
 526 0 l 1,24,-1
 392 0 l 2,25,26
 118 0 118 0 166 296 c 2,27,-1
 270 928 l 1,28,-1
 96 928 l 1,0,-1
EndSplineSet
EndChar

StartChar: uni01AE
Encoding: 430 430 368
Width: 1070
GlyphClass: 2
Flags: W
LayerCount: 2
Fore
SplineSet
150 1334 m 1,0,-1
 174 1470 l 1,1,-1
 1202 1470 l 1,2,-1
 1180 1334 l 1,3,-1
 740 1334 l 1,4,-1
 500 -116 l 2,5,6
 480 -234 480 -234 510 -286 c 128,-1,7
 540 -338 540 -338 632 -338 c 0,8,9
 656 -338 656 -338 728 -328 c 1,10,-1
 706 -458 l 1,11,12
 612 -470 612 -470 584 -470 c 0,13,14
 288 -470 288 -470 348 -114 c 2,15,-1
 588 1334 l 1,16,-1
 150 1334 l 1,0,-1
EndSplineSet
EndChar

StartChar: uni01B1
Encoding: 433 433 371
Width: 1450
GlyphClass: 2
Flags: W
LayerCount: 2
Fore
SplineSet
100 606 m 0,0,1
 138 830 138 830 275 975 c 128,-1,2
 412 1120 412 1120 610 1194 c 1,3,-1
 634 1334 l 1,4,-1
 236 1334 l 1,5,-1
 258 1470 l 1,6,-1
 778 1470 l 1,7,-1
 716 1104 l 1,8,9
 522 1050 522 1050 405 917 c 128,-1,10
 288 784 288 784 258 606 c 0,11,12
 222 388 222 388 329 245 c 128,-1,13
 436 102 436 102 648 102 c 256,14,15
 860 102 860 102 1014 245 c 128,-1,16
 1168 388 1168 388 1204 606 c 0,17,18
 1234 782 1234 782 1163 916 c 128,-1,19
 1092 1050 1092 1050 914 1104 c 1,20,-1
 976 1470 l 1,21,-1
 1492 1470 l 1,22,-1
 1470 1334 l 1,23,-1
 1072 1334 l 1,24,-1
 1050 1194 l 1,25,26
 1224 1124 1224 1124 1313 978 c 128,-1,27
 1402 832 1402 832 1366 606 c 0,28,29
 1320 332 1320 332 1121 148 c 128,-1,30
 922 -36 922 -36 626 -36 c 0,31,32
 332 -36 332 -36 193 148 c 128,-1,33
 54 332 54 332 100 606 c 0,0,1
EndSplineSet
EndChar

StartChar: uni01B2
Encoding: 434 434 372
Width: 1392
GlyphClass: 2
Flags: W
LayerCount: 2
Fore
SplineSet
172 488 m 2,0,-1
 334 1470 l 1,1,-1
 490 1470 l 1,2,-1
 328 498 l 2,3,4
 292 280 292 280 361 189 c 128,-1,5
 430 98 430 98 592 98 c 0,6,7
 794 98 794 98 961 302 c 128,-1,8
 1128 506 1128 506 1182 828 c 0,9,10
 1226 1088 1226 1088 1175 1230 c 128,-1,11
 1124 1372 1124 1372 996 1372 c 0,12,13
 938 1372 938 1372 866 1354 c 1,14,-1
 890 1492 l 1,15,16
 986 1506 986 1506 1042 1506 c 0,17,18
 1228 1506 1228 1506 1311 1337 c 128,-1,19
 1394 1168 1394 1168 1338 832 c 0,20,21
 1276 462 1276 462 1067 213 c 128,-1,22
 858 -36 858 -36 570 -36 c 0,23,24
 326 -36 326 -36 226 90 c 128,-1,25
 126 216 126 216 172 488 c 2,0,-1
EndSplineSet
EndChar

StartChar: uni01B3
Encoding: 435 435 373
Width: 1166
GlyphClass: 2
Flags: W
LayerCount: 2
Fore
SplineSet
142 1470 m 1,0,-1
 322 1470 l 1,1,-1
 512 982 l 2,2,3
 580 820 580 820 606 742 c 1,4,-1
 612 742 l 1,5,6
 642 788 642 788 784 982 c 2,7,-1
 1040 1338 l 2,8,9
 1158 1506 1158 1506 1314 1506 c 0,10,11
 1350 1506 1350 1506 1408 1500 c 1,12,-1
 1386 1368 l 1,13,14
 1352 1374 1352 1374 1308 1374 c 0,15,16
 1242 1374 1242 1374 1158 1260 c 2,17,-1
 664 604 l 1,18,-1
 564 0 l 1,19,-1
 408 0 l 1,20,-1
 508 604 l 1,21,-1
 142 1470 l 1,0,-1
EndSplineSet
EndChar

StartChar: uni01B4
Encoding: 436 436 374
Width: 942
GlyphClass: 2
Flags: W
LayerCount: 2
Fore
SplineSet
96 1056 m 1,0,-1
 262 1056 l 1,1,-1
 368 438 l 2,2,3
 382 362 382 362 404 170 c 1,4,-1
 412 170 l 1,5,6
 432 212 432 212 540 438 c 2,7,-1
 780 930 l 2,8,9
 854 1084 854 1084 1030 1084 c 0,10,11
 1058 1084 1058 1084 1126 1074 c 1,12,-1
 1104 940 l 1,13,14
 1064 950 1064 950 1032 950 c 0,15,16
 946 950 946 950 906 868 c 2,17,-1
 378 -158 l 2,18,19
 294 -322 294 -322 209 -392 c 128,-1,20
 124 -462 124 -462 18 -462 c 2,21,-1
 -44 -462 l 1,22,-1
 -22 -336 l 1,23,-1
 14 -336 l 2,24,25
 90 -336 90 -336 151 -281 c 128,-1,26
 212 -226 212 -226 270 -94 c 2,27,-1
 310 -14 l 1,28,-1
 96 1056 l 1,0,-1
EndSplineSet
EndChar

StartChar: uni01B5
Encoding: 437 437 375
Width: 1180
GlyphClass: 2
Flags: W
LayerCount: 2
Fore
SplineSet
216 666 m 1,0,-1
 236 788 l 1,1,-1
 568 788 l 1,2,-1
 1022 1336 l 1,3,-1
 274 1336 l 1,4,-1
 296 1470 l 1,5,-1
 1230 1470 l 1,6,-1
 1212 1352 l 1,7,-1
 744 788 l 1,8,-1
 1004 788 l 1,9,-1
 984 666 l 1,10,-1
 640 666 l 1,11,-1
 196 134 l 1,12,-1
 1032 134 l 1,13,-1
 1010 0 l 1,14,-1
 -12 0 l 1,15,-1
 8 116 l 1,16,-1
 464 666 l 1,17,-1
 216 666 l 1,0,-1
EndSplineSet
EndChar

StartChar: uni01B6
Encoding: 438 438 376
Width: 900
GlyphClass: 2
Flags: W
LayerCount: 2
Fore
SplineSet
-38 0 m 1,0,-1
 -20 102 l 1,1,-1
 310 476 l 1,2,-1
 116 476 l 1,3,-1
 136 600 l 1,4,-1
 416 600 l 1,5,-1
 704 928 l 1,6,-1
 168 928 l 1,7,-1
 188 1056 l 1,8,-1
 908 1056 l 1,9,-1
 892 960 l 1,10,-1
 578 600 l 1,11,-1
 770 600 l 1,12,-1
 750 476 l 1,13,-1
 470 476 l 1,14,-1
 168 128 l 1,15,-1
 772 128 l 1,16,-1
 750 0 l 1,17,-1
 -38 0 l 1,0,-1
EndSplineSet
EndChar

StartChar: uni01B7
Encoding: 439 439 377
Width: 1334
GlyphClass: 2
Flags: W
LayerCount: 2
Fore
SplineSet
-18 -102 m 1,0,-1
 122 -50 l 1,1,2
 150 -164 150 -164 242 -241 c 128,-1,3
 334 -318 334 -318 478 -318 c 0,4,5
 690 -318 690 -318 832 -187 c 128,-1,6
 974 -56 974 -56 1010 160 c 0,7,8
 1044 370 1044 370 931 492 c 128,-1,9
 818 614 818 614 558 614 c 2,10,-1
 410 614 l 1,11,-1
 432 742 l 1,12,-1
 1038 1334 l 1,13,-1
 270 1334 l 1,14,-1
 294 1470 l 1,15,-1
 1292 1470 l 1,16,-1
 1278 1382 l 1,17,-1
 618 742 l 1,18,-1
 658 742 l 1,19,20
 940 724 940 724 1076 572 c 128,-1,21
 1212 420 1212 420 1168 162 c 0,22,23
 1122 -116 1122 -116 925 -283 c 128,-1,24
 728 -450 728 -450 458 -450 c 0,25,26
 260 -450 260 -450 139 -350 c 128,-1,27
 18 -250 18 -250 -18 -102 c 1,0,-1
EndSplineSet
EndChar

StartChar: uni01B8
Encoding: 440 440 378
Width: 1334
GlyphClass: 2
Flags: W
LayerCount: 2
Fore
SplineSet
32 162 m 0,0,1
 74 418 74 418 273 580 c 128,-1,2
 472 742 472 742 734 742 c 2,3,-1
 776 742 l 1,4,-1
 328 1382 l 1,5,-1
 344 1470 l 1,6,-1
 1342 1470 l 1,7,-1
 1318 1334 l 1,8,-1
 550 1334 l 1,9,-1
 962 742 l 1,10,-1
 940 614 l 1,11,-1
 796 614 l 2,12,13
 536 614 536 614 380 491 c 128,-1,14
 224 368 224 368 190 160 c 0,15,16
 154 -56 154 -56 254 -187 c 128,-1,17
 354 -318 354 -318 564 -318 c 0,18,19
 708 -318 708 -318 826 -241 c 128,-1,20
 944 -164 944 -164 1010 -50 c 1,21,-1
 1132 -102 l 1,22,23
 1044 -250 1044 -250 892 -350 c 128,-1,24
 740 -450 740 -450 542 -450 c 0,25,26
 272 -450 272 -450 129 -283 c 128,-1,27
 -14 -116 -14 -116 32 162 c 0,0,1
EndSplineSet
EndChar

StartChar: uni01B9
Encoding: 441 441 379
Width: 1034
GlyphClass: 2
Flags: W
LayerCount: 2
Fore
SplineSet
-6 8 m 0,0,1
 28 210 28 210 176 339 c 128,-1,2
 324 468 324 468 520 468 c 2,3,-1
 570 468 l 1,4,-1
 206 960 l 1,5,-1
 222 1056 l 1,6,-1
 986 1056 l 1,7,-1
 964 928 l 1,8,-1
 406 928 l 1,9,-1
 748 458 l 1,10,-1
 730 354 l 1,11,-1
 572 354 l 2,12,13
 392 354 392 354 280 260 c 128,-1,14
 168 166 168 166 142 8 c 0,15,16
 116 -144 116 -144 181 -243 c 128,-1,17
 246 -342 246 -342 390 -342 c 0,18,19
 590 -342 590 -342 718 -130 c 1,20,-1
 836 -168 l 1,21,22
 764 -304 764 -304 642 -387 c 128,-1,23
 520 -470 520 -470 366 -470 c 0,24,25
 164 -470 164 -470 62 -336 c 128,-1,26
 -40 -202 -40 -202 -6 8 c 0,0,1
EndSplineSet
EndChar

StartChar: uni01BA
Encoding: 442 442 380
Width: 848
GlyphClass: 2
Flags: W
LayerCount: 2
Fore
SplineSet
-34 -140 m 0,0,1
 -22 -68 -22 -68 40 -8 c 128,-1,2
 102 52 102 52 183 94 c 128,-1,3
 264 136 264 136 344 176 c 128,-1,4
 424 216 424 216 484 266 c 128,-1,5
 544 316 544 316 552 370 c 0,6,7
 562 430 562 430 498 467 c 128,-1,8
 434 504 434 504 298 504 c 2,9,-1
 232 504 l 1,10,-1
 246 590 l 1,11,-1
 634 928 l 1,12,-1
 148 928 l 1,13,-1
 170 1056 l 1,14,-1
 838 1056 l 1,15,-1
 822 956 l 1,16,-1
 404 594 l 1,17,-1
 446 592 l 2,18,19
 582 588 582 588 649 532 c 128,-1,20
 716 476 716 476 698 376 c 0,21,22
 686 298 686 298 624 233 c 128,-1,23
 562 168 562 168 481 125 c 128,-1,24
 400 82 400 82 320 43 c 128,-1,25
 240 4 240 4 181 -39 c 128,-1,26
 122 -82 122 -82 114 -130 c 0,27,28
 94 -252 94 -252 262 -252 c 0,29,30
 336 -252 336 -252 452 -232 c 1,31,-1
 430 -360 l 1,32,33
 312 -378 312 -378 222 -378 c 0,34,35
 88 -378 88 -378 17 -317 c 128,-1,36
 -54 -256 -54 -256 -34 -140 c 0,0,1
EndSplineSet
EndChar

StartChar: uni01BB
Encoding: 443 443 381
Width: 1070
GlyphClass: 2
Flags: W
LayerCount: 2
Fore
SplineSet
224 654 m 1,0,-1
 246 778 l 1,1,-1
 676 778 l 1,2,3
 850 936 850 936 878 1102 c 0,4,5
 900 1236 900 1236 838 1307 c 128,-1,6
 776 1378 776 1378 658 1378 c 0,7,8
 436 1378 436 1378 312 1102 c 1,9,-1
 188 1138 l 1,10,11
 254 1304 254 1304 381 1405 c 128,-1,12
 508 1506 508 1506 686 1506 c 0,13,14
 870 1506 870 1506 968 1397 c 128,-1,15
 1066 1288 1066 1288 1036 1098 c 0,16,17
 1008 934 1008 934 856 778 c 1,18,-1
 1042 778 l 1,19,-1
 1022 654 l 1,20,-1
 732 654 l 1,21,22
 704 630 704 630 632 569 c 128,-1,23
 560 508 560 508 535 486 c 128,-1,24
 510 464 510 464 456 416 c 128,-1,25
 402 368 402 368 377 342 c 128,-1,26
 352 316 352 316 316 276 c 128,-1,27
 280 236 280 236 257 201 c 128,-1,28
 234 166 234 166 214 130 c 1,29,-1
 870 130 l 1,30,-1
 850 0 l 1,31,-1
 8 0 l 1,32,33
 32 146 32 146 163 296 c 128,-1,34
 294 446 294 446 534 654 c 1,35,-1
 224 654 l 1,0,-1
EndSplineSet
EndChar

StartChar: uni01BC
Encoding: 444 444 382
Width: 1080
GlyphClass: 2
Flags: W
LayerCount: 2
Fore
SplineSet
32 236 m 1,0,-1
 166 284 l 1,1,2
 220 94 220 94 434 94 c 0,3,4
 578 94 578 94 674 185 c 128,-1,5
 770 276 770 276 796 428 c 0,6,7
 820 568 820 568 737 668 c 128,-1,8
 654 768 654 768 454 768 c 0,9,10
 346 768 346 768 236 746 c 1,11,-1
 402 1336 l 1,12,-1
 302 1336 l 1,13,-1
 324 1470 l 1,14,-1
 1052 1470 l 1,15,-1
 1030 1334 l 1,16,-1
 546 1334 l 1,17,-1
 424 892 l 1,18,19
 458 896 458 896 532 896 c 0,20,21
 762 896 762 896 875 764 c 128,-1,22
 988 632 988 632 954 430 c 0,23,24
 920 226 920 226 778 95 c 128,-1,25
 636 -36 636 -36 418 -36 c 0,26,27
 254 -36 254 -36 159 41 c 128,-1,28
 64 118 64 118 32 236 c 1,0,-1
EndSplineSet
EndChar

StartChar: uni01BD
Encoding: 445 445 383
Width: 868
GlyphClass: 2
Flags: W
LayerCount: 2
Fore
SplineSet
18 174 m 1,0,-1
 142 232 l 1,1,2
 164 168 164 168 215 130 c 128,-1,3
 266 92 266 92 328 92 c 0,4,5
 432 92 432 92 498 151 c 128,-1,6
 564 210 564 210 580 304 c 0,7,8
 596 404 596 404 531 473 c 128,-1,9
 466 542 466 542 342 542 c 0,10,11
 266 542 266 542 176 528 c 1,12,-1
 302 928 l 1,13,-1
 218 928 l 1,14,-1
 238 1056 l 1,15,-1
 792 1056 l 1,16,-1
 772 928 l 1,17,-1
 424 928 l 1,18,-1
 344 670 l 1,19,-1
 394 670 l 2,20,21
 570 670 570 670 660 568 c 128,-1,22
 750 466 750 466 724 310 c 0,23,24
 700 160 700 160 592 62 c 128,-1,25
 484 -36 484 -36 306 -36 c 0,26,27
 92 -36 92 -36 18 174 c 1,0,-1
EndSplineSet
EndChar

StartChar: uni01BE
Encoding: 446 446 384
Width: 812
GlyphClass: 2
Flags: W
LayerCount: 2
Fore
SplineSet
122 928 m 1,0,-1
 142 1056 l 1,1,-1
 290 1056 l 1,2,-1
 344 1384 l 1,3,-1
 484 1384 l 1,4,-1
 430 1056 l 1,5,-1
 678 1056 l 1,6,-1
 658 928 l 1,7,-1
 408 928 l 1,8,-1
 386 794 l 2,9,10
 374 724 374 724 404 668 c 128,-1,11
 434 612 434 612 482 573 c 128,-1,12
 530 534 530 534 577 494 c 128,-1,13
 624 454 624 454 652 394 c 128,-1,14
 680 334 680 334 666 256 c 0,15,16
 644 128 644 128 551 46 c 128,-1,17
 458 -36 458 -36 294 -36 c 0,18,19
 78 -36 78 -36 4 164 c 1,20,-1
 118 228 l 1,21,22
 188 92 188 92 312 92 c 0,23,24
 402 92 402 92 456 134 c 128,-1,25
 510 176 510 176 522 252 c 0,26,27
 530 302 530 302 500 346 c 128,-1,28
 470 390 470 390 422 427 c 128,-1,29
 374 464 374 464 327 507 c 128,-1,30
 280 550 280 550 254 619 c 128,-1,31
 228 688 228 688 242 778 c 2,32,-1
 268 928 l 1,33,-1
 122 928 l 1,0,-1
EndSplineSet
EndChar

StartChar: uni01BF
Encoding: 447 447 385
Width: 1082
GlyphClass: 2
Flags: W
LayerCount: 2
Fore
SplineSet
-18 -462 m 1,0,-1
 234 1056 l 1,1,-1
 376 1056 l 1,2,-1
 362 968 l 1,3,4
 526 1092 526 1092 688 1092 c 0,5,6
 876 1092 876 1092 964 975 c 128,-1,7
 1052 858 1052 858 1020 662 c 0,8,9
 928 104 928 104 202 2 c 1,10,-1
 126 -462 l 1,11,-1
 -18 -462 l 1,0,-1
222 126 m 1,12,13
 492 164 492 164 665 294 c 128,-1,14
 838 424 838 424 874 644 c 0,15,16
 900 802 900 802 836 883 c 128,-1,17
 772 964 772 964 648 964 c 0,18,19
 564 964 564 964 479 920 c 128,-1,20
 394 876 394 876 338 818 c 1,21,-1
 222 126 l 1,12,13
EndSplineSet
EndChar

StartChar: uni01C0
Encoding: 448 448 386
Width: 432
GlyphClass: 2
Flags: W
LayerCount: 2
Fore
SplineSet
-18 -428 m 1,0,-1
 324 1636 l 1,1,-1
 462 1636 l 1,2,-1
 120 -428 l 1,3,-1
 -18 -428 l 1,0,-1
EndSplineSet
EndChar

StartChar: uni01C1
Encoding: 449 449 387
Width: 756
GlyphClass: 2
Flags: W
LayerCount: 2
Fore
SplineSet
-18 -428 m 1,0,-1
 324 1636 l 1,1,-1
 462 1636 l 1,2,-1
 120 -428 l 1,3,-1
 -18 -428 l 1,0,-1
310 -428 m 1,4,-1
 652 1636 l 1,5,-1
 788 1636 l 1,6,-1
 448 -428 l 1,7,-1
 310 -428 l 1,4,-1
EndSplineSet
EndChar

StartChar: uni01C2
Encoding: 450 450 388
Width: 608
GlyphClass: 2
Flags: W
LayerCount: 2
Fore
SplineSet
82 844 m 1,0,-1
 100 952 l 1,1,-1
 304 952 l 1,2,-1
 418 1636 l 1,3,-1
 552 1636 l 1,4,-1
 440 952 l 1,5,-1
 638 952 l 1,6,-1
 620 844 l 1,7,-1
 422 844 l 1,8,-1
 368 518 l 1,9,-1
 566 518 l 1,10,-1
 548 410 l 1,11,-1
 350 410 l 1,12,-1
 210 -428 l 1,13,-1
 76 -428 l 1,14,-1
 214 410 l 1,15,-1
 10 410 l 1,16,-1
 28 518 l 1,17,-1
 232 518 l 1,18,-1
 286 844 l 1,19,-1
 82 844 l 1,0,-1
EndSplineSet
EndChar

StartChar: uni01DD
Encoding: 477 477 415
Width: 1042
GlyphClass: 2
Flags: W
LayerCount: 2
Fore
SplineSet
64 498 m 0,0,1
 72 552 72 552 78 578 c 1,2,-1
 824 578 l 1,3,4
 850 734 850 734 784 849 c 128,-1,5
 718 964 718 964 570 964 c 0,6,7
 470 964 470 964 387 914 c 128,-1,8
 304 864 304 864 256 788 c 1,9,-1
 142 826 l 1,10,11
 208 940 208 940 321 1016 c 128,-1,12
 434 1092 434 1092 594 1092 c 0,13,14
 808 1092 808 1092 903 933 c 128,-1,15
 998 774 998 774 956 520 c 0,16,17
 914 270 914 270 763 117 c 128,-1,18
 612 -36 612 -36 414 -36 c 0,19,20
 214 -36 214 -36 119 113 c 128,-1,21
 24 262 24 262 64 498 c 0,0,1
202 462 m 1,22,23
 176 306 176 306 237 199 c 128,-1,24
 298 92 298 92 436 92 c 0,25,26
 568 92 568 92 668 199 c 128,-1,27
 768 306 768 306 804 462 c 1,28,-1
 202 462 l 1,22,23
EndSplineSet
EndChar

StartChar: uni01E4
Encoding: 484 484 422
Width: 1404
GlyphClass: 2
Flags: W
LayerCount: 2
Fore
SplineSet
120 734 m 0,0,1
 176 1072 176 1072 378 1289 c 128,-1,2
 580 1506 580 1506 878 1506 c 0,3,4
 1058 1506 1058 1506 1163 1410 c 128,-1,5
 1268 1314 1268 1314 1306 1194 c 1,6,-1
 1166 1146 l 1,7,8
 1142 1194 1142 1194 1125 1222 c 128,-1,9
 1108 1250 1108 1250 1071 1290 c 128,-1,10
 1034 1330 1034 1330 980 1351 c 128,-1,11
 926 1372 926 1372 856 1372 c 0,12,13
 634 1372 634 1372 479 1197 c 128,-1,14
 324 1022 324 1022 278 734 c 0,15,16
 230 442 230 442 327 271 c 128,-1,17
 424 100 424 100 634 100 c 0,18,19
 770 100 770 100 877 171 c 0,20,21
 982 242 982 242 1042 364 c 1,22,-1
 648 364 l 1,23,-1
 664 472 l 1,24,-1
 1084 472 l 1,25,26
 1098 518 1098 518 1104 556 c 2,27,-1
 1122 660 l 1,28,-1
 712 660 l 1,29,-1
 734 792 l 1,30,-1
 1294 792 l 1,31,-1
 1242 472 l 1,32,-1
 1374 472 l 1,33,-1
 1356 364 l 1,34,-1
 1224 364 l 1,35,-1
 1164 0 l 1,36,-1
 1050 0 l 1,37,-1
 1074 216 l 1,38,39
 1004 104 1004 104 887 34 c 128,-1,40
 770 -36 770 -36 612 -36 c 0,41,42
 334 -36 334 -36 198 171 c 128,-1,43
 62 378 62 378 120 734 c 0,0,1
EndSplineSet
EndChar

StartChar: uni01E5
Encoding: 485 485 423
Width: 1088
GlyphClass: 2
Flags: W
LayerCount: 2
Fore
SplineSet
76 554 m 0,0,1
 114 788 114 788 254 940 c 128,-1,2
 394 1092 394 1092 578 1092 c 0,3,4
 694 1092 694 1092 757 1028 c 128,-1,5
 820 964 820 964 838 884 c 1,6,-1
 866 1056 l 1,7,-1
 1008 1056 l 1,8,-1
 856 144 l 2,9,10
 834 12 834 12 808 -70 c 1,11,-1
 950 -70 l 1,12,-1
 934 -170 l 1,13,-1
 770 -170 l 1,14,15
 702 -318 702 -318 597 -394 c 128,-1,16
 492 -470 492 -470 330 -470 c 0,17,18
 92 -470 92 -470 -10 -276 c 1,19,-1
 100 -208 l 1,20,21
 188 -346 188 -346 354 -346 c 0,22,23
 524 -346 524 -346 622 -170 c 1,24,-1
 262 -170 l 1,25,-1
 278 -70 l 1,26,-1
 666 -70 l 1,27,28
 690 -2 690 -2 710 112 c 2,29,-1
 734 252 l 1,30,31
 682 162 682 162 596 106 c 128,-1,32
 510 50 510 50 404 50 c 0,33,34
 222 50 222 50 130 186 c 128,-1,35
 38 322 38 322 76 554 c 0,0,1
220 554 m 0,36,37
 190 374 190 374 254 274 c 128,-1,38
 318 174 318 174 436 174 c 0,39,40
 562 174 562 174 658 281 c 128,-1,41
 754 388 754 388 784 574 c 0,42,43
 814 750 814 750 754 857 c 128,-1,44
 694 964 694 964 574 964 c 0,45,46
 444 964 444 964 347 847 c 128,-1,47
 250 730 250 730 220 554 c 0,36,37
EndSplineSet
EndChar

StartChar: uni01EF
Encoding: 495 495 433
Width: 1034
GlyphClass: 2
Flags: W
LayerCount: 2
Fore
SplineSet
304 1576 m 1,0,-1
 450 1576 l 1,1,-1
 624 1344 l 1,2,-1
 878 1576 l 1,3,-1
 1024 1576 l 1,4,-1
 674 1258 l 1,5,-1
 546 1258 l 1,6,-1
 304 1576 l 1,0,-1
-48 -168 m 1,7,-1
 84 -130 l 1,8,9
 144 -342 144 -342 344 -342 c 0,10,11
 486 -342 486 -342 584 -242 c 128,-1,12
 682 -142 682 -142 710 18 c 0,13,14
 734 168 734 168 652 261 c 128,-1,15
 570 354 570 354 390 354 c 2,16,-1
 232 354 l 1,17,-1
 248 458 l 1,18,-1
 746 928 l 1,19,-1
 190 928 l 1,20,-1
 210 1056 l 1,21,-1
 974 1056 l 1,22,-1
 958 960 l 1,23,-1
 428 468 l 1,24,-1
 520 464 l 1,25,26
 694 440 694 440 789 320 c 128,-1,27
 884 200 884 200 854 18 c 0,28,29
 818 -200 818 -200 673 -335 c 128,-1,30
 528 -470 528 -470 326 -470 c 0,31,32
 170 -470 170 -470 75 -387 c 128,-1,33
 -20 -304 -20 -304 -48 -168 c 1,7,-1
EndSplineSet
EndChar

StartChar: uni01F6
Encoding: 502 502 440
Width: 1972
GlyphClass: 2
Flags: W
LayerCount: 2
Fore
SplineSet
92 0 m 1,0,-1
 334 1470 l 1,1,-1
 490 1470 l 1,2,-1
 382 822 l 1,3,-1
 1058 822 l 1,4,-1
 1166 1470 l 1,5,-1
 1320 1470 l 1,6,-1
 1140 382 l 2,7,8
 1116 234 1116 234 1179 163 c 128,-1,9
 1242 92 1242 92 1358 92 c 0,10,11
 1466 92 1466 92 1550 167 c 128,-1,12
 1634 242 1634 242 1654 368 c 2,13,-1
 1768 1056 l 1,14,-1
 1920 1056 l 1,15,-1
 1804 352 l 2,16,17
 1772 164 1772 164 1639 64 c 128,-1,18
 1506 -36 1506 -36 1336 -36 c 0,19,20
 1158 -36 1158 -36 1053 58 c 128,-1,21
 948 152 948 152 980 352 c 2,22,-1
 1036 690 l 1,23,-1
 360 690 l 1,24,-1
 246 0 l 1,25,-1
 92 0 l 1,0,-1
EndSplineSet
EndChar

StartChar: uni01F7
Encoding: 503 503 441
Width: 1244
GlyphClass: 2
Flags: W
LayerCount: 2
Fore
SplineSet
18 -442 m 1,0,-1
 334 1470 l 1,1,-1
 490 1470 l 1,2,-1
 464 1310 l 1,3,4
 688 1506 688 1506 898 1506 c 0,5,6
 1102 1506 1102 1506 1186 1368 c 128,-1,7
 1270 1230 1270 1230 1230 990 c 0,8,9
 1204 838 1204 838 1124 698 c 128,-1,10
 1044 558 1044 558 944 456 c 128,-1,11
 844 354 844 354 712 261 c 128,-1,12
 580 168 580 168 472 111 c 128,-1,13
 364 54 364 54 248 4 c 1,14,-1
 174 -442 l 1,15,-1
 18 -442 l 1,0,-1
272 152 m 1,16,17
 364 194 364 194 449 243 c 128,-1,18
 534 292 534 292 642 372 c 128,-1,19
 750 452 750 452 834 538 c 128,-1,20
 918 624 918 624 985 741 c 128,-1,21
 1052 858 1052 858 1072 982 c 0,22,23
 1102 1160 1102 1160 1045 1267 c 128,-1,24
 988 1374 988 1374 842 1374 c 0,25,26
 744 1374 744 1374 628 1305 c 128,-1,27
 512 1236 512 1236 436 1148 c 1,28,-1
 272 152 l 1,16,17
EndSplineSet
EndChar

StartChar: Aringacute
Encoding: 506 506 444
Width: 1250
GlyphClass: 2
Flags: W
LayerCount: 2
Fore
SplineSet
-102 0 m 1,0,-1
 682 1470 l 1,1,-1
 870 1470 l 1,2,-1
 1164 0 l 1,3,-1
 994 0 l 1,4,-1
 920 424 l 1,5,-1
 284 424 l 1,6,-1
 68 0 l 1,7,-1
 -102 0 l 1,0,-1
556 1752 m 0,8,9
 572 1854 572 1854 658 1928 c 0,10,11
 720 1980 720 1980 798 1996 c 1,12,-1
 982 2232 l 1,13,-1
 1176 2232 l 1,14,-1
 934 1992 l 1,15,16
 996 1976 996 1976 1036 1928 c 0,17,18
 1098 1854 1098 1854 1080 1752 c 0,19,20
 1062 1648 1062 1648 976 1575 c 128,-1,21
 890 1502 890 1502 776 1502 c 0,22,23
 666 1502 666 1502 602 1574 c 128,-1,24
 538 1646 538 1646 556 1752 c 0,8,9
352 550 m 1,25,-1
 894 550 l 1,26,-1
 806 1044 l 2,27,28
 798 1090 798 1090 781 1189 c 128,-1,29
 764 1288 764 1288 758 1326 c 1,30,-1
 746 1326 l 1,31,32
 626 1086 626 1086 604 1044 c 2,33,-1
 352 550 l 1,25,-1
662 1752 m 256,34,35
 652 1688 652 1688 689 1643 c 128,-1,36
 726 1598 726 1598 792 1598 c 256,37,38
 858 1598 858 1598 909 1642 c 128,-1,39
 960 1686 960 1686 970 1752 c 256,40,41
 980 1818 980 1818 946 1862 c 128,-1,42
 912 1906 912 1906 844 1906 c 256,43,44
 776 1906 776 1906 724 1861 c 128,-1,45
 672 1816 672 1816 662 1752 c 256,34,35
EndSplineSet
EndChar

StartChar: aringacute
Encoding: 507 507 445
Width: 1034
GlyphClass: 2
Flags: W
LayerCount: 2
Fore
SplineSet
24 260 m 0,0,1
 72 554 72 554 514 624 c 0,2,3
 712 658 712 658 780 680 c 1,4,-1
 790 740 l 2,5,6
 806 838 806 838 750 903 c 128,-1,7
 694 968 694 968 572 968 c 0,8,9
 484 968 484 968 393 924 c 128,-1,10
 302 880 302 880 232 804 c 1,11,-1
 154 888 l 1,12,13
 242 978 242 978 356 1035 c 128,-1,14
 470 1092 470 1092 588 1092 c 0,15,16
 988 1092 988 1092 920 678 c 2,17,-1
 808 0 l 1,18,-1
 670 0 l 1,19,-1
 698 172 l 1,20,21
 656 88 656 88 552 26 c 128,-1,22
 448 -36 448 -36 324 -36 c 0,23,24
 158 -36 158 -36 80 47 c 128,-1,25
 2 130 2 130 24 260 c 0,0,1
394 1452 m 0,26,27
 410 1554 410 1554 498 1628 c 0,28,29
 558 1680 558 1680 632 1696 c 1,30,-1
 810 1932 l 1,31,-1
 998 1932 l 1,32,-1
 762 1692 l 1,33,34
 822 1676 822 1676 860 1628 c 0,35,36
 920 1554 920 1554 904 1452 c 0,37,38
 886 1348 886 1348 802 1275 c 128,-1,39
 718 1202 718 1202 608 1202 c 0,40,41
 502 1202 502 1202 439 1274 c 128,-1,42
 376 1346 376 1346 394 1452 c 0,26,27
170 270 m 0,43,44
 158 196 158 196 209 144 c 128,-1,45
 260 92 260 92 364 92 c 0,46,47
 494 92 494 92 603 182 c 128,-1,48
 712 272 712 272 734 412 c 2,49,-1
 760 560 l 1,50,51
 674 538 674 538 492 508 c 0,52,53
 342 480 342 480 264 424 c 128,-1,54
 186 368 186 368 170 270 c 0,43,44
498 1452 m 256,55,56
 488 1388 488 1388 524 1343 c 128,-1,57
 560 1298 560 1298 624 1298 c 256,58,59
 688 1298 688 1298 737 1342 c 128,-1,60
 786 1386 786 1386 798 1452 c 256,61,62
 808 1518 808 1518 775 1562 c 128,-1,63
 742 1606 742 1606 676 1606 c 256,64,65
 610 1606 610 1606 559 1561 c 128,-1,66
 508 1516 508 1516 498 1452 c 256,55,56
EndSplineSet
EndChar

StartChar: uni021C
Encoding: 540 540 478
Width: 1110
GlyphClass: 2
Flags: W
LayerCount: 2
Fore
SplineSet
-54 -282 m 1,0,1
 94 -312 94 -312 214 -312 c 0,2,3
 438 -312 438 -312 598 -191 c 128,-1,4
 758 -70 758 -70 792 138 c 0,5,6
 812 254 812 254 791 339 c 128,-1,7
 770 424 770 424 719 468 c 128,-1,8
 668 512 668 512 610 532 c 128,-1,9
 552 552 552 552 482 552 c 0,10,11
 398 552 398 552 284 508 c 1,12,-1
 306 646 l 1,13,-1
 498 692 l 2,14,15
 672 736 672 736 785 838 c 128,-1,16
 898 940 898 940 920 1078 c 0,17,18
 942 1214 942 1214 872 1292 c 128,-1,19
 802 1370 802 1370 652 1370 c 0,20,21
 452 1370 452 1370 316 1170 c 1,22,-1
 200 1226 l 1,23,24
 278 1350 278 1350 399 1428 c 128,-1,25
 520 1506 520 1506 672 1506 c 0,26,27
 910 1506 910 1506 1012 1394 c 128,-1,28
 1114 1282 1114 1282 1082 1094 c 0,29,30
 1054 922 1054 922 934 802 c 128,-1,31
 814 682 814 682 680 636 c 1,32,-1
 680 634 l 1,33,34
 816 600 816 600 902 478 c 128,-1,35
 988 356 988 356 952 138 c 0,36,37
 908 -128 908 -128 700 -289 c 128,-1,38
 492 -450 492 -450 194 -450 c 0,39,40
 60 -450 60 -450 -78 -428 c 1,41,-1
 -54 -282 l 1,0,1
EndSplineSet
EndChar

StartChar: uni021D
Encoding: 541 541 479
Width: 844
GlyphClass: 2
Flags: W
LayerCount: 2
Fore
SplineSet
-66 -320 m 1,0,1
 30 -342 30 -342 126 -342 c 0,2,3
 278 -342 278 -342 385 -251 c 128,-1,4
 492 -160 492 -160 518 4 c 0,5,6
 542 150 542 150 481 232 c 128,-1,7
 420 314 420 314 318 314 c 0,8,9
 262 314 262 314 184 290 c 1,10,-1
 204 414 l 1,11,-1
 334 446 l 2,12,13
 452 474 452 474 530 557 c 128,-1,14
 608 640 608 640 626 742 c 0,15,16
 642 838 642 838 603 901 c 128,-1,17
 564 964 564 964 460 964 c 0,18,19
 328 964 328 964 240 820 c 1,20,-1
 136 876 l 1,21,22
 188 972 188 972 283 1032 c 128,-1,23
 378 1092 378 1092 490 1092 c 0,24,25
 654 1092 654 1092 723 993 c 128,-1,26
 792 894 792 894 770 762 c 0,27,28
 748 626 748 626 668 532 c 128,-1,29
 588 438 588 438 482 392 c 1,30,31
 574 364 574 364 631 265 c 128,-1,32
 688 166 688 166 662 8 c 0,33,34
 624 -218 624 -218 476 -344 c 128,-1,35
 328 -470 328 -470 108 -470 c 0,36,37
 16 -470 16 -470 -88 -454 c 1,38,-1
 -66 -320 l 1,0,1
EndSplineSet
EndChar

StartChar: uni0220
Encoding: 544 544 482
Width: 1376
GlyphClass: 2
Flags: W
LayerCount: 2
Fore
SplineSet
92 0 m 1,0,-1
 334 1470 l 1,1,-1
 484 1470 l 1,2,-1
 454 1286 l 1,3,-1
 456 1286 l 1,4,5
 496 1332 496 1332 549 1375 c 128,-1,6
 602 1418 602 1418 706 1462 c 128,-1,7
 810 1506 810 1506 920 1506 c 0,8,9
 1352 1506 1352 1506 1266 998 c 2,10,-1
 1024 -462 l 1,11,-1
 870 -462 l 1,12,-1
 1108 980 l 2,13,14
 1142 1180 1142 1180 1084 1276 c 128,-1,15
 1026 1372 1026 1372 864 1372 c 0,16,17
 722 1372 722 1372 577 1249 c 128,-1,18
 432 1126 432 1126 410 988 c 2,19,-1
 246 0 l 1,20,-1
 92 0 l 1,0,-1
EndSplineSet
EndChar

StartChar: uni0221
Encoding: 545 545 483
Width: 1430
GlyphClass: 2
Flags: W
LayerCount: 2
Fore
SplineSet
842 -218 m 1,0,1
 850 -272 850 -272 894 -308 c 128,-1,2
 938 -344 938 -344 1004 -344 c 0,3,4
 1062 -344 1062 -344 1099 -314 c 128,-1,5
 1136 -284 1136 -284 1142 -236 c 0,6,7
 1150 -182 1150 -182 1122 -148 c 128,-1,8
 1094 -114 1094 -114 1040 -114 c 0,9,10
 936 -114 936 -114 842 -218 c 1,0,1
72 528 m 0,11,12
 116 788 116 788 260 940 c 128,-1,13
 404 1092 404 1092 586 1092 c 0,14,15
 696 1092 696 1092 765 1026 c 128,-1,16
 834 960 834 960 852 872 c 1,17,-1
 960 1524 l 1,18,-1
 1102 1524 l 1,19,-1
 858 52 l 2,20,21
 840 -54 840 -54 842 -76 c 1,22,23
 878 -42 878 -42 940 -14 c 128,-1,24
 1002 14 1002 14 1064 14 c 0,25,26
 1190 14 1190 14 1247 -57 c 128,-1,27
 1304 -128 1304 -128 1286 -230 c 0,28,29
 1268 -336 1268 -336 1185 -403 c 128,-1,30
 1102 -470 1102 -470 984 -470 c 0,31,32
 898 -470 898 -470 841 -428 c 128,-1,33
 784 -386 784 -386 758 -332 c 1,34,35
 714 -390 714 -390 678 -460 c 1,36,-1
 566 -422 l 1,37,38
 632 -290 632 -290 700 -212 c 1,39,40
 686 -156 686 -156 714 16 c 2,41,-1
 744 190 l 1,42,43
 692 96 692 96 601 30 c 128,-1,44
 510 -36 510 -36 398 -36 c 0,45,46
 322 -36 322 -36 256 -4 c 128,-1,47
 190 28 190 28 138 92 c 128,-1,48
 86 156 86 156 67 268 c 128,-1,49
 48 380 48 380 72 528 c 0,11,12
216 528 m 0,50,51
 184 330 184 330 246 211 c 128,-1,52
 308 92 308 92 438 92 c 0,53,54
 560 92 560 92 663 210 c 128,-1,55
 766 328 766 328 800 528 c 0,56,57
 832 726 832 726 767 845 c 128,-1,58
 702 964 702 964 582 964 c 0,59,60
 450 964 450 964 349 844 c 128,-1,61
 248 724 248 724 216 528 c 0,50,51
EndSplineSet
EndChar

StartChar: uni0222
Encoding: 546 546 484
Width: 1322
GlyphClass: 2
Flags: W
LayerCount: 2
Fore
SplineSet
64 472 m 0,0,1
 90 628 90 628 200 752 c 128,-1,2
 310 876 310 876 464 934 c 1,3,4
 354 978 354 978 296 1074 c 128,-1,5
 238 1170 238 1170 264 1318 c 0,6,7
 280 1412 280 1412 306 1470 c 1,8,-1
 454 1470 l 1,9,10
 428 1372 428 1372 422 1328 c 0,11,12
 400 1192 400 1192 483 1093 c 128,-1,13
 566 994 566 994 732 994 c 0,14,15
 888 994 888 994 1009 1090 c 128,-1,16
 1130 1186 1130 1186 1152 1328 c 0,17,18
 1160 1382 1160 1382 1164 1470 c 1,19,-1
 1316 1470 l 1,20,21
 1324 1414 1324 1414 1308 1318 c 0,22,23
 1282 1166 1282 1166 1189 1071 c 128,-1,24
 1096 976 1096 976 974 934 c 1,25,26
 1112 882 1112 882 1182 755 c 128,-1,27
 1252 628 1252 628 1226 472 c 0,28,29
 1192 268 1192 268 1018 116 c 128,-1,30
 844 -36 844 -36 562 -36 c 256,31,32
 280 -36 280 -36 155 115 c 128,-1,33
 30 266 30 266 64 472 c 0,0,1
224 472 m 0,34,35
 196 306 196 306 297 202 c 128,-1,36
 398 98 398 98 584 98 c 0,37,38
 764 98 764 98 901 202 c 128,-1,39
 1038 306 1038 306 1066 472 c 0,40,41
 1092 634 1092 634 991 746 c 128,-1,42
 890 858 890 858 710 858 c 0,43,44
 534 858 534 858 393 750 c 128,-1,45
 252 642 252 642 224 472 c 0,34,35
EndSplineSet
EndChar

StartChar: uni0223
Encoding: 547 547 485
Width: 1044
GlyphClass: 2
Flags: W
LayerCount: 2
Fore
SplineSet
64 482 m 0,0,1
 94 664 94 664 196 793 c 128,-1,2
 298 922 298 922 418 964 c 1,3,4
 320 1000 320 1000 273 1096 c 128,-1,5
 226 1192 226 1192 252 1346 c 0,6,7
 268 1440 268 1440 296 1506 c 1,8,-1
 432 1506 l 1,9,10
 404 1408 404 1408 396 1356 c 0,11,12
 372 1214 372 1214 422 1117 c 128,-1,13
 472 1020 472 1020 598 1020 c 0,14,15
 716 1020 716 1020 801 1115 c 128,-1,16
 886 1210 886 1210 910 1356 c 0,17,18
 918 1406 918 1406 922 1506 c 1,19,-1
 1060 1506 l 1,20,21
 1066 1446 1066 1446 1050 1346 c 0,22,23
 1026 1198 1026 1198 946 1098 c 128,-1,24
 866 998 866 998 758 964 c 1,25,26
 868 926 868 926 926 795 c 128,-1,27
 984 664 984 664 954 482 c 0,28,29
 918 268 918 268 779 116 c 128,-1,30
 640 -36 640 -36 422 -36 c 0,31,32
 206 -36 206 -36 117 114 c 128,-1,33
 28 264 28 264 64 482 c 0,0,1
208 482 m 0,34,35
 180 312 180 312 244 203 c 128,-1,36
 308 94 308 94 444 94 c 0,37,38
 574 94 574 94 678 200 c 128,-1,39
 782 306 782 306 810 482 c 0,40,41
 838 656 838 656 771 774 c 128,-1,42
 704 892 704 892 576 892 c 0,43,44
 452 892 452 892 345 777 c 128,-1,45
 238 662 238 662 208 482 c 0,34,35
EndSplineSet
EndChar

StartChar: uni0224
Encoding: 548 548 486
Width: 1188
GlyphClass: 2
Flags: W
LayerCount: 2
Fore
SplineSet
-12 0 m 1,0,-1
 8 116 l 1,1,-1
 1022 1336 l 1,2,-1
 274 1336 l 1,3,-1
 296 1470 l 1,4,-1
 1230 1470 l 1,5,-1
 1212 1352 l 1,6,-1
 196 134 l 1,7,-1
 808 134 l 2,8,9
 972 134 972 134 1035 51 c 128,-1,10
 1098 -32 1098 -32 1068 -210 c 0,11,12
 1048 -334 1048 -334 978 -462 c 1,13,-1
 836 -462 l 1,14,15
 910 -332 910 -332 928 -228 c 0,16,17
 946 -120 946 -120 907 -60 c 128,-1,18
 868 0 868 0 742 0 c 2,19,-1
 -12 0 l 1,0,-1
EndSplineSet
EndChar

StartChar: uni0225
Encoding: 549 549 487
Width: 904
GlyphClass: 2
Flags: W
LayerCount: 2
Fore
SplineSet
-38 0 m 1,0,-1
 -20 102 l 1,1,-1
 704 936 l 1,2,-1
 168 936 l 1,3,-1
 190 1064 l 1,4,-1
 910 1064 l 1,5,-1
 894 968 l 1,6,-1
 168 128 l 1,7,-1
 630 128 l 2,8,9
 770 128 770 128 826 47 c 128,-1,10
 882 -34 882 -34 854 -204 c 0,11,12
 828 -362 828 -362 774 -462 c 1,13,-1
 648 -462 l 1,14,15
 702 -358 702 -358 724 -226 c 0,16,17
 744 -110 744 -110 709 -55 c 128,-1,18
 674 0 674 0 574 0 c 2,19,-1
 -38 0 l 1,0,-1
EndSplineSet
EndChar

StartChar: uni0234
Encoding: 564 564 502
Width: 768
GlyphClass: 2
Flags: W
LayerCount: 2
Fore
SplineSet
200 -218 m 1,0,1
 206 -272 206 -272 251 -308 c 128,-1,2
 296 -344 296 -344 360 -344 c 0,3,4
 416 -344 416 -344 454 -314 c 128,-1,5
 492 -284 492 -284 500 -236 c 0,6,7
 508 -182 508 -182 480 -148 c 128,-1,8
 452 -114 452 -114 396 -114 c 0,9,10
 296 -114 296 -114 200 -218 c 1,0,1
-78 -422 m 1,11,12
 -4 -280 -4 -280 54 -212 c 1,13,14
 38 -150 38 -150 68 30 c 2,15,-1
 316 1524 l 1,16,-1
 458 1524 l 1,17,-1
 216 56 l 2,18,19
 198 -52 198 -52 200 -76 c 1,20,21
 240 -40 240 -40 301 -13 c 128,-1,22
 362 14 362 14 422 14 c 0,23,24
 546 14 546 14 602 -57 c 128,-1,25
 658 -128 658 -128 642 -230 c 0,26,27
 624 -336 624 -336 541 -403 c 128,-1,28
 458 -470 458 -470 342 -470 c 0,29,30
 256 -470 256 -470 199 -428 c 128,-1,31
 142 -386 142 -386 114 -332 c 1,32,33
 66 -398 66 -398 34 -460 c 1,34,-1
 -78 -422 l 1,11,12
EndSplineSet
EndChar

StartChar: uni0235
Encoding: 565 565 503
Width: 1392
GlyphClass: 2
Flags: W
LayerCount: 2
Fore
SplineSet
818 -218 m 1,0,1
 826 -272 826 -272 872 -308 c 128,-1,2
 918 -344 918 -344 982 -344 c 0,3,4
 1038 -344 1038 -344 1075 -313 c 128,-1,5
 1112 -282 1112 -282 1120 -236 c 0,6,7
 1128 -186 1128 -186 1101 -150 c 128,-1,8
 1074 -114 1074 -114 1018 -114 c 0,9,10
 916 -114 916 -114 818 -218 c 1,0,1
50 0 m 1,11,-1
 224 1056 l 1,12,-1
 362 1056 l 1,13,-1
 332 876 l 1,14,-1
 334 876 l 1,15,16
 366 946 366 946 464 1019 c 128,-1,17
 562 1092 562 1092 688 1092 c 0,18,19
 826 1092 826 1092 902 999 c 128,-1,20
 978 906 978 906 940 682 c 2,21,-1
 838 58 l 2,22,23
 820 -52 820 -52 820 -76 c 1,24,25
 858 -38 858 -38 920 -12 c 128,-1,26
 982 14 982 14 1042 14 c 0,27,28
 1162 14 1162 14 1221 -56 c 128,-1,29
 1280 -126 1280 -126 1264 -230 c 0,30,31
 1246 -336 1246 -336 1162 -403 c 128,-1,32
 1078 -470 1078 -470 962 -470 c 0,33,34
 874 -470 874 -470 818 -428 c 128,-1,35
 762 -386 762 -386 736 -332 c 1,36,37
 688 -400 688 -400 656 -460 c 1,38,-1
 542 -422 l 1,39,40
 602 -298 602 -298 676 -212 c 1,41,42
 660 -152 660 -152 690 36 c 2,43,-1
 794 658 l 2,44,45
 844 964 844 964 636 964 c 0,46,47
 520 964 520 964 419 865 c 128,-1,48
 318 766 318 766 296 630 c 2,49,-1
 190 0 l 1,50,-1
 50 0 l 1,11,-1
EndSplineSet
EndChar

StartChar: uni0236
Encoding: 566 566 504
Width: 822
GlyphClass: 2
Flags: W
LayerCount: 2
Fore
SplineSet
250 -218 m 1,0,1
 258 -272 258 -272 304 -308 c 128,-1,2
 350 -344 350 -344 412 -344 c 256,3,4
 474 -344 474 -344 509 -312 c 128,-1,5
 544 -280 544 -280 552 -236 c 0,6,7
 560 -188 560 -188 534 -151 c 128,-1,8
 508 -114 508 -114 448 -114 c 0,9,10
 346 -114 346 -114 250 -218 c 1,0,1
96 928 m 1,11,-1
 118 1056 l 1,12,-1
 292 1056 l 1,13,-1
 348 1396 l 1,14,-1
 490 1396 l 1,15,-1
 434 1056 l 1,16,-1
 700 1056 l 1,17,-1
 678 928 l 1,18,-1
 412 928 l 1,19,-1
 266 52 l 2,20,21
 248 -52 248 -52 252 -76 c 1,22,23
 292 -38 292 -38 353 -12 c 128,-1,24
 414 14 414 14 472 14 c 0,25,26
 598 14 598 14 655 -57 c 128,-1,27
 712 -128 712 -128 696 -230 c 0,28,29
 678 -336 678 -336 594 -403 c 128,-1,30
 510 -470 510 -470 392 -470 c 0,31,32
 306 -470 306 -470 249 -428 c 128,-1,33
 192 -386 192 -386 168 -332 c 1,34,35
 110 -412 110 -412 86 -460 c 1,36,-1
 -24 -422 l 1,37,38
 52 -270 52 -270 108 -212 c 1,39,40
 92 -150 92 -150 124 40 c 2,41,-1
 270 928 l 1,42,-1
 96 928 l 1,11,-1
EndSplineSet
EndChar

StartChar: uni0237
Encoding: 567 567 505
Width: 504
GlyphClass: 2
Flags: W
LayerCount: 2
Fore
SplineSet
-172 -334 m 1,0,-1
 -128 -334 l 2,1,2
 40 -334 40 -334 80 -90 c 2,3,-1
 270 1056 l 1,4,-1
 412 1056 l 1,5,-1
 222 -98 l 2,6,7
 192 -276 192 -276 102 -369 c 128,-1,8
 12 -462 12 -462 -124 -462 c 2,9,-1
 -192 -462 l 1,10,-1
 -172 -334 l 1,0,-1
EndSplineSet
EndChar

StartChar: uni0238
Encoding: 568 568 506
Width: 1746
GlyphClass: 2
Flags: W
LayerCount: 2
Fore
SplineSet
72 528 m 0,0,1
 116 790 116 790 262 941 c 128,-1,2
 408 1092 408 1092 586 1092 c 0,3,4
 696 1092 696 1092 765 1026 c 128,-1,5
 834 960 834 960 852 872 c 1,6,-1
 960 1524 l 1,7,-1
 1102 1524 l 1,8,-1
 994 868 l 1,9,10
 1034 950 1034 950 1130 1021 c 128,-1,11
 1226 1092 1226 1092 1336 1092 c 0,12,13
 1524 1092 1524 1092 1614 941 c 128,-1,14
 1704 790 1704 790 1662 528 c 0,15,16
 1638 380 1638 380 1581 268 c 128,-1,17
 1524 156 1524 156 1451 92 c 128,-1,18
 1378 28 1378 28 1302 -4 c 128,-1,19
 1226 -36 1226 -36 1148 -36 c 0,20,21
 1038 -36 1038 -36 968 30 c 128,-1,22
 898 96 898 96 878 188 c 1,23,-1
 848 0 l 1,24,-1
 712 0 l 1,25,-1
 744 190 l 1,26,27
 688 92 688 92 597 28 c 128,-1,28
 506 -36 506 -36 398 -36 c 0,29,30
 324 -36 324 -36 259 -5 c 128,-1,31
 194 26 194 26 141 89 c 128,-1,32
 88 152 88 152 68 265 c 128,-1,33
 48 378 48 378 72 528 c 0,0,1
216 528 m 256,34,35
 182 326 182 326 245 209 c 128,-1,36
 308 92 308 92 438 92 c 0,37,38
 564 92 564 92 666 212 c 128,-1,39
 768 332 768 332 798 518 c 2,40,-1
 800 534 l 2,41,42
 830 720 830 720 767 842 c 128,-1,43
 704 964 704 964 578 964 c 256,44,45
 452 964 452 964 351 847 c 128,-1,46
 250 730 250 730 216 528 c 256,34,35
934 518 m 2,47,48
 904 336 904 336 964 214 c 128,-1,49
 1024 92 1024 92 1152 92 c 0,50,51
 1282 92 1282 92 1383 208 c 128,-1,52
 1484 324 1484 324 1518 528 c 0,53,54
 1552 728 1552 728 1490 846 c 128,-1,55
 1428 964 1428 964 1298 964 c 0,56,57
 1170 964 1170 964 1068 841 c 128,-1,58
 966 718 966 718 936 534 c 2,59,-1
 934 518 l 2,47,48
EndSplineSet
EndChar

StartChar: uni0239
Encoding: 569 569 507
Width: 1748
GlyphClass: 2
Flags: W
LayerCount: 2
Fore
SplineSet
72 528 m 0,0,1
 114 786 114 786 258 939 c 128,-1,2
 402 1092 402 1092 586 1092 c 0,3,4
 794 1092 794 1092 856 866 c 1,5,-1
 888 1056 l 1,6,-1
 1024 1056 l 1,7,-1
 992 866 l 1,8,9
 1050 964 1050 964 1146 1028 c 128,-1,10
 1242 1092 1242 1092 1346 1092 c 0,11,12
 1528 1092 1528 1092 1618 939 c 128,-1,13
 1708 786 1708 786 1666 528 c 0,14,15
 1620 256 1620 256 1474 110 c 128,-1,16
 1328 -36 1328 -36 1158 -36 c 0,17,18
 1046 -36 1046 -36 974 29 c 128,-1,19
 902 94 902 94 880 186 c 1,20,-1
 774 -462 l 1,21,-1
 632 -462 l 1,22,-1
 738 182 l 1,23,24
 684 90 684 90 595 27 c 128,-1,25
 506 -36 506 -36 400 -36 c 0,26,27
 230 -36 230 -36 128 110 c 128,-1,28
 26 256 26 256 72 528 c 0,0,1
216 528 m 0,29,30
 182 326 182 326 245 209 c 128,-1,31
 308 92 308 92 436 92 c 256,32,33
 564 92 564 92 665 212 c 128,-1,34
 766 332 766 332 798 528 c 2,35,-1
 800 542 l 2,36,37
 830 726 830 726 769 845 c 128,-1,38
 708 964 708 964 584 964 c 0,39,40
 444 964 444 964 346 841 c 128,-1,41
 248 718 248 718 216 528 c 0,29,30
938 528 m 2,42,43
 906 330 906 330 969 211 c 128,-1,44
 1032 92 1032 92 1162 92 c 256,45,46
 1292 92 1292 92 1390 209 c 128,-1,47
 1488 326 1488 326 1522 528 c 0,48,49
 1554 718 1554 718 1498 841 c 128,-1,50
 1442 964 1442 964 1306 964 c 0,51,52
 1186 964 1186 964 1079 845 c 128,-1,53
 972 726 972 726 942 542 c 2,54,-1
 938 528 l 2,42,43
EndSplineSet
EndChar

StartChar: uni023A
Encoding: 570 570 508
Width: 1250
GlyphClass: 2
Flags: W
LayerCount: 2
Fore
SplineSet
-102 0 m 1,0,-1
 682 1470 l 1,1,-1
 872 1470 l 1,2,-1
 934 1158 l 1,3,-1
 1232 1542 l 1,4,-1
 1356 1542 l 1,5,-1
 960 1032 l 1,6,-1
 1164 0 l 1,7,-1
 994 0 l 1,8,-1
 920 424 l 1,9,-1
 488 424 l 1,10,-1
 20 -178 l 1,11,-1
 -108 -178 l 1,12,-1
 32 0 l 1,13,-1
 -102 0 l 1,0,-1
352 550 m 1,14,-1
 460 550 l 1,15,-1
 814 1004 l 1,16,-1
 806 1044 l 2,17,18
 804 1046 804 1046 758 1326 c 1,19,-1
 748 1326 l 1,20,21
 608 1048 608 1048 604 1044 c 2,22,-1
 352 550 l 1,14,-1
586 550 m 1,23,-1
 896 550 l 1,24,-1
 838 874 l 1,25,-1
 586 550 l 1,23,-1
286 424 m 1,26,-1
 142 142 l 1,27,-1
 360 424 l 1,28,-1
 286 424 l 1,26,-1
EndSplineSet
EndChar

StartChar: uni023B
Encoding: 571 571 509
Width: 1264
GlyphClass: 2
Flags: W
LayerCount: 2
Fore
SplineSet
120 734 m 0,0,1
 180 1094 180 1094 386 1300 c 128,-1,2
 592 1506 592 1506 864 1506 c 0,3,4
 984 1506 984 1506 1070 1456 c 1,5,-1
 1140 1588 l 1,6,-1
 1258 1588 l 1,7,-1
 1156 1396 l 1,8,9
 1242 1312 1242 1312 1276 1184 c 1,10,-1
 1140 1136 l 1,11,12
 1110 1210 1110 1210 1078 1252 c 1,13,-1
 474 134 l 1,14,15
 544 100 544 100 628 100 c 0,16,17
 758 100 758 100 866 174 c 128,-1,18
 974 248 974 248 1040 356 c 1,19,-1
 1172 310 l 1,20,21
 1086 168 1086 168 941 66 c 128,-1,22
 796 -36 796 -36 608 -36 c 0,23,24
 496 -36 496 -36 404 4 c 1,25,-1
 326 -140 l 1,26,-1
 210 -140 l 1,27,-1
 314 52 l 1,28,29
 186 142 186 142 133 317 c 128,-1,30
 80 492 80 492 120 734 c 0,0,1
388 190 m 1,31,-1
 998 1326 l 1,32,33
 932 1372 932 1372 840 1372 c 0,34,35
 632 1372 632 1372 479 1198 c 128,-1,36
 326 1024 326 1024 278 734 c 0,37,38
 214 360 214 360 388 190 c 1,31,-1
EndSplineSet
EndChar

StartChar: uni023C
Encoding: 572 572 510
Width: 948
GlyphClass: 2
Flags: W
LayerCount: 2
Fore
SplineSet
72 528 m 0,0,1
 112 774 112 774 258 933 c 128,-1,2
 404 1092 404 1092 618 1092 c 0,3,4
 696 1092 696 1092 752 1060 c 1,5,-1
 822 1200 l 1,6,-1
 926 1200 l 1,7,-1
 828 1006 l 1,8,9
 904 940 904 940 922 818 c 1,10,-1
 794 780 l 1,11,12
 778 840 778 840 762 870 c 1,13,-1
 376 102 l 1,14,15
 402 92 402 92 448 92 c 0,16,17
 540 92 540 92 614 152 c 128,-1,18
 688 212 688 212 738 290 c 1,19,-1
 854 250 l 1,20,21
 796 138 796 138 682 51 c 128,-1,22
 568 -36 568 -36 428 -36 c 0,23,24
 362 -36 362 -36 314 -22 c 1,25,-1
 260 -132 l 1,26,-1
 154 -132 l 1,27,-1
 228 16 l 1,28,29
 122 80 122 80 83 217 c 128,-1,30
 44 354 44 354 72 528 c 0,0,1
296 150 m 1,31,-1
 690 936 l 1,32,33
 652 964 652 964 592 964 c 0,34,35
 452 964 452 964 350 840 c 128,-1,36
 248 716 248 716 216 528 c 0,37,38
 194 398 194 398 216 298 c 128,-1,39
 238 198 238 198 296 150 c 1,31,-1
EndSplineSet
EndChar

StartChar: uni023D
Encoding: 573 573 511
Width: 1050
GlyphClass: 2
Flags: W
LayerCount: 2
Fore
SplineSet
62 774 m 1,0,-1
 82 896 l 1,1,-1
 252 896 l 1,2,-1
 348 1470 l 1,3,-1
 502 1470 l 1,4,-1
 406 896 l 1,5,-1
 802 896 l 1,6,-1
 782 774 l 1,7,-1
 386 774 l 1,8,-1
 280 134 l 1,9,-1
 964 134 l 1,10,-1
 942 0 l 1,11,-1
 104 0 l 1,12,-1
 232 774 l 1,13,-1
 62 774 l 1,0,-1
EndSplineSet
EndChar

StartChar: uni023E
Encoding: 574 574 512
Width: 1072
GlyphClass: 2
Flags: W
LayerCount: 2
Fore
SplineSet
738 1336 m 1,0,-1
 674 938 l 1,1,-1
 954 1336 l 1,2,-1
 738 1336 l 1,0,-1
150 1336 m 1,3,-1
 172 1470 l 1,4,-1
 1050 1470 l 1,5,-1
 1132 1588 l 1,6,-1
 1248 1588 l 1,7,-1
 1164 1470 l 1,8,-1
 1200 1470 l 1,9,-1
 1178 1336 l 1,10,-1
 1070 1336 l 1,11,-1
 638 722 l 1,12,-1
 518 0 l 1,13,-1
 364 0 l 1,14,-1
 438 438 l 1,15,-1
 76 -76 l 1,16,-1
 -42 -76 l 1,17,-1
 474 654 l 1,18,-1
 586 1336 l 1,19,-1
 150 1336 l 1,3,-1
EndSplineSet
EndChar

StartChar: uni023F
Encoding: 575 575 513
Width: 926
GlyphClass: 2
Flags: W
LayerCount: 2
Fore
SplineSet
4 208 m 1,0,-1
 122 274 l 1,1,2
 200 92 200 92 392 92 c 0,3,4
 508 92 508 92 582 137 c 128,-1,5
 656 182 656 182 668 262 c 0,6,7
 678 318 678 318 639 361 c 128,-1,8
 600 404 600 404 563 420 c 128,-1,9
 526 436 526 436 430 470 c 0,10,11
 406 478 406 478 394 482 c 0,12,13
 256 532 256 532 184 602 c 128,-1,14
 112 672 112 672 132 794 c 0,15,16
 154 932 154 932 272 1012 c 128,-1,17
 390 1092 390 1092 556 1092 c 0,18,19
 680 1092 680 1092 769 1026 c 128,-1,20
 858 960 858 960 890 862 c 1,21,-1
 784 794 l 1,22,23
 752 870 752 870 687 917 c 128,-1,24
 622 964 622 964 536 964 c 0,25,26
 418 964 418 964 354 918 c 128,-1,27
 290 872 290 872 276 792 c 0,28,29
 268 746 268 746 285 710 c 128,-1,30
 302 674 302 674 343 647 c 128,-1,31
 384 620 384 620 420 604 c 128,-1,32
 456 588 456 588 514 572 c 0,33,34
 580 550 580 550 631 526 c 128,-1,35
 682 502 682 502 731 466 c 128,-1,36
 780 430 780 430 801 378 c 128,-1,37
 822 326 822 326 812 262 c 0,38,39
 792 138 792 138 673 51 c 128,-1,40
 554 -36 554 -36 370 -36 c 0,41,42
 244 -36 244 -36 168 14 c 1,43,44
 186 -186 186 -186 212 -250 c 0,45,46
 258 -360 258 -360 380 -360 c 0,47,48
 444 -360 444 -360 474 -354 c 1,49,-1
 456 -460 l 1,50,51
 388 -470 388 -470 358 -470 c 0,52,53
 282 -470 282 -470 228 -441 c 128,-1,54
 174 -412 174 -412 144 -374 c 128,-1,55
 114 -336 114 -336 95 -264 c 128,-1,56
 76 -192 76 -192 70 -142 c 128,-1,57
 64 -92 64 -92 56 -4 c 0,58,59
 50 142 50 142 4 208 c 1,0,-1
EndSplineSet
EndChar

StartChar: uni0240
Encoding: 576 576 514
Width: 900
GlyphClass: 2
Flags: W
LayerCount: 2
Fore
SplineSet
-38 0 m 1,0,-1
 -20 102 l 1,1,-1
 704 928 l 1,2,-1
 168 928 l 1,3,-1
 188 1056 l 1,4,-1
 908 1056 l 1,5,-1
 892 960 l 1,6,-1
 144 102 l 1,7,8
 214 92 214 92 270 43 c 128,-1,9
 326 -6 326 -6 360 -69 c 128,-1,10
 394 -132 394 -132 426 -195 c 128,-1,11
 458 -258 458 -258 502 -300 c 128,-1,12
 546 -342 546 -342 604 -342 c 0,13,14
 658 -342 658 -342 698 -334 c 1,15,-1
 676 -458 l 1,16,17
 630 -470 630 -470 574 -470 c 0,18,19
 494 -470 494 -470 437 -422 c 128,-1,20
 380 -374 380 -374 342 -308 c 128,-1,21
 304 -242 304 -242 268 -173 c 128,-1,22
 232 -104 232 -104 179 -54 c 128,-1,23
 126 -4 126 -4 54 0 c 2,24,-1
 -38 0 l 1,0,-1
EndSplineSet
EndChar

StartChar: uni0241
Encoding: 577 577 515
Width: 1080
GlyphClass: 2
Flags: W
LayerCount: 2
Fore
SplineSet
218 1186 m 1,0,1
 290 1334 290 1334 420 1420 c 128,-1,2
 550 1506 550 1506 702 1506 c 0,3,4
 884 1506 884 1506 976 1397 c 128,-1,5
 1068 1288 1068 1288 1038 1106 c 0,6,7
 1024 1016 1024 1016 976 943 c 128,-1,8
 928 870 928 870 868 819 c 128,-1,9
 808 768 808 768 749 718 c 128,-1,10
 690 668 690 668 643 599 c 128,-1,11
 596 530 596 530 582 446 c 2,12,-1
 508 0 l 1,13,-1
 356 0 l 1,14,-1
 432 458 l 2,15,16
 448 552 448 552 495 628 c 128,-1,17
 542 704 542 704 602 756 c 128,-1,18
 662 808 662 808 720 857 c 128,-1,19
 778 906 778 906 824 970 c 128,-1,20
 870 1034 870 1034 882 1110 c 0,21,22
 902 1228 902 1228 848 1301 c 128,-1,23
 794 1374 794 1374 682 1374 c 0,24,25
 580 1374 580 1374 492 1310 c 128,-1,26
 404 1246 404 1246 344 1140 c 1,27,-1
 218 1186 l 1,0,1
EndSplineSet
EndChar

StartChar: uni0250
Encoding: 592 592 516
Width: 1036
GlyphClass: 2
Flags: W
LayerCount: 2
Fore
SplineSet
264 496 m 1,0,1
 336 516 336 516 534 548 c 0,2,3
 684 576 684 576 761 632 c 128,-1,4
 838 688 838 688 856 786 c 0,5,6
 868 862 868 862 816 913 c 128,-1,7
 764 964 764 964 660 964 c 0,8,9
 528 964 528 964 420 874 c 128,-1,10
 312 784 312 784 288 644 c 2,11,-1
 264 496 l 1,0,1
104 380 m 2,12,-1
 216 1056 l 1,13,-1
 352 1056 l 1,14,-1
 324 884 l 1,15,16
 368 968 368 968 470 1030 c 128,-1,17
 572 1092 572 1092 700 1092 c 0,18,19
 860 1092 860 1092 941 1011 c 128,-1,20
 1022 930 1022 930 1000 796 c 0,21,22
 976 650 976 650 857 561 c 128,-1,23
 738 472 738 472 512 434 c 0,24,25
 342 406 342 406 242 376 c 0,26,27
 240 368 240 368 237 345 c 128,-1,28
 234 322 234 322 234 314 c 0,29,30
 218 216 218 216 276 152 c 128,-1,31
 334 88 334 88 454 88 c 0,32,33
 540 88 540 88 631 131 c 128,-1,34
 722 174 722 174 794 252 c 1,35,-1
 874 168 l 1,36,37
 782 74 782 74 666 19 c 128,-1,38
 550 -36 550 -36 436 -36 c 0,39,40
 36 -36 36 -36 104 380 c 2,12,-1
EndSplineSet
EndChar

StartChar: uni0251
Encoding: 593 593 517
Width: 1086
GlyphClass: 2
Flags: W
LayerCount: 2
Fore
SplineSet
216 528 m 0,0,1
 182 326 182 326 247 209 c 128,-1,2
 312 92 312 92 438 92 c 0,3,4
 552 92 552 92 658 205 c 128,-1,5
 764 318 764 318 800 528 c 0,6,7
 832 726 832 726 767 845 c 128,-1,8
 702 964 702 964 582 964 c 0,9,10
 450 964 450 964 350 846 c 128,-1,11
 250 728 250 728 216 528 c 0,0,1
72 528 m 0,12,13
 114 786 114 786 259 939 c 128,-1,14
 404 1092 404 1092 586 1092 c 0,15,16
 696 1092 696 1092 768 1021 c 128,-1,17
 840 950 840 950 852 872 c 1,18,-1
 884 1056 l 1,19,-1
 1024 1056 l 1,20,-1
 850 0 l 1,21,-1
 712 0 l 1,22,-1
 744 190 l 1,23,24
 692 98 692 98 599 31 c 128,-1,25
 506 -36 506 -36 400 -36 c 0,26,27
 234 -36 234 -36 130 106 c 128,-1,28
 26 248 26 248 72 528 c 0,12,13
EndSplineSet
EndChar

StartChar: uni0252
Encoding: 594 594 518
Width: 1086
GlyphClass: 2
Flags: W
LayerCount: 2
Fore
SplineSet
50 0 m 1,0,-1
 224 1056 l 1,1,-1
 366 1056 l 1,2,-1
 334 868 l 1,3,4
 374 950 374 950 469 1021 c 128,-1,5
 564 1092 564 1092 676 1092 c 0,6,7
 862 1092 862 1092 954 940 c 128,-1,8
 1046 788 1046 788 1002 528 c 0,9,10
 978 380 978 380 922 268 c 128,-1,11
 866 156 866 156 792 92 c 128,-1,12
 718 28 718 28 642 -4 c 128,-1,13
 566 -36 566 -36 490 -36 c 0,14,15
 380 -36 380 -36 309 30 c 128,-1,16
 238 96 238 96 220 188 c 1,17,-1
 188 0 l 1,18,-1
 50 0 l 1,0,-1
274 528 m 0,19,20
 240 328 240 328 305 210 c 128,-1,21
 370 92 370 92 492 92 c 0,22,23
 624 92 624 92 724 209 c 128,-1,24
 824 326 824 326 858 528 c 0,25,26
 892 728 892 728 830 846 c 128,-1,27
 768 964 768 964 638 964 c 0,28,29
 516 964 516 964 411 845 c 128,-1,30
 306 726 306 726 274 528 c 0,19,20
EndSplineSet
EndChar

StartChar: uni0253
Encoding: 595 595 519
Width: 1092
GlyphClass: 2
Flags: W
LayerCount: 2
Fore
SplineSet
280 528 m 0,0,1
 248 334 248 334 310 213 c 128,-1,2
 372 92 372 92 496 92 c 0,3,4
 628 92 628 92 729 210 c 128,-1,5
 830 328 830 328 864 528 c 0,6,7
 896 722 896 722 837 843 c 128,-1,8
 778 964 778 964 642 964 c 0,9,10
 514 964 514 964 413 842 c 128,-1,11
 312 720 312 720 280 528 c 0,0,1
54 0 m 1,12,-1
 234 1086 l 2,13,14
 270 1300 270 1300 383 1418 c 128,-1,15
 496 1536 496 1536 666 1536 c 0,16,17
 766 1536 766 1536 882 1510 c 1,18,-1
 854 1380 l 1,19,20
 728 1406 728 1406 666 1406 c 0,21,22
 544 1406 544 1406 471 1314 c 128,-1,23
 398 1222 398 1222 372 1060 c 2,24,-1
 340 868 l 1,25,26
 392 962 392 962 482 1027 c 128,-1,27
 572 1092 572 1092 682 1092 c 0,28,29
 874 1092 874 1092 962 937 c 128,-1,30
 1050 782 1050 782 1008 528 c 0,31,32
 964 262 964 262 818 113 c 128,-1,33
 672 -36 672 -36 496 -36 c 0,34,35
 378 -36 378 -36 313 33 c 128,-1,36
 248 102 248 102 226 188 c 1,37,-1
 194 0 l 1,38,-1
 54 0 l 1,12,-1
EndSplineSet
EndChar

StartChar: uni0254
Encoding: 596 596 520
Width: 946
GlyphClass: 2
Flags: W
LayerCount: 2
Fore
SplineSet
-8 250 m 1,0,-1
 118 290 l 1,1,2
 136 212 136 212 198 152 c 128,-1,3
 260 92 260 92 346 92 c 0,4,5
 476 92 476 92 581 210 c 128,-1,6
 686 328 686 328 720 528 c 0,7,8
 752 716 752 716 689 840 c 128,-1,9
 626 964 626 964 490 964 c 0,10,11
 408 964 408 964 337 911 c 128,-1,12
 266 858 266 858 224 780 c 1,13,-1
 110 818 l 1,14,15
 160 930 160 930 269 1011 c 128,-1,16
 378 1092 378 1092 512 1092 c 0,17,18
 718 1092 718 1092 811 936 c 128,-1,19
 904 780 904 780 862 528 c 0,20,21
 820 270 820 270 673 117 c 128,-1,22
 526 -36 526 -36 326 -36 c 0,23,24
 188 -36 188 -36 99 49 c 128,-1,25
 10 134 10 134 -8 250 c 1,0,-1
EndSplineSet
EndChar

StartChar: uni0255
Encoding: 597 597 521
Width: 946
GlyphClass: 2
Flags: W
LayerCount: 2
Fore
SplineSet
370 112 m 1,0,1
 436 92 436 92 500 92 c 0,2,3
 578 92 578 92 631 125 c 128,-1,4
 684 158 684 158 692 202 c 0,5,6
 704 278 704 278 606 278 c 0,7,8
 538 278 538 278 473 228 c 128,-1,9
 408 178 408 178 370 112 c 1,0,1
72 536 m 0,10,11
 112 772 112 772 257 932 c 128,-1,12
 402 1092 402 1092 612 1092 c 0,13,14
 746 1092 746 1092 825 1009 c 128,-1,15
 904 926 904 926 920 818 c 1,16,-1
 792 780 l 1,17,18
 780 852 780 852 727 908 c 128,-1,19
 674 964 674 964 592 964 c 0,20,21
 452 964 452 964 350 841 c 128,-1,22
 248 718 248 718 216 528 c 0,23,24
 178 300 178 300 274 182 c 1,25,26
 422 406 422 406 630 406 c 0,27,28
 744 406 744 406 796 345 c 128,-1,29
 848 284 848 284 834 202 c 0,30,31
 818 100 818 100 720 32 c 128,-1,32
 622 -36 622 -36 472 -36 c 0,33,34
 364 -36 364 -36 300 -12 c 1,35,36
 256 -98 256 -98 244 -130 c 1,37,-1
 126 -98 l 1,38,39
 142 -44 142 -44 196 50 c 1,40,41
 16 200 16 200 72 536 c 0,10,11
EndSplineSet
EndChar

StartChar: uni0256
Encoding: 598 598 522
Width: 1110
GlyphClass: 2
Flags: W
LayerCount: 2
Fore
SplineSet
72 528 m 0,0,1
 116 790 116 790 262 941 c 128,-1,2
 408 1092 408 1092 586 1092 c 0,3,4
 696 1092 696 1092 765 1026 c 128,-1,5
 834 960 834 960 852 872 c 1,6,-1
 960 1524 l 1,7,-1
 1102 1524 l 1,8,-1
 838 -70 l 2,9,10
 814 -214 814 -214 847 -276 c 128,-1,11
 880 -338 880 -338 962 -338 c 0,12,13
 1026 -338 1026 -338 1090 -326 c 1,14,-1
 1068 -456 l 1,15,16
 970 -470 970 -470 918 -470 c 0,17,18
 786 -470 786 -470 725 -382 c 128,-1,19
 664 -294 664 -294 700 -80 c 2,20,-1
 744 190 l 1,21,22
 688 92 688 92 597 28 c 128,-1,23
 506 -36 506 -36 398 -36 c 0,24,25
 322 -36 322 -36 256 -4 c 128,-1,26
 190 28 190 28 138 92 c 128,-1,27
 86 156 86 156 67 268 c 128,-1,28
 48 380 48 380 72 528 c 0,0,1
216 528 m 0,29,30
 184 332 184 332 246 212 c 128,-1,31
 308 92 308 92 438 92 c 0,32,33
 560 92 560 92 663 211 c 128,-1,34
 766 330 766 330 800 528 c 256,35,36
 832 726 832 726 767 845 c 128,-1,37
 702 964 702 964 582 964 c 0,38,39
 454 964 454 964 352 846 c 128,-1,40
 250 728 250 728 216 528 c 0,29,30
EndSplineSet
EndChar

StartChar: uni0257
Encoding: 599 599 523
Width: 1110
GlyphClass: 2
Flags: W
LayerCount: 2
Fore
SplineSet
72 530 m 0,0,1
 116 792 116 792 261 942 c 128,-1,2
 406 1092 406 1092 586 1092 c 0,3,4
 694 1092 694 1092 764 1024 c 128,-1,5
 834 956 834 956 852 868 c 1,6,-1
 912 1234 l 2,7,8
 936 1382 936 1382 1037 1459 c 128,-1,9
 1138 1536 1138 1536 1278 1536 c 0,10,11
 1330 1536 1330 1536 1412 1528 c 1,12,-1
 1390 1396 l 1,13,14
 1348 1402 1348 1402 1278 1402 c 0,15,16
 1188 1402 1188 1402 1126 1351 c 128,-1,17
 1064 1300 1064 1300 1048 1202 c 2,18,-1
 850 0 l 1,19,-1
 712 0 l 1,20,-1
 744 194 l 1,21,22
 694 98 694 98 601 31 c 128,-1,23
 508 -36 508 -36 398 -36 c 0,24,25
 322 -36 322 -36 255 -3 c 128,-1,26
 188 30 188 30 136 94 c 128,-1,27
 84 158 84 158 66 271 c 128,-1,28
 48 384 48 384 72 530 c 0,0,1
216 530 m 0,29,30
 182 328 182 328 245 210 c 128,-1,31
 308 92 308 92 438 92 c 0,32,33
 558 92 558 92 662 209 c 128,-1,34
 766 326 766 326 800 530 c 0,35,36
 832 728 832 728 767 846 c 128,-1,37
 702 964 702 964 582 964 c 0,38,39
 450 964 450 964 349 846 c 128,-1,40
 248 728 248 728 216 530 c 0,29,30
EndSplineSet
EndChar

StartChar: uni0258
Encoding: 600 600 524
Width: 1042
GlyphClass: 2
Flags: W
LayerCount: 2
Fore
SplineSet
62 478 m 1,0,1
 64 504 64 504 72 558 c 0,2,3
 112 796 112 796 258 944 c 128,-1,4
 404 1092 404 1092 600 1092 c 0,5,6
 800 1092 800 1092 901 940 c 128,-1,7
 1002 788 1002 788 960 536 c 0,8,9
 916 272 916 272 762 118 c 128,-1,10
 608 -36 608 -36 404 -36 c 0,11,12
 248 -36 248 -36 159 39 c 128,-1,13
 70 114 70 114 40 228 c 1,14,-1
 170 268 l 1,15,16
 194 188 194 188 261 140 c 128,-1,17
 328 92 328 92 426 92 c 0,18,19
 570 92 570 92 674 204 c 128,-1,20
 778 316 778 316 806 478 c 1,21,-1
 62 478 l 1,0,1
224 594 m 1,22,-1
 826 594 l 1,23,24
 842 748 842 748 778 856 c 128,-1,25
 714 964 714 964 580 964 c 256,26,27
 446 964 446 964 349 857 c 128,-1,28
 252 750 252 750 224 594 c 1,22,-1
EndSplineSet
EndChar

StartChar: uni025A
Encoding: 602 602 526
Width: 1226
GlyphClass: 2
Flags: W
LayerCount: 2
Fore
SplineSet
54 450 m 1,0,-1
 814 782 l 1,1,2
 754 964 754 964 568 964 c 0,3,4
 472 964 472 964 389 916 c 128,-1,5
 306 868 306 868 254 788 c 1,6,-1
 138 826 l 1,7,8
 208 946 208 946 324 1019 c 128,-1,9
 440 1092 440 1092 590 1092 c 0,10,11
 860 1092 860 1092 942 840 c 1,12,-1
 1098 918 l 1,13,14
 1122 782 1122 782 1236 782 c 0,15,16
 1282 782 1282 782 1304 788 c 1,17,-1
 1286 670 l 1,18,19
 1240 658 1240 658 1206 658 c 0,20,21
 1144 658 1144 658 1098 687 c 128,-1,22
 1052 716 1052 716 1038 758 c 1,23,-1
 966 720 l 1,24,25
 974 640 974 640 956 526 c 0,26,27
 916 282 916 282 769 123 c 128,-1,28
 622 -36 622 -36 410 -36 c 0,29,30
 210 -36 210 -36 121 104 c 128,-1,31
 32 244 32 244 54 450 c 1,0,-1
194 388 m 1,32,33
 192 248 192 248 257 170 c 128,-1,34
 322 92 322 92 432 92 c 0,35,36
 568 92 568 92 674 208 c 128,-1,37
 780 324 780 324 810 512 c 0,38,39
 826 610 826 610 828 658 c 1,40,-1
 194 388 l 1,32,33
EndSplineSet
EndChar

StartChar: uni025B
Encoding: 603 603 527
Width: 882
GlyphClass: 2
Flags: W
LayerCount: 2
Fore
SplineSet
32 284 m 0,0,1
 50 390 50 390 122 461 c 128,-1,2
 194 532 194 532 286 560 c 1,3,-1
 286 562 l 1,4,5
 128 630 128 630 156 800 c 0,6,7
 178 928 178 928 283 1010 c 128,-1,8
 388 1092 388 1092 552 1092 c 0,9,10
 780 1092 780 1092 864 880 c 1,11,-1
 738 824 l 1,12,13
 710 886 710 886 658 925 c 128,-1,14
 606 964 606 964 534 964 c 0,15,16
 432 964 432 964 371 918 c 128,-1,17
 310 872 310 872 298 792 c 0,18,19
 286 714 286 714 337 662 c 128,-1,20
 388 610 388 610 514 610 c 2,21,-1
 594 610 l 1,22,-1
 576 496 l 1,23,-1
 496 496 l 2,24,25
 346 496 346 496 268 434 c 128,-1,26
 190 372 190 372 176 286 c 0,27,28
 162 196 162 196 223 144 c 128,-1,29
 284 92 284 92 392 92 c 0,30,31
 470 92 470 92 550 135 c 128,-1,32
 630 178 630 178 676 236 c 1,33,-1
 778 176 l 1,34,35
 708 80 708 80 599 22 c 128,-1,36
 490 -36 490 -36 370 -36 c 0,37,38
 196 -36 196 -36 102 49 c 128,-1,39
 8 134 8 134 32 284 c 0,0,1
EndSplineSet
EndChar

StartChar: uni025C
Encoding: 604 604 528
Width: 884
GlyphClass: 2
Flags: W
LayerCount: 2
Fore
SplineSet
-22 176 m 1,0,-1
 98 236 l 1,1,2
 126 178 126 178 191 135 c 128,-1,3
 256 92 256 92 334 92 c 0,4,5
 442 92 442 92 522 144 c 128,-1,6
 602 196 602 196 616 286 c 0,7,8
 630 372 630 372 573 434 c 128,-1,9
 516 496 516 496 366 496 c 2,10,-1
 284 496 l 1,11,-1
 304 610 l 1,12,-1
 386 610 l 2,13,14
 514 610 514 610 582 662 c 128,-1,15
 650 714 650 714 662 792 c 0,16,17
 676 872 676 872 631 918 c 128,-1,18
 586 964 586 964 484 964 c 0,19,20
 414 964 414 964 347 925 c 128,-1,21
 280 886 280 886 232 824 c 1,22,-1
 124 880 l 1,23,24
 278 1092 278 1092 506 1092 c 0,25,26
 670 1092 670 1092 749 1010 c 128,-1,27
 828 928 828 928 806 800 c 0,28,29
 778 630 778 630 596 562 c 1,30,-1
 598 560 l 1,31,32
 680 532 680 532 729 461 c 128,-1,33
 778 390 778 390 760 284 c 0,34,35
 736 134 736 134 613 49 c 128,-1,36
 490 -36 490 -36 316 -36 c 0,37,38
 196 -36 196 -36 106 22 c 128,-1,39
 16 80 16 80 -22 176 c 1,0,-1
EndSplineSet
EndChar

StartChar: uni025D
Encoding: 605 605 529
Width: 1002
GlyphClass: 2
Flags: W
LayerCount: 2
Fore
SplineSet
-22 176 m 1,0,-1
 98 236 l 1,1,2
 122 182 122 182 187 137 c 128,-1,3
 252 92 252 92 330 92 c 0,4,5
 450 92 450 92 526 146 c 128,-1,6
 602 200 602 200 616 288 c 0,7,8
 630 374 630 374 571 435 c 128,-1,9
 512 496 512 496 364 496 c 2,10,-1
 284 496 l 1,11,-1
 304 610 l 1,12,-1
 384 610 l 2,13,14
 512 610 512 610 581 662 c 128,-1,15
 650 714 650 714 662 792 c 0,16,17
 676 872 676 872 631 918 c 128,-1,18
 586 964 586 964 484 964 c 0,19,20
 340 964 340 964 232 824 c 1,21,-1
 124 880 l 1,22,23
 278 1092 278 1092 506 1092 c 256,24,25
 734 1092 734 1092 796 934 c 1,26,-1
 946 1012 l 1,27,28
 958 948 958 948 997 906 c 128,-1,29
 1036 864 1036 864 1092 864 c 0,30,31
 1134 864 1134 864 1158 872 c 1,32,-1
 1138 750 l 1,33,34
 1098 740 1098 740 1060 740 c 0,35,36
 994 740 994 740 947 774 c 128,-1,37
 900 808 900 808 886 852 c 1,38,-1
 808 812 l 1,39,40
 802 778 802 778 798 762 c 0,41,42
 778 690 778 690 719 636 c 128,-1,43
 660 582 660 582 598 562 c 1,44,-1
 598 560 l 1,45,46
 678 532 678 532 728 462 c 128,-1,47
 778 392 778 392 760 286 c 0,48,49
 734 134 734 134 613 49 c 128,-1,50
 492 -36 492 -36 310 -36 c 0,51,52
 190 -36 190 -36 101 25 c 128,-1,53
 12 86 12 86 -22 176 c 1,0,-1
EndSplineSet
EndChar

StartChar: uni025E
Encoding: 606 606 530
Width: 1040
GlyphClass: 2
Flags: W
LayerCount: 2
Fore
SplineSet
72 530 m 0,0,1
 114 784 114 784 262 938 c 128,-1,2
 410 1092 410 1092 632 1092 c 0,3,4
 794 1092 794 1092 887 1012 c 128,-1,5
 980 932 980 932 956 792 c 0,6,7
 942 702 942 702 887 639 c 128,-1,8
 832 576 832 576 760 548 c 1,9,-1
 760 546 l 1,10,11
 836 520 836 520 881 454 c 128,-1,12
 926 388 926 388 910 282 c 0,13,14
 884 128 884 128 759 46 c 128,-1,15
 634 -36 634 -36 446 -36 c 0,16,17
 238 -36 238 -36 133 113 c 128,-1,18
 28 262 28 262 72 530 c 0,0,1
216 530 m 0,19,20
 196 406 196 406 212 317 c 128,-1,21
 228 228 228 228 271 181 c 128,-1,22
 314 134 314 134 364 113 c 128,-1,23
 414 92 414 92 468 92 c 0,24,25
 600 92 600 92 676 142 c 128,-1,26
 752 192 752 192 766 278 c 0,27,28
 780 358 780 358 727 418 c 128,-1,29
 674 478 674 478 532 478 c 2,30,-1
 464 478 l 1,31,-1
 484 598 l 1,32,-1
 552 598 l 2,33,34
 674 598 674 598 736 653 c 128,-1,35
 798 708 798 708 810 782 c 0,36,37
 824 870 824 870 770 917 c 128,-1,38
 716 964 716 964 610 964 c 0,39,40
 476 964 476 964 364 855 c 128,-1,41
 252 746 252 746 216 530 c 0,19,20
EndSplineSet
EndChar

StartChar: uni025F
Encoding: 607 607 531
Width: 522
GlyphClass: 2
Flags: W
LayerCount: 2
Fore
SplineSet
-24 538 m 1,0,-1
 -4 662 l 1,1,-1
 210 662 l 1,2,-1
 276 1056 l 1,3,-1
 418 1056 l 1,4,-1
 354 662 l 1,5,-1
 548 662 l 1,6,-1
 528 538 l 1,7,-1
 332 538 l 1,8,-1
 228 -98 l 2,9,10
 198 -276 198 -276 108 -369 c 128,-1,11
 18 -462 18 -462 -120 -462 c 2,12,-1
 -186 -462 l 1,13,-1
 -166 -334 l 1,14,-1
 -122 -334 l 2,15,16
 46 -334 46 -334 86 -90 c 2,17,-1
 190 538 l 1,18,-1
 -24 538 l 1,0,-1
EndSplineSet
EndChar

StartChar: uni0260
Encoding: 608 608 532
Width: 1086
GlyphClass: 2
Flags: W
LayerCount: 2
Fore
SplineSet
74 548 m 0,0,1
 114 790 114 790 255 941 c 128,-1,2
 396 1092 396 1092 578 1092 c 0,3,4
 692 1092 692 1092 755 1030 c 128,-1,5
 818 968 818 968 838 884 c 1,6,-1
 896 1234 l 2,7,8
 920 1378 920 1378 1022 1457 c 128,-1,9
 1124 1536 1124 1536 1260 1536 c 0,10,11
 1312 1536 1312 1536 1394 1528 c 1,12,-1
 1372 1400 l 1,13,14
 1328 1406 1328 1406 1262 1406 c 0,15,16
 1176 1406 1176 1406 1112 1353 c 128,-1,17
 1048 1300 1048 1300 1032 1202 c 2,18,-1
 852 124 l 2,19,20
 830 -6 830 -6 797 -103 c 128,-1,21
 764 -200 764 -200 706 -287 c 128,-1,22
 648 -374 648 -374 553 -422 c 128,-1,23
 458 -470 458 -470 328 -470 c 0,24,25
 88 -470 88 -470 -10 -276 c 1,26,-1
 100 -208 l 1,27,28
 132 -250 132 -250 157 -274 c 128,-1,29
 182 -298 182 -298 235 -322 c 128,-1,30
 288 -346 288 -346 354 -346 c 0,31,32
 498 -346 498 -346 585 -227 c 128,-1,33
 672 -108 672 -108 700 66 c 2,34,-1
 726 206 l 1,35,36
 674 116 674 116 591 60 c 128,-1,37
 508 4 508 4 402 4 c 0,38,39
 216 4 216 4 125 153 c 128,-1,40
 34 302 34 302 74 548 c 0,0,1
220 548 m 0,41,42
 188 354 188 354 249 243 c 128,-1,43
 310 132 310 132 434 132 c 0,44,45
 566 132 566 132 658 243 c 128,-1,46
 750 354 750 354 782 550 c 0,47,48
 814 738 814 738 757 851 c 128,-1,49
 700 964 700 964 574 964 c 0,50,51
 446 964 446 964 348 849 c 128,-1,52
 250 734 250 734 220 548 c 0,41,42
EndSplineSet
EndChar

StartChar: uni0262
Encoding: 610 610 534
Width: 1074
GlyphClass: 2
Flags: W
LayerCount: 2
Fore
SplineSet
72 526 m 0,0,1
 114 782 114 782 267 937 c 128,-1,2
 420 1092 420 1092 644 1092 c 0,3,4
 890 1092 890 1092 980 852 c 1,5,-1
 852 798 l 1,6,7
 778 962 778 962 622 962 c 0,8,9
 468 962 468 962 359 844 c 128,-1,10
 250 726 250 726 216 526 c 256,11,12
 182 326 182 326 253 210 c 128,-1,13
 324 94 324 94 476 94 c 0,14,15
 608 94 608 94 696 178 c 128,-1,16
 784 262 784 262 804 378 c 2,17,-1
 816 452 l 1,18,-1
 514 452 l 1,19,-1
 534 576 l 1,20,-1
 968 576 l 1,21,-1
 872 0 l 1,22,-1
 764 0 l 1,23,-1
 782 142 l 1,24,25
 740 70 740 70 650 17 c 128,-1,26
 560 -36 560 -36 446 -36 c 0,27,28
 236 -36 236 -36 132 113 c 128,-1,29
 28 262 28 262 72 526 c 0,0,1
EndSplineSet
EndChar

StartChar: uni0263
Encoding: 611 611 535
Width: 938
GlyphClass: 2
Flags: W
LayerCount: 2
Fore
SplineSet
96 1056 m 1,0,-1
 254 1056 l 1,1,-1
 398 278 l 1,2,-1
 408 216 l 1,3,-1
 410 216 l 1,4,-1
 442 274 l 1,5,-1
 846 1056 l 1,6,-1
 1004 1056 l 1,7,-1
 488 112 l 1,8,9
 606 -64 606 -64 584 -206 c 0,10,11
 566 -320 566 -320 484 -395 c 128,-1,12
 402 -470 402 -470 296 -470 c 0,13,14
 194 -470 194 -470 138 -398 c 128,-1,15
 82 -326 82 -326 102 -206 c 0,16,17
 124 -74 124 -74 296 108 c 1,18,-1
 96 1056 l 1,0,-1
220 -208 m 0,19,20
 210 -270 210 -270 235 -316 c 128,-1,21
 260 -362 260 -362 314 -362 c 0,22,23
 370 -362 370 -362 411 -316 c 128,-1,24
 452 -270 452 -270 462 -208 c 0,25,26
 480 -96 480 -96 382 48 c 1,27,28
 240 -84 240 -84 220 -208 c 0,19,20
EndSplineSet
Substitution2: "'sups' Superscript lookup 5 subtable" uni02E0
Substitution2: "'aalt' Access All Alternates lookup 0 subtable" uni02E0
EndChar

StartChar: uni0264
Encoding: 612 612 536
Width: 898
GlyphClass: 2
Flags: W
LayerCount: 2
Fore
SplineSet
468 688 m 1,0,1
 378 590 378 590 325 504 c 128,-1,2
 272 418 272 418 254 306 c 0,3,4
 238 212 238 212 270 153 c 128,-1,5
 302 94 302 94 376 94 c 0,6,7
 446 94 446 94 496 157 c 128,-1,8
 546 220 546 220 560 306 c 0,9,10
 578 416 578 416 554 500 c 128,-1,11
 530 584 530 584 468 688 c 1,0,1
114 952 m 1,12,-1
 136 1078 l 1,13,14
 192 1092 192 1092 234 1092 c 0,15,16
 326 1092 326 1092 383 1045 c 128,-1,17
 440 998 440 998 504 902 c 1,18,19
 598 998 598 998 675 1045 c 128,-1,20
 752 1092 752 1092 838 1092 c 0,21,22
 888 1092 888 1092 932 1080 c 1,23,-1
 912 950 l 1,24,25
 870 962 870 962 820 962 c 0,26,27
 758 962 758 962 702 922 c 128,-1,28
 646 882 646 882 574 802 c 1,29,30
 658 664 658 664 693 556 c 128,-1,31
 728 448 728 448 704 304 c 0,32,33
 680 156 680 156 585 60 c 128,-1,34
 490 -36 490 -36 354 -36 c 0,35,36
 210 -36 210 -36 147 61 c 128,-1,37
 84 158 84 158 108 304 c 0,38,39
 124 406 124 406 177 504 c 128,-1,40
 230 602 230 602 274 657 c 128,-1,41
 318 712 318 712 404 802 c 1,42,43
 362 882 362 882 318 922 c 128,-1,44
 274 962 274 962 208 962 c 0,45,46
 192 962 192 962 114 952 c 1,12,-1
EndSplineSet
EndChar

StartChar: uni0265
Encoding: 613 613 537
Width: 1064
GlyphClass: 2
Flags: W
LayerCount: 2
Fore
SplineSet
102 372 m 2,0,-1
 216 1056 l 1,1,-1
 356 1056 l 1,2,-1
 248 396 l 2,3,4
 198 92 198 92 410 92 c 0,5,6
 522 92 522 92 623 193 c 128,-1,7
 724 294 724 294 746 430 c 2,8,-1
 850 1056 l 1,9,-1
 994 1056 l 1,10,-1
 742 -462 l 1,11,-1
 600 -462 l 1,12,-1
 704 170 l 1,13,-1
 702 170 l 1,14,15
 654 88 654 88 561 26 c 128,-1,16
 468 -36 468 -36 358 -36 c 0,17,18
 220 -36 220 -36 142 56 c 128,-1,19
 64 148 64 148 102 372 c 2,0,-1
EndSplineSet
EndChar

StartChar: uni0266
Encoding: 614 614 538
Width: 1064
GlyphClass: 2
Flags: W
LayerCount: 2
Fore
SplineSet
58 0 m 1,0,-1
 258 1204 l 2,1,2
 284 1364 284 1364 390 1450 c 128,-1,3
 496 1536 496 1536 638 1536 c 0,4,5
 730 1536 730 1536 826 1522 c 1,6,-1
 804 1394 l 1,7,8
 728 1406 728 1406 638 1406 c 0,9,10
 540 1406 540 1406 476 1336 c 128,-1,11
 412 1266 412 1266 396 1178 c 2,12,-1
 348 886 l 1,13,-1
 350 886 l 1,14,15
 402 970 402 970 494 1031 c 128,-1,16
 586 1092 586 1092 694 1092 c 0,17,18
 1020 1092 1020 1092 952 682 c 2,19,-1
 838 0 l 1,20,-1
 696 0 l 1,21,-1
 804 658 l 2,22,23
 854 964 854 964 646 964 c 0,24,25
 530 964 530 964 429 864 c 128,-1,26
 328 764 328 764 306 626 c 2,27,-1
 202 0 l 1,28,-1
 58 0 l 1,0,-1
EndSplineSet
Substitution2: "'sups' Superscript lookup 5 subtable" uni02B1
Substitution2: "'aalt' Access All Alternates lookup 0 subtable" uni02B1
EndChar

StartChar: uni0267
Encoding: 615 615 539
Width: 1074
GlyphClass: 2
Flags: W
LayerCount: 2
Fore
SplineSet
58 0 m 1,0,-1
 258 1202 l 2,1,2
 284 1364 284 1364 390 1450 c 128,-1,3
 496 1536 496 1536 638 1536 c 0,4,5
 730 1536 730 1536 826 1522 c 1,6,-1
 804 1394 l 1,7,8
 728 1406 728 1406 638 1406 c 0,9,10
 538 1406 538 1406 475 1336 c 128,-1,11
 412 1266 412 1266 396 1170 c 2,12,-1
 348 886 l 1,13,-1
 350 886 l 1,14,15
 402 970 402 970 494 1031 c 128,-1,16
 586 1092 586 1092 694 1092 c 0,17,18
 1020 1092 1020 1092 952 682 c 2,19,-1
 822 -98 l 2,20,21
 792 -282 792 -282 705 -376 c 128,-1,22
 618 -470 618 -470 456 -470 c 0,23,24
 438 -470 438 -470 416 -469 c 128,-1,25
 394 -468 394 -468 367 -466 c 128,-1,26
 340 -464 340 -464 324 -464 c 1,27,-1
 346 -338 l 1,28,29
 420 -342 420 -342 452 -342 c 0,30,31
 548 -342 548 -342 603 -287 c 128,-1,32
 658 -232 658 -232 680 -92 c 2,33,-1
 804 658 l 2,34,35
 854 964 854 964 646 964 c 0,36,37
 532 964 532 964 430 862 c 128,-1,38
 328 760 328 760 306 626 c 2,39,-1
 202 0 l 1,40,-1
 58 0 l 1,0,-1
EndSplineSet
EndChar

StartChar: uni0268
Encoding: 616 616 540
Width: 508
GlyphClass: 2
Flags: W
LayerCount: 2
Fore
SplineSet
284 1294 m 1,0,-1
 316 1490 l 1,1,-1
 500 1490 l 1,2,-1
 466 1294 l 1,3,-1
 284 1294 l 1,0,-1
16 524 m 1,4,-1
 36 646 l 1,5,-1
 198 646 l 1,6,-1
 266 1056 l 1,7,-1
 408 1056 l 1,8,-1
 340 646 l 1,9,-1
 498 646 l 1,10,-1
 478 524 l 1,11,-1
 320 524 l 1,12,-1
 234 0 l 1,13,-1
 90 0 l 1,14,-1
 178 524 l 1,15,-1
 16 524 l 1,4,-1
EndSplineSet
EndChar

StartChar: uni0269
Encoding: 617 617 541
Width: 610
GlyphClass: 2
Flags: W
LayerCount: 2
Fore
SplineSet
94 290 m 2,0,-1
 220 1056 l 1,1,-1
 362 1056 l 1,2,-1
 236 298 l 2,3,4
 202 98 202 98 358 98 c 0,5,6
 434 98 434 98 494 108 c 1,7,-1
 472 -22 l 1,8,9
 366 -36 366 -36 310 -36 c 0,10,11
 184 -36 184 -36 126 46 c 128,-1,12
 68 128 68 128 94 290 c 2,0,-1
EndSplineSet
EndChar

StartChar: uni026B
Encoding: 619 619 543
Width: 476
GlyphClass: 2
Flags: W
LayerCount: 2
Fore
SplineSet
-2 730 m 1,0,-1
 18 858 l 1,1,2
 102 888 102 888 158 888 c 0,3,4
 186 888 186 888 218 880 c 1,5,-1
 324 1524 l 1,6,-1
 468 1524 l 1,7,-1
 356 850 l 1,8,9
 390 844 390 844 426 844 c 0,10,11
 436 844 436 844 444 844 c 0,12,13
 502 846 502 846 558 872 c 1,14,-1
 536 742 l 1,15,16
 484 718 484 718 426 716 c 0,17,18
 420 716 420 716 412 716 c 0,19,20
 378 716 378 716 336 724 c 1,21,-1
 216 0 l 1,22,-1
 72 0 l 1,23,-1
 198 752 l 1,24,25
 168 760 168 760 138 760 c 0,26,27
 82 760 82 760 -2 730 c 1,0,-1
EndSplineSet
EndChar

